<svg xmlns="http://www.w3.org/2000/svg" xmlns:xlink="http://www.w3.org/1999/xlink" width="500" zoomAndPan="magnify" viewBox="0 0 375 374.999991" height="500" preserveAspectRatio="xMidYMid meet" version="1.0"><defs><clipPath id="49cc058d10"><path d="M 356 206 L 369.828125 206 L 369.828125 223 L 356 223 Z M 356 206 " clip-rule="nonzero"/></clipPath></defs><path fill="#1d764a" d="M 172.921875 318.5 C 174.820312 319.199219 176.695312 316.753906 176.902344 313.519531 C 177.113281 310.277344 175.566406 307.644531 173.597656 308.125 C 176.910156 309.347656 176.367188 317.660156 172.921875 318.5 Z M 172.921875 318.5 " fill-opacity="1" fill-rule="nonzero"/><path fill="#1d764a" d="M 294.753906 282.25 C 295.601562 282.5625 296.4375 281.46875 296.53125 280.023438 C 296.625 278.578125 295.933594 277.398438 295.054688 277.613281 C 296.535156 278.160156 296.292969 281.875 294.753906 282.25 Z M 294.753906 282.25 " fill-opacity="1" fill-rule="nonzero"/><path fill="#1d764a" d="M 284.769531 284.859375 C 285.71875 285.210938 286.660156 283.988281 286.765625 282.363281 C 286.871094 280.738281 286.09375 279.417969 285.105469 279.65625 C 286.769531 280.269531 286.496094 284.4375 284.769531 284.859375 Z M 284.769531 284.859375 " fill-opacity="1" fill-rule="nonzero"/><path fill="#1d764a" d="M 316.265625 275.402344 C 316.332031 274.359375 315.832031 273.511719 315.199219 273.667969 C 316.265625 274.0625 316.089844 276.734375 314.984375 277.003906 C 315.59375 277.230469 316.195312 276.441406 316.265625 275.402344 Z M 316.265625 275.402344 " fill-opacity="1" fill-rule="nonzero"/><path fill="#1d764a" d="M 309.234375 277.085938 C 309.308594 275.914062 308.75 274.964844 308.039062 275.136719 C 309.238281 275.578125 309.042969 278.578125 307.796875 278.882812 C 308.480469 279.136719 309.160156 278.25 309.234375 277.085938 Z M 309.234375 277.085938 " fill-opacity="1" fill-rule="nonzero"/><path fill="#1d764a" d="M 335.164062 272.152344 C 335.570312 272.300781 335.96875 271.78125 336.015625 271.089844 C 336.058594 270.398438 335.730469 269.835938 335.308594 269.9375 C 336.015625 270.199219 335.902344 271.972656 335.164062 272.152344 Z M 335.164062 272.152344 " fill-opacity="1" fill-rule="nonzero"/><path fill="#1d764a" d="M 330.402344 273.015625 C 330.859375 273.183594 331.304688 272.59375 331.355469 271.824219 C 331.40625 271.050781 331.035156 270.417969 330.5625 270.535156 C 331.355469 270.828125 331.226562 272.816406 330.402344 273.015625 Z M 330.402344 273.015625 " fill-opacity="1" fill-rule="nonzero"/><path fill="#1d764a" d="M 53.621094 251.691406 C 53.429688 255.207031 51.199219 257.917969 48.566406 257.917969 C 43.023438 257.917969 41.539062 247.742188 46.652344 244.988281 C 41.820312 246.597656 40.824219 255.273438 45.242188 258.621094 C 49.109375 261.550781 53.914062 257.617188 53.621094 251.691406 Z M 53.621094 251.691406 " fill-opacity="1" fill-rule="nonzero"/><path fill="#1d764a" d="M 134.347656 257.636719 C 138.074219 262.171875 144.070312 258.347656 143.742188 251.691406 C 143.53125 255.5625 140.792969 258.574219 137.722656 257.792969 C 132.890625 256.566406 132.011719 247.550781 136.773438 244.988281 C 132.535156 246.402344 131.007812 253.566406 134.347656 257.636719 Z M 134.347656 257.636719 " fill-opacity="1" fill-rule="nonzero"/><path fill="#1d764a" d="M 268.105469 279.402344 C 268.132812 275.976562 266.414062 273.277344 264.441406 273.886719 C 267.875 275.003906 267.796875 283.792969 264.351562 284.859375 C 266.3125 285.5 268.078125 282.820312 268.105469 279.402344 Z M 268.105469 279.402344 " fill-opacity="1" fill-rule="nonzero"/><path fill="#1d764a" d="M 244.316406 283.726562 C 244.351562 279.605469 242.28125 276.363281 239.910156 277.097656 C 244.035156 278.4375 243.945312 289.007812 239.800781 290.289062 C 242.164062 291.058594 244.28125 287.832031 244.316406 283.726562 Z M 244.316406 283.726562 " fill-opacity="1" fill-rule="nonzero"/><path fill="#1d764a" d="M 149.261719 324.222656 C 151.402344 325.011719 153.5 322.246094 153.738281 318.628906 C 153.972656 314.984375 152.230469 312.027344 150.019531 312.566406 C 153.742188 313.941406 153.136719 323.28125 149.261719 324.222656 Z M 149.261719 324.222656 " fill-opacity="1" fill-rule="nonzero"/><path fill="#1d764a" d="M 215.929688 289.261719 C 215.972656 284.371094 213.515625 280.527344 210.707031 281.394531 C 215.601562 282.988281 215.492188 295.527344 210.574219 297.046875 C 213.382812 297.960938 215.890625 294.125 215.929688 289.261719 Z M 215.929688 289.261719 " fill-opacity="1" fill-rule="nonzero"/><path fill="#1d764a" d="M 153.085938 285.089844 C 154.953125 285.089844 156.222656 283.167969 156.691406 281.304688 C 155.441406 284.019531 153.070312 284.558594 151.378906 282.824219 C 149.910156 281.316406 149.257812 278.4375 149.925781 275.792969 C 148.097656 279.761719 150.019531 285.089844 153.085938 285.089844 Z M 153.085938 285.089844 " fill-opacity="1" fill-rule="nonzero"/><path fill="#1d764a" d="M 38.207031 297.019531 C 29.304688 312.996094 31.925781 308.886719 25.816406 320.199219 C 22.546875 325.710938 21.304688 332.828125 21.800781 337.886719 L 22.4375 338.140625 C 26.378906 334.761719 30.339844 328.746094 31.769531 322.585938 C 35.199219 310.105469 34.183594 315.148438 38.84375 297.273438 Z M 23.457031 333.523438 C 26.835938 322.375 32.992188 308.386719 36.371094 302.035156 C 34.84375 307.183594 29.6875 322.003906 23.457031 333.523438 Z M 23.457031 333.523438 " fill-opacity="1" fill-rule="nonzero"/><path fill="#1d764a" d="M 36.160156 356.164062 L 36.824219 356.324219 C 39.128906 353.140625 40.390625 350.347656 42.035156 346.4375 C 44.765625 338.917969 43.882812 341.613281 48.269531 314.671875 C 49.046875 309.359375 48.675781 311.964844 50.113281 301.703125 L 49.445312 301.539062 C 41.636719 323.757812 44.136719 317.519531 38.78125 333.269531 C 35.859375 341.039062 35.253906 350.101562 36.160156 356.164062 Z M 37.992188 350.179688 C 40.035156 337.171875 44.570312 319.0625 48.011719 308.53125 C 46.261719 319.640625 42.078125 337.699219 37.992188 350.179688 Z M 37.992188 350.179688 " fill-opacity="1" fill-rule="nonzero"/><path fill="#1d764a" d="M 57.300781 353.246094 L 57.984375 353.300781 C 59.515625 350.496094 60.300781 348.203125 61.460938 343.707031 C 62.253906 339.765625 63.148438 340.402344 61.917969 302.460938 L 61.234375 302.40625 C 59.488281 311.648438 59.917969 309.332031 59.050781 314.101562 C 55.214844 337.539062 55.023438 337.308594 55.253906 341.226562 C 55.441406 345.46875 55.882812 349.304688 57.300781 353.246094 Z M 60.878906 309.351562 C 61.089844 316.128906 60.597656 332.988281 58.375 348.273438 C 57.972656 335.59375 59.671875 317.667969 60.878906 309.351562 Z M 60.878906 309.351562 " fill-opacity="1" fill-rule="nonzero"/><path fill="#1d764a" d="M 76.519531 348.273438 L 77.203125 348.222656 C 79.34375 342.949219 80.058594 335.335938 78.683594 329.15625 C 75.925781 314.046875 77.78125 322.148438 73.8125 301.855469 L 73.132812 301.90625 C 72.496094 315.40625 72.210938 330.257812 72.234375 333.835938 C 72.605469 338.546875 74.148438 344.234375 76.519531 348.273438 Z M 74.039062 309.753906 C 75.574219 318.519531 76.785156 333.117188 76.480469 343.503906 C 74.675781 333.210938 73.789062 318.476562 74.039062 309.753906 Z M 74.039062 309.753906 " fill-opacity="1" fill-rule="nonzero"/><path fill="#1d764a" d="M 93.199219 345.308594 L 93.878906 345.222656 C 95.402344 340.921875 95.800781 335.214844 95.230469 330.648438 C 95.152344 330.269531 91.667969 314.457031 88.050781 300.480469 L 87.371094 300.570312 C 87.480469 319.53125 87.738281 314.09375 87.988281 327.480469 C 87.855469 333.976562 90.238281 340.980469 93.199219 345.308594 Z M 92.902344 339.554688 C 90.621094 330.113281 89.023438 316.445312 88.855469 308.257812 C 90.824219 316.414062 92.714844 330.003906 92.902344 339.554688 Z M 92.902344 339.554688 " fill-opacity="1" fill-rule="nonzero"/><path fill="#1d764a" d="M 108.960938 341.945312 L 109.636719 341.832031 C 111.265625 336.972656 111.550781 329.898438 109.59375 323.996094 C 106.035156 311.582031 107.839844 316.570312 102.585938 299.125 L 101.910156 299.234375 C 102.585938 318.675781 102.589844 311.003906 103.265625 325.039062 C 103.308594 331.148438 105.800781 337.792969 108.960938 341.945312 Z M 107.988281 335.5 C 105.1875 325.34375 103.710938 312.515625 103.476562 306.226562 C 104.605469 310.34375 107.550781 323.84375 107.988281 335.5 Z M 107.988281 335.5 " fill-opacity="1" fill-rule="nonzero"/><path fill="#1d764a" d="M 123.605469 338.480469 L 124.277344 338.363281 C 124.910156 336.546875 125.390625 334.9375 125.605469 330.054688 C 125.464844 323.867188 125.488281 326.175781 121.078125 310.277344 C 119.855469 305.976562 120.246094 307.222656 117.226562 297.6875 L 116.554688 297.804688 C 117.023438 310.632812 118.160156 325.777344 118.199219 326.160156 C 118.929688 330.234375 120.878906 335.097656 123.605469 338.480469 Z M 123.515625 333.367188 C 120.425781 323.582031 118.476562 310.515625 118.066406 304.746094 C 119.316406 308.707031 122.703125 321.875 123.515625 333.367188 Z M 123.515625 333.367188 " fill-opacity="1" fill-rule="nonzero"/><path fill="#1d764a" d="M 80.269531 218.351562 C 93.492188 232.117188 113.417969 220.078125 113.417969 198.410156 C 113.417969 174.441406 89.785156 163.484375 77.609375 181.800781 C 65.125 190.601562 66.949219 213.339844 80.269531 218.351562 Z M 109.613281 198.410156 C 109.613281 213.585938 98.207031 224.378906 87.386719 219.019531 C 95.027344 217.675781 101.101562 209.839844 101.648438 200.078125 C 102.273438 188.867188 95.335938 179.113281 85.796875 179.113281 C 85.796875 183.660156 85.796875 183.6875 85.796875 179.113281 C 85.597656 179.113281 85.402344 179.121094 85.203125 179.128906 C 96.175781 171.09375 109.613281 181.777344 109.613281 198.410156 Z M 86.359375 182.550781 C 93.429688 182.945312 98.746094 190.707031 98.230469 199.886719 C 97.714844 209.0625 91.566406 216.183594 84.496094 215.789062 C 76.6875 215.351562 71.160156 205.96875 72.917969 195.929688 C 74.304688 187.988281 79.972656 182.191406 86.359375 182.550781 Z M 86.359375 182.550781 " fill-opacity="1" fill-rule="nonzero"/><path fill="#1d764a" d="M 83.210938 212.335938 C 88.9375 212.65625 93.917969 206.890625 94.335938 199.457031 C 94.941406 188.664062 86.027344 181.851562 78.882812 187.320312 C 69.890625 194.203125 73.015625 211.765625 83.210938 212.335938 Z M 83.210938 212.335938 " fill-opacity="1" fill-rule="nonzero"/><path fill="#1d764a" d="M 81.242188 232.375 C 73.445312 225.550781 66.875 211.320312 66.949219 202.460938 C 66.953125 192.183594 69.867188 183.835938 75.390625 175.632812 C 67.625 184.339844 64.402344 194.804688 64.894531 204.273438 C 65.796875 217.878906 76.375 235.101562 91.203125 238.320312 C 89.746094 237.789062 86.089844 236.6875 81.242188 232.375 Z M 81.242188 232.375 " fill-opacity="1" fill-rule="nonzero"/><path fill="#1d764a" d="M 92.878906 219.167969 C 99.097656 218.488281 103.242188 214.464844 105.777344 208.746094 C 107.308594 205.128906 107.734375 200.617188 107.675781 197.15625 C 107.570312 192.023438 105.847656 188.113281 103.308594 184.738281 C 104.121094 186.675781 104.628906 187.992188 105.234375 190.796875 C 106.359375 195.832031 106.816406 213.941406 92.878906 219.167969 Z M 92.878906 219.167969 " fill-opacity="1" fill-rule="nonzero"/><path fill="#1d764a" d="M 125.964844 179.300781 C 133.628906 200.230469 129.332031 220.34375 112.765625 236.234375 C 131.816406 223.160156 136.902344 198.703125 125.964844 179.300781 Z M 125.964844 179.300781 " fill-opacity="1" fill-rule="nonzero"/><path fill="#1d764a" d="M 104.652344 129.714844 L 106.316406 132.394531 C 104.238281 135.113281 103.894531 139.113281 105.566406 142.089844 L 103.097656 146.457031 L 106.636719 143.546875 C 107.484375 144.425781 108.519531 145.007812 109.667969 145.25 L 109.449219 149.28125 L 111.710938 145.304688 C 114.753906 144.828125 117.1875 141.964844 117.671875 138.40625 C 118.601562 131.621094 112.308594 127.128906 107.492188 131.167969 Z M 111.894531 131.953125 C 115.738281 132.480469 116.800781 138.859375 113.53125 141.933594 C 110.316406 144.949219 106.191406 141.738281 106.851562 136.925781 C 107.273438 133.855469 109.542969 131.628906 111.894531 131.953125 Z M 111.894531 131.953125 " fill-opacity="1" fill-rule="nonzero"/><path fill="#1d764a" d="M 151.488281 181.480469 C 156.304688 183.664062 163.277344 185.417969 168.589844 186.636719 C 163.820312 184.519531 156.660156 182.714844 151.488281 181.480469 Z M 151.488281 181.480469 " fill-opacity="1" fill-rule="nonzero"/><path fill="#1d764a" d="M 141.679688 183.230469 C 149.738281 186.019531 161.632812 189.394531 170.101562 191.261719 C 162.039062 188.46875 150.160156 185.101562 141.679688 183.230469 Z M 141.679688 183.230469 " fill-opacity="1" fill-rule="nonzero"/><path fill="#1d764a" d="M 150.476562 183.230469 C 154.953125 185.226562 161.761719 187.007812 166.261719 187.976562 C 161.816406 185.992188 155.023438 184.210938 150.476562 183.230469 Z M 150.476562 183.230469 " fill-opacity="1" fill-rule="nonzero"/><path fill="#1d764a" d="M 167.832031 193.296875 C 162.671875 191.449219 154.972656 189.441406 149.398438 188.523438 C 154.59375 190.378906 162.289062 192.382812 167.832031 193.296875 Z M 167.832031 193.296875 " fill-opacity="1" fill-rule="nonzero"/><path fill="#1d764a" d="M 169.941406 196.296875 C 163.066406 193.816406 152.917969 191.355469 146.855469 190.105469 C 153.882812 192.640625 164.117188 195.101562 169.941406 196.296875 Z M 169.941406 196.296875 " fill-opacity="1" fill-rule="nonzero"/><path fill="#1d764a" d="M 181.964844 192.410156 C 191.988281 196.160156 205.03125 199.933594 210.78125 201.363281 C 206.898438 199.910156 193.675781 195.332031 181.964844 192.410156 Z M 181.964844 192.410156 " fill-opacity="1" fill-rule="nonzero"/><path fill="#1d764a" d="M 211.851562 204.46875 C 204.914062 202.085938 194.023438 199.046875 185.957031 197.386719 C 194.097656 200.183594 205.070312 203.074219 211.851562 204.46875 Z M 211.851562 204.46875 " fill-opacity="1" fill-rule="nonzero"/><path fill="#1d764a" d="M 210.800781 207.195312 C 204.710938 204.910156 195.976562 203.140625 189.066406 201.695312 C 194.644531 203.785156 201.835938 205.324219 210.800781 207.195312 Z M 210.800781 207.195312 " fill-opacity="1" fill-rule="nonzero"/><path fill="#1d764a" d="M 224.40625 207.46875 C 225.066406 207.785156 230.007812 210.011719 235.277344 210.78125 C 232.710938 209.554688 228.164062 208.023438 224.40625 207.46875 Z M 224.40625 207.46875 " fill-opacity="1" fill-rule="nonzero"/><path fill="#1d764a" d="M 233.574219 212.65625 C 231.539062 211.519531 228.429688 210.59375 226.144531 210.421875 C 226.527344 210.636719 229.863281 212.382812 233.574219 212.65625 Z M 233.574219 212.65625 " fill-opacity="1" fill-rule="nonzero"/><path fill="#1d764a" d="M 233.015625 214.890625 C 231.421875 213.949219 228.957031 213.304688 227.132812 213.335938 C 228.71875 214.273438 231.183594 214.921875 233.015625 214.890625 Z M 233.015625 214.890625 " fill-opacity="1" fill-rule="nonzero"/><path fill="#1d764a" d="M 254.105469 208.96875 L 249.480469 207.640625 L 248.675781 224.621094 L 253.304688 225.570312 Z M 254.105469 208.96875 " fill-opacity="1" fill-rule="nonzero"/><path fill="#1d764a" d="M 261.070312 210.617188 L 256.445312 209.289062 L 255.640625 226.269531 L 260.269531 227.21875 Z M 261.070312 210.617188 " fill-opacity="1" fill-rule="nonzero"/><path fill="#1d764a" d="M 29.898438 371.992188 L 140.242188 347.242188 C 142.207031 346.804688 143.640625 345.28125 144.074219 343.445312 C 145.628906 343.570312 148.128906 343.566406 149.601562 343.292969 C 153.871094 342.992188 157.703125 338.628906 160.074219 332.089844 C 160.75 331.859375 161.433594 331.625 162.128906 331.386719 C 163.890625 333.9375 166.058594 335.484375 168.4375 335.617188 C 168.425781 335.664062 171.328125 335.78125 173.222656 335.472656 C 177.285156 335.1875 180.894531 330.769531 182.957031 324.28125 C 187.449219 322.75 192.144531 321.144531 196.992188 319.488281 C 198.664062 320.808594 200.558594 321.59375 202.671875 321.746094 C 202.671875 321.789062 202.035156 321.773438 210.980469 321.773438 C 215.878906 321.773438 220.277344 317.421875 223.296875 310.507812 C 224.855469 309.976562 226.417969 309.441406 227.984375 308.90625 C 229.480469 310.203125 231.199219 310.96875 233.136719 311.105469 C 233.136719 311.148438 232.601562 311.132812 240.144531 311.132812 C 244.386719 311.132812 248.183594 307.25 250.734375 301.136719 C 251.867188 300.75 252.996094 300.363281 254.128906 299.976562 C 255.460938 301.273438 257.023438 302.046875 258.808594 302.175781 C 258.808594 302.21875 258.367188 302.199219 264.636719 302.199219 C 268.300781 302.199219 271.5625 298.71875 273.679688 293.296875 C 275.59375 292.640625 277.492188 291.992188 279.378906 291.347656 C 280.257812 292.609375 281.335938 293.375 282.519531 293.441406 C 282.519531 293.441406 282.519531 293.445312 282.519531 293.445312 C 285.195312 293.511719 287.894531 293.699219 289.789062 287.796875 C 290.597656 289.0625 291.621094 289.835938 292.75 289.902344 C 292.75 289.902344 292.746094 289.90625 292.746094 289.90625 C 295.070312 289.960938 297.667969 290.179688 299.332031 284.53125 C 300.777344 284.035156 302.203125 283.550781 303.613281 283.066406 C 304.292969 284.261719 305.1875 285 306.179688 285.054688 C 306.179688 285.058594 306.179688 285.0625 306.179688 285.0625 C 308.097656 285.109375 310.050781 285.246094 311.410156 280.992188 C 311.996094 281.902344 312.730469 282.460938 313.542969 282.507812 C 313.542969 282.511719 313.539062 282.515625 313.539062 282.515625 C 315 282.550781 317.324219 282.832031 318.445312 277.996094 C 321.542969 276.9375 324.488281 275.933594 327.257812 274.988281 C 327.722656 276.238281 328.46875 277.058594 329.328125 277.109375 C 329.328125 277.109375 329.328125 277.113281 329.328125 277.113281 C 330.441406 277.140625 331.773438 277.28125 332.710938 274.660156 C 333.113281 275.347656 333.632812 275.765625 334.210938 275.800781 C 334.210938 275.800781 334.207031 275.804688 334.207031 275.804688 C 334.457031 275.808594 335 275.832031 335.25 275.761719 C 336.472656 275.65625 337.5 273.804688 337.667969 271.429688 C 347.367188 268.113281 353.160156 266.132812 353.160156 266.132812 L 285.398438 265.425781 L 285.398438 264.585938 C 299.378906 264.84375 315.117188 264.730469 327.554688 265.023438 C 315.140625 263.878906 299.269531 262.902344 285.398438 261.691406 L 285.398438 261.226562 C 304.824219 262.492188 296.25 261.996094 353.160156 264.992188 C 296.46875 258.246094 305.300781 259.34375 285.398438 256.722656 L 285.398438 221.636719 C 288.425781 222.84375 312.179688 232.308594 315.21875 233.519531 L 315.671875 256.191406 L 316.761719 242.011719 L 353.753906 253.628906 L 316.9375 239.707031 L 317.347656 234.371094 C 337.59375 242.4375 355.824219 249.703125 355.824219 249.703125 C 354.625 249.171875 345.578125 245.15625 285.398438 218.457031 L 285.398438 217.25 C 285.398438 216.003906 284.195312 215.039062 282.917969 215.449219 L 282.742188 211.929688 C 280.386719 210.777344 268.828125 205.140625 266.457031 204.164062 C 265.441406 199.335938 264.085938 194.417969 262.59375 193.132812 C 260.484375 191.3125 234.699219 183.003906 234.320312 182.917969 C 229.757812 181.519531 216.042969 181.40625 211.707031 181.734375 C 207.644531 182.042969 202.929688 187.066406 200.980469 189.351562 C 200.003906 189.03125 199.019531 188.707031 198.023438 188.382812 C 198.558594 184.050781 199.480469 172.835938 195.585938 167.792969 C 192.570312 163.886719 183.117188 161.050781 181.203125 182.875 C 180.589844 182.671875 179.976562 182.472656 179.359375 182.269531 L 182.03125 111.679688 C 188.421875 99.898438 188.074219 100.671875 188.125 100.125 L 189.644531 83.972656 C 189.710938 83.292969 189.40625 82.636719 188.851562 82.242188 C 179.90625 75.898438 168.742188 73.367188 156.570312 74.921875 C 147.4375 76.085938 141.007812 79.097656 140.738281 79.222656 C 140.03125 79.558594 139.601562 80.292969 139.65625 81.074219 C 141.003906 100.699219 141.175781 101.222656 141.269531 101.5 C 141.375 101.816406 141.550781 102.34375 147.496094 110.234375 L 146.738281 134.144531 C 144.933594 130.566406 141.019531 128.308594 137.1875 127.078125 L 114.179688 119.761719 C 111.507812 118.308594 109.476562 118.265625 109.015625 118.121094 C 108.660156 118.003906 108.292969 118.007812 107.957031 118.097656 C 91.917969 117.714844 84.972656 143.4375 98.65625 153.769531 L 90.152344 153.359375 C 89.464844 153.328125 88.8125 153.667969 88.445312 154.253906 C 83.324219 162.484375 84.324219 160.871094 84.171875 161.128906 C 54.625 174.890625 51.535156 220.464844 78.929688 239.078125 L 43.636719 239.078125 L 43.636719 242.175781 C 37.921875 246.507812 37.921875 257.117188 43.636719 261.449219 L 43.636719 262.875 C 43.636719 264.1875 44.941406 265.097656 46.167969 264.667969 L 50.613281 264.722656 L 50.613281 276.058594 L 48.207031 278.996094 C 42.023438 278.832031 41.195312 278.542969 39.9375 279.769531 C 38.65625 281.015625 38.949219 281.609375 38.949219 289.898438 L 33.777344 287.574219 C 30.84375 286.257812 28.648438 290.6875 31.914062 292.15625 L 14.371094 331.597656 C 12.675781 330.246094 10.230469 330.085938 8.339844 331.375 C 6.019531 332.957031 5.421875 336.121094 7.003906 338.4375 Z M 332.863281 274.1875 C 333 273.722656 333.097656 273.246094 333.164062 272.664062 C 333.285156 273.515625 333.628906 274.863281 334.367188 275.296875 C 333.753906 275.234375 333.308594 275.253906 332.863281 274.1875 Z M 335.890625 267.042969 C 338.09375 267.242188 337.488281 275.195312 335.34375 275.074219 C 335.265625 275.070312 335.023438 274.949219 334.949219 274.917969 C 337.277344 275.054688 337.421875 267.316406 335.453125 267.179688 C 335.574219 267.148438 335.765625 267.03125 335.890625 267.042969 Z M 335.5 269.722656 C 336.195312 269.761719 336.449219 271.226562 335.902344 272.03125 C 335.699219 272.328125 335.402344 272.496094 335.097656 272.308594 C 334.265625 271.796875 334.617188 269.671875 335.5 269.722656 Z M 334.757812 266.523438 C 334.835938 266.527344 335.175781 266.523438 335.25 266.558594 C 334.296875 266.492188 333.441406 268.53125 333.171875 270.292969 C 333.109375 269.742188 333.003906 269.1875 332.835938 268.652344 C 333.164062 267.632812 333.878906 266.449219 334.757812 266.523438 Z M 331.214844 267.285156 C 332.65625 267.414062 333.238281 271.183594 332.40625 274.023438 C 332.144531 274.90625 331.511719 276.347656 330.601562 276.296875 C 330.515625 276.289062 330.242188 276.15625 330.160156 276.121094 C 332.714844 276.269531 332.949219 267.589844 330.722656 267.4375 C 330.859375 267.402344 331.078125 267.273438 331.214844 267.285156 Z M 330.773438 270.292969 C 331.929688 270.355469 331.738281 273.347656 330.582031 273.28125 C 329.425781 273.214844 329.617188 270.226562 330.773438 270.292969 Z M 329.945312 266.699219 C 330.03125 266.707031 330.414062 266.703125 330.496094 266.742188 C 329.160156 266.648438 327.351562 270.886719 328.363281 274.609375 C 328.609375 275.507812 328.996094 276.242188 329.507812 276.546875 C 329.332031 276.527344 329.222656 276.515625 329.152344 276.503906 C 326.175781 276.101562 327.085938 266.460938 329.945312 266.699219 Z M 308.359375 274.773438 C 310.105469 274.871094 309.8125 279.382812 308.066406 279.28125 C 306.324219 279.183594 306.617188 274.671875 308.359375 274.773438 Z M 311.613281 280.292969 C 311.804688 279.546875 311.929688 278.785156 312 278.027344 C 312.199219 279.238281 312.722656 281.128906 313.78125 281.75 C 312.8125 281.648438 312.257812 281.664062 311.613281 280.292969 Z M 315.484375 273.339844 C 317.039062 273.429688 316.777344 277.449219 315.222656 277.363281 C 313.667969 277.273438 313.929688 273.253906 315.484375 273.339844 Z M 316.078125 269.300781 C 317.949219 269.46875 318.8125 274.328125 317.707031 278.25 C 317.359375 279.476562 316.496094 281.484375 315.253906 281.414062 C 315.136719 281.40625 314.769531 281.226562 314.660156 281.179688 C 318.035156 281.378906 318.453125 269.714844 315.417969 269.507812 C 315.597656 269.457031 315.886719 269.28125 316.078125 269.300781 Z M 314.371094 268.511719 C 314.488281 268.523438 315 268.519531 315.109375 268.570312 C 313.625 268.464844 312.300781 271.734375 311.9375 274.445312 C 311.828125 273.644531 311.640625 272.800781 311.371094 272.027344 C 311.832031 270.441406 312.9375 268.394531 314.371094 268.511719 Z M 308.984375 270.230469 C 311.140625 270.355469 312.171875 276.125 310.746094 280.628906 C 310.347656 281.890625 309.414062 283.902344 308.101562 283.828125 C 307.96875 283.820312 307.558594 283.617188 307.433594 283.566406 C 311.183594 283.785156 311.761719 270.707031 308.285156 270.46875 C 308.414062 270.433594 308.851562 270.222656 308.984375 270.230469 Z M 307.109375 269.355469 C 307.242188 269.367188 307.816406 269.359375 307.941406 269.417969 C 305.621094 269.253906 302.804688 277.242188 305.160156 282.539062 C 305.5 283.304688 305.933594 283.902344 306.449219 284.207031 C 306.183594 284.179688 306.019531 284.160156 305.910156 284.144531 C 301.382812 283.53125 302.835938 268.996094 307.109375 269.355469 Z M 138.445312 316.746094 C 137.535156 325.949219 140.027344 337.839844 145.0625 340.804688 C 144.605469 340.753906 144.246094 340.714844 143.953125 340.679688 C 143.226562 338.484375 141.042969 336.992188 138.640625 337.230469 L 135.21875 313.898438 C 136.191406 306.179688 139.855469 294.328125 147.394531 294.570312 L 146.71875 294.863281 L 148.335938 294.597656 C 148.914062 294.617188 149.507812 294.660156 149.707031 294.753906 C 144.25 294.367188 139.40625 307.039062 138.445312 316.746094 Z M 119.699219 272.242188 L 112.78125 280.691406 C 97.105469 280.28125 68.691406 279.53125 56.867188 279.222656 L 63.25 271.429688 Z M 66.328125 267.671875 L 68.566406 264.941406 L 125.113281 265.632812 L 122.777344 268.484375 Z M 131.914062 259.582031 C 132.074219 259.792969 132.238281 259.996094 132.410156 260.191406 C 126.554688 267.824219 117.195312 279.125 111.515625 285.085938 C 116.84375 277.480469 126.632812 265.617188 131.914062 259.582031 Z M 135.832031 186.738281 C 141.46875 201.476562 139.960938 221.148438 128.730469 236.441406 C 146.332031 215.253906 143.238281 186.847656 131.660156 170.648438 C 168.683594 182.769531 166.042969 181.824219 166.027344 182.101562 C 166.914062 182.144531 166.410156 182.027344 168.40625 182.683594 L 168.285156 182.796875 C 176.460938 191.503906 179.871094 202.148438 178.84375 212.566406 L 178.601562 212.515625 C 178.179688 223.425781 173.261719 232.878906 164.972656 239.929688 C 172.449219 232.046875 176.175781 222.378906 175.238281 211.78125 L 143.757812 204.929688 C 140.195312 226.589844 130.664062 235.917969 126.433594 239.078125 L 119.273438 239.078125 C 135.382812 228.132812 142.09375 206.15625 135.832031 186.738281 Z M 195.675781 228.363281 C 193.269531 228.074219 187.792969 227.039062 183.046875 225.140625 C 186.695312 225.578125 192.019531 226.894531 195.675781 228.363281 Z M 183.335938 220.929688 C 193.882812 222.632812 207.0625 225.675781 214.289062 227.664062 C 209.484375 226.886719 195.667969 224.320312 183.335938 220.929688 Z M 206.828125 245.367188 C 197.300781 244.789062 189.910156 243.417969 175.972656 240.496094 C 180.085938 240.894531 184.390625 241.5 206.828125 245.367188 Z M 218.328125 199.035156 C 225.894531 201.515625 231.089844 203.214844 232.417969 203.652344 C 233.441406 204.550781 238.691406 209.96875 238.253906 225.5 L 222.519531 222.074219 C 223.136719 213.496094 221.535156 205.578125 218.328125 199.035156 Z M 241.238281 213.992188 L 241.238281 206.261719 L 243.609375 203.527344 L 262.464844 208.949219 C 262.425781 209.351562 261.683594 228.5625 261.667969 228.941406 L 246.460938 225.542969 L 247.402344 207.292969 C 247.457031 206.242188 246.648438 205.347656 245.601562 205.296875 C 244.550781 205.238281 243.65625 206.046875 243.605469 207.09375 L 241.828125 241.488281 C 241.773438 242.574219 242.636719 243.488281 243.730469 243.488281 C 244.734375 243.488281 245.574219 242.703125 245.625 241.6875 L 246.261719 229.394531 L 261.515625 232.804688 L 260.753906 252.148438 L 242.105469 249.703125 C 247.515625 250.011719 254.375 250.339844 259.601562 250.777344 C 252.640625 248.976562 244.097656 247.199219 236.433594 245.324219 C 240.390625 239.636719 241.761719 234.464844 242.046875 225.972656 C 242.207031 221.191406 241.859375 217.242188 241.238281 213.992188 Z M 225.1875 229.960938 C 229.125 230.300781 234.363281 231.589844 237.359375 232.71875 C 234.050781 232.433594 228.773438 231.308594 225.1875 229.960938 Z M 257.125 255.507812 C 254.492188 256.648438 252.207031 259.792969 250.617188 264.15625 C 248.070312 258.199219 244.324219 254.429688 240.144531 254.429688 C 232.601562 254.429688 233.144531 254.410156 233.128906 254.464844 C 229.257812 254.855469 225.824219 258.789062 223.515625 264.777344 L 222.839844 264.773438 C 219.84375 258.441406 215.636719 254.507812 210.980469 254.507812 C 207.675781 254.507812 206.011719 254.507812 202.671875 254.507812 C 202.605469 254.761719 197.035156 254.140625 192.246094 264.453125 L 186.894531 264.394531 C 184.464844 263.636719 184.710938 264.375 172.671875 264.246094 C 179.882812 263.5625 183.679688 263.414062 191.171875 263.449219 C 174.785156 261.660156 171.875 262.742188 162.988281 261.976562 L 187.125 260.082031 L 162.847656 259.3125 L 162.847656 258.195312 L 191.175781 256.546875 L 162.847656 255.339844 L 162.847656 254.003906 L 190.921875 253.722656 L 162.847656 251.144531 L 162.847656 248.859375 L 173.9375 249.152344 L 162.847656 246.21875 L 162.847656 245.617188 L 226.453125 252.894531 C 162.070312 242.542969 154.535156 242.058594 257.125 255.507812 Z M 236.195312 264.644531 C 236.195312 264.644531 236.246094 264.664062 236.417969 264.914062 C 238.066406 267.308594 239.160156 272.515625 238.789062 274.992188 C 237.722656 273.460938 236.195312 269.21875 236.207031 265.117188 C 236.203125 265 236.222656 264.75 236.195312 264.644531 Z M 150.84375 244.988281 L 146.828125 244.988281 C 146.351562 244.195312 145.792969 243.484375 145.171875 242.878906 L 159.042969 242.878906 L 159.042969 262.246094 L 143.433594 262.054688 C 144.46875 261.46875 145.398438 260.632812 146.175781 259.605469 L 150.84375 259.605469 C 153.894531 259.605469 156.367188 256.332031 156.367188 252.296875 C 156.367188 248.257812 153.894531 244.988281 150.84375 244.988281 Z M 156.191406 238.488281 C 152.3125 238.753906 145.980469 238.527344 141.488281 237.785156 C 146.15625 237.46875 152.503906 237.875 156.191406 238.488281 Z M 145.539062 213.191406 C 153.925781 214.515625 164.730469 217.078125 171.097656 218.964844 C 164.074219 217.855469 153.289062 215.480469 145.539062 213.191406 Z M 152.335938 272.179688 C 155.363281 271.003906 158.285156 274.496094 158.285156 278.804688 C 158.285156 283.125 155.351562 286.601562 152.335938 285.425781 C 147.59375 283.582031 147.648438 274.003906 152.335938 272.179688 Z M 156.789062 269.375 C 161.824219 265.980469 167.746094 271.578125 167.261719 279.695312 C 165.519531 279.898438 164.417969 280.027344 162.402344 280.261719 C 162.402344 280.261719 161.671875 286.136719 157.46875 287.8125 C 163.402344 283.691406 163.019531 272.796875 156.789062 269.375 Z M 139.964844 242.878906 C 142.464844 243.835938 144.054688 246.484375 144.640625 249.152344 C 145.945312 255.089844 142.671875 261.089844 138.144531 261.089844 C 134.367188 261.089844 131.367188 256.863281 131.367188 251.8125 C 131.367188 245.753906 135.609375 241.214844 139.964844 242.878906 Z M 135.535156 265.757812 L 141.550781 265.832031 L 141.550781 279.289062 C 140.433594 278.832031 140.191406 279.109375 135.535156 279.894531 C 135.535156 264.839844 135.535156 267.011719 135.535156 265.757812 Z M 131.734375 268.351562 C 131.734375 268.4375 131.734375 268.527344 131.734375 268.613281 L 131.519531 268.609375 Z M 128.441406 272.367188 L 131.734375 272.414062 C 131.734375 275.164062 131.730469 278.113281 131.730469 280.519531 C 127.257812 281.234375 129.132812 281.117188 121.441406 280.914062 Z M 139.652344 283.027344 L 139.652344 289.703125 L 134.296875 291.347656 C 133.351562 289.871094 131.925781 290.21875 130.1875 290.328125 L 130.007812 284.636719 C 132.65625 284.242188 137.253906 283.476562 139.652344 283.027344 Z M 146.4375 318.210938 C 146.6875 314.335938 148.738281 311.296875 151.015625 311.425781 C 153.292969 311.554688 154.933594 314.800781 154.679688 318.679688 C 154.429688 322.558594 152.378906 325.597656 150.101562 325.46875 C 147.824219 325.339844 146.183594 322.089844 146.4375 318.210938 Z M 157.160156 333.082031 C 155.839844 335.992188 153.378906 339.808594 150.207031 339.628906 C 149.792969 339.605469 148.515625 338.964844 148.128906 338.8125 C 160 339.507812 161.359375 298.75 150.777344 298.027344 C 151.347656 297.875 152.464844 297.242188 153.089844 297.296875 C 160.648438 298 163.097656 319.988281 157.160156 333.082031 Z M 166.273438 329.976562 C 167.09375 331.453125 168.070312 332.601562 169.1875 333.257812 C 166.359375 332.957031 163.777344 333.183594 161.601562 326.636719 C 162.980469 319.941406 162.957031 312.070312 161.128906 305.242188 C 163.144531 296.226562 167.480469 291.800781 171.015625 292.097656 C 171.378906 292.128906 172.980469 292.113281 173.316406 292.273438 C 166.492188 291.792969 158.613281 316.214844 166.273438 329.976562 Z M 170.40625 313.152344 C 170.632812 309.699219 172.457031 306.996094 174.480469 307.109375 C 176.507812 307.222656 177.96875 310.117188 177.742188 313.566406 C 177.519531 317.019531 175.695312 319.722656 173.667969 319.609375 C 171.644531 319.496094 170.183594 316.601562 170.40625 313.152344 Z M 180.476562 325.128906 C 179.324219 328.097656 176.949219 332.390625 173.761719 332.210938 C 173.394531 332.1875 172.257812 331.621094 171.910156 331.480469 C 182.460938 332.101562 183.699219 295.832031 174.269531 295.1875 C 174.777344 295.050781 175.773438 294.488281 176.328125 294.539062 C 182.734375 295.132812 185.144531 313.117188 180.476562 325.128906 Z M 190.765625 276.984375 C 190.761719 276.984375 171.664062 278.804688 171.664062 278.804688 C 171.679688 279.300781 170.964844 283.460938 168.765625 286.730469 C 171.984375 280.824219 171.136719 272.738281 166.789062 268.121094 C 176.847656 267.75 174.292969 267.84375 184.285156 267.476562 C 185.152344 267.445312 191.144531 269.078125 190.765625 276.984375 Z M 200.378906 318.335938 C 195.277344 314.988281 191.246094 302.75 191.59375 287.683594 C 191.617188 286.597656 191.664062 285.550781 191.730469 284.523438 C 194.199219 281.027344 194.773438 276.160156 193.667969 272.238281 C 195.324219 266.226562 199.449219 257.273438 205.667969 257.492188 C 206.199219 257.507812 208.511719 257.367188 209.015625 257.582031 C 206.15625 257.523438 203.582031 260.324219 201.496094 264.550781 C 198.4375 270.746094 196.425781 280 196.113281 287.757812 C 195.605469 300.144531 199.675781 315.882812 206.371094 319.511719 C 202.242188 319.269531 201.585938 319.125 200.378906 318.335938 Z M 209.378906 278.898438 C 208.066406 276.789062 206.390625 271.289062 206.300781 266.625 C 207.875 268.5 209.699219 275.433594 209.378906 278.898438 Z M 205.820312 288.023438 C 204.074219 288.660156 201.050781 287.714844 199.996094 286.457031 C 201.527344 285.902344 204.617188 286.578125 205.820312 288.023438 Z M 203.804688 310.964844 C 203.863281 307.578125 206.152344 300.921875 208.089844 298.269531 C 208.019531 301.621094 205.765625 308.289062 203.804688 310.964844 Z M 206.503906 289.191406 C 206.546875 283.984375 208.964844 279.78125 211.90625 279.800781 C 214.847656 279.824219 217.195312 284.0625 217.148438 289.269531 C 217.105469 294.476562 214.6875 298.679688 211.746094 298.65625 C 208.808594 298.636719 206.460938 294.398438 206.503906 289.191406 Z M 216.695312 272.765625 C 217.078125 274.71875 215.867188 278.414062 214.332031 279.769531 C 213.914062 277.664062 215.273438 274.027344 216.695312 272.765625 Z M 216.441406 309.613281 C 214.949219 307.476562 213.675781 302.117188 214.113281 299.390625 C 215.710938 301.695312 216.847656 307.101562 216.441406 309.613281 Z M 212.90625 317.59375 C 212.375 317.589844 210.683594 316.820312 210.167969 316.640625 C 212.816406 316.664062 214.8125 315.089844 216.296875 312.898438 C 219.925781 307.542969 222.816406 293.097656 220.605469 279.246094 C 219.644531 273.230469 216.691406 262.011719 210.632812 261.894531 C 211.144531 261.722656 212.859375 260.746094 213.386719 260.75 C 217.625 260.78125 220.441406 266.414062 221.820312 270.429688 C 228.183594 288.9375 222.578125 317.664062 212.90625 317.59375 Z M 217.3125 291.109375 C 218.242188 290.308594 219.300781 290.59375 219.695312 291.75 C 218.761719 292.558594 217.707031 292.253906 217.3125 291.109375 Z M 233.433594 309.003906 C 229.925781 308.878906 227.472656 303.945312 226.300781 300.617188 C 228.121094 291.324219 227.878906 280.257812 225.152344 270.933594 C 226.480469 265.25 230.050781 256.75 235.664062 256.945312 C 236.113281 256.960938 238.0625 256.839844 238.488281 257.023438 C 232.539062 256.894531 228.054688 271.484375 227.609375 282.460938 C 227.183594 292.890625 230.605469 306.164062 236.257812 309.226562 C 234.457031 309.121094 233.433594 309.003906 233.433594 309.003906 Z M 235.792969 282.683594 C 234.167969 283.300781 231.980469 282.703125 230.882812 281.363281 C 232.488281 280.757812 234.683594 281.320312 235.792969 282.683594 Z M 234.09375 302.019531 C 233.992188 299.125 235.917969 293.511719 237.703125 291.320312 C 237.796875 294.199219 235.890625 299.816406 234.09375 302.019531 Z M 236.367188 283.667969 C 236.40625 279.277344 238.445312 275.734375 240.921875 275.753906 C 243.402344 275.769531 245.378906 279.34375 245.34375 283.730469 C 245.304688 288.121094 243.265625 291.664062 240.789062 291.648438 C 238.308594 291.628906 236.332031 288.054688 236.367188 283.667969 Z M 244.960938 269.820312 C 245.4375 271.550781 244.390625 274.652344 242.964844 275.726562 C 242.480469 273.988281 243.542969 270.898438 244.960938 269.820312 Z M 244.742188 300.882812 C 243.332031 299.105469 242.257812 294.585938 242.785156 292.265625 C 244.292969 294.175781 245.238281 298.730469 244.742188 300.882812 Z M 240.492188 307.21875 C 240.066406 307.050781 239.65625 306.875 239.457031 306.804688 C 252.34375 306.925781 251.523438 260.878906 239.847656 260.65625 C 240.28125 260.511719 241.726562 259.691406 242.167969 259.691406 C 244.445312 259.710938 246.515625 261.710938 248.128906 265.035156 C 255.605469 280.425781 249.878906 310.933594 240.492188 307.21875 Z M 245.480469 285.285156 C 246.328125 284.425781 247.207031 284.738281 247.488281 285.824219 C 246.660156 286.664062 245.765625 286.398438 245.480469 285.285156 Z M 262.605469 285.71875 C 262.851562 288.257812 261.203125 292.902344 259.601562 294.617188 C 259.363281 292.214844 260.921875 287.535156 262.605469 285.71875 Z M 256.933594 277.4375 C 258.316406 276.769531 260.144531 277.238281 261.015625 278.535156 C 259.632812 279.207031 257.808594 278.726562 256.933594 277.4375 Z M 261.496094 279.351562 C 261.527344 275.703125 263.222656 272.753906 265.285156 272.769531 C 267.34375 272.785156 268.992188 275.757812 268.960938 279.40625 C 268.929688 283.058594 267.234375 286.003906 265.171875 285.988281 C 263.109375 285.976562 261.464844 283.003906 261.496094 279.351562 Z M 268.640625 267.835938 C 269.136719 269.511719 268.414062 271.707031 266.984375 272.746094 C 266.453125 270.980469 267.292969 268.824219 268.640625 267.835938 Z M 268.460938 293.671875 C 267.128906 292.234375 266.226562 288.476562 266.832031 286.503906 C 268.226562 288.015625 269.039062 291.808594 268.460938 293.671875 Z M 281.59375 259.503906 L 281.59375 265.386719 L 274.179688 265.308594 C 273.410156 263.019531 272.449219 261.023438 271.34375 259.414062 C 275.230469 259.4375 278.308594 259.230469 281.59375 259.503906 Z M 281.59375 258.714844 L 281.59375 259.457031 C 276.339844 257.855469 267.992188 256.933594 281.59375 258.714844 Z M 290.066406 286.828125 C 290.3125 285.875 290.5 284.820312 290.609375 283.675781 C 290.882812 285.363281 291.621094 287.984375 293.082031 288.84375 C 291.800781 288.710938 290.96875 288.746094 290.066406 286.828125 Z M 293.628906 279.859375 C 293.730469 278.316406 294.542969 277.109375 295.449219 277.160156 C 296.355469 277.210938 297.007812 278.503906 296.90625 280.046875 C 296.808594 281.589844 295.992188 282.796875 295.085938 282.746094 C 294.179688 282.695312 293.527344 281.402344 293.628906 279.859375 Z M 296.277344 271.542969 C 299.078125 271.800781 300.175781 279.511719 298.246094 284.902344 C 297.730469 286.335938 296.632812 288.460938 295.128906 288.378906 C 294.964844 288.367188 294.457031 288.113281 294.300781 288.050781 C 298.996094 288.328125 299.617188 272.125 295.355469 271.832031 C 295.601562 271.765625 296.023438 271.519531 296.277344 271.542969 Z M 293.898438 270.453125 C 294.0625 270.464844 294.777344 270.457031 294.929688 270.53125 C 292.867188 270.386719 291.027344 274.925781 290.519531 278.691406 C 290.351562 277.441406 290.070312 276.285156 289.738281 275.324219 C 290.378906 273.121094 291.914062 270.285156 293.898438 270.453125 Z M 286.476562 272.84375 C 289.703125 273.144531 290.894531 282.210938 288.542969 288.21875 C 287.960938 289.699219 286.777344 291.820312 285.191406 291.730469 C 285.007812 291.722656 284.4375 291.4375 284.261719 291.367188 C 289.546875 291.675781 290.191406 273.496094 285.445312 273.171875 C 285.71875 273.097656 286.195312 272.820312 286.476562 272.84375 Z M 285.550781 279.148438 C 286.566406 279.207031 287.300781 280.65625 287.1875 282.386719 C 287.074219 284.117188 286.160156 285.472656 285.144531 285.414062 C 284.128906 285.355469 283.394531 283.90625 283.507812 282.175781 C 283.621094 280.445312 284.535156 279.089844 285.550781 279.148438 Z M 283.8125 271.621094 C 283.996094 271.636719 284.796875 271.628906 284.96875 271.710938 C 281.527344 271.46875 277.59375 283.78125 281.453125 290.640625 C 281.859375 291.367188 282.34375 291.933594 282.894531 292.257812 C 282.515625 292.214844 282.28125 292.1875 282.132812 292.167969 C 275.886719 291.316406 277.847656 271.125 283.8125 271.621094 Z M 266.21875 210.03125 L 267.65625 210.445312 C 267.058594 207.21875 267.074219 207.285156 267 206.90625 C 270.144531 208.351562 276.199219 211.273438 280.53125 213.386719 L 280.683594 216.433594 C 279.328125 215.863281 267.613281 210.898438 266.207031 210.300781 Z M 266.050781 214.253906 C 266.4375 214.398438 281.328125 220.046875 281.59375 220.148438 L 281.59375 226.480469 C 278.640625 225.226562 273.3125 223.683594 269.410156 223.160156 C 273.140625 224.742188 278.457031 226.089844 281.59375 226.507812 L 281.59375 254.882812 L 264.542969 252.644531 Z M 266.320312 259.414062 C 273.488281 259.464844 276.90625 281.75 271.410156 294.070312 C 269.964844 297.3125 268.058594 299.28125 265.984375 299.269531 C 265.613281 299.265625 264.414062 298.722656 264.066406 298.597656 C 274.871094 298.699219 273.996094 260.398438 264.390625 260.214844 C 264.734375 260.097656 265.960938 259.410156 266.320312 259.414062 Z M 269.074219 280.699219 C 269.8125 279.828125 270.550781 280.066406 270.746094 281.148438 C 270.03125 281.996094 269.277344 281.8125 269.074219 280.699219 Z M 263.511719 272.136719 C 262.558594 270.953125 261.394531 267.878906 261.324219 264.96875 C 261.308594 264.46875 261.351562 263.53125 261.351562 263.53125 C 261.351562 263.53125 261.792969 263.890625 262.382812 265.183594 C 263.550781 267.738281 263.8125 270.753906 263.511719 272.136719 Z M 258.945312 298.332031 C 259.691406 299.34375 260.511719 300.128906 261.402344 300.613281 C 259.902344 300.523438 259.054688 300.425781 259.054688 300.425781 C 256.09375 300.324219 254.03125 296.101562 253.058594 293.269531 C 254.617188 285.289062 254.328125 276.207031 252.195312 268.65625 C 253.632812 262.570312 256.898438 256.988281 260.910156 257.128906 C 261.285156 257.140625 262.90625 257.039062 263.257812 257.191406 C 255.800781 257.03125 249.632812 285.683594 258.945312 298.332031 Z M 260.097656 196.015625 C 260.757812 196.9375 261.863281 200.953125 262.75 205.078125 L 244.457031 199.816406 C 243.5625 197.171875 241.835938 192.46875 239.683594 188.675781 C 248.71875 191.671875 258.53125 195.082031 260.097656 196.015625 Z M 211.996094 185.523438 C 216.246094 185.203125 229.503906 185.367188 233.226562 186.558594 C 235.851562 187.496094 239.894531 198.296875 240.816406 200.941406 L 237.808594 204.410156 C 236.914062 202.910156 235.632812 201.210938 234.183594 200.230469 C 234.113281 200.207031 205.082031 190.695312 204.917969 190.640625 C 207.210938 188.175781 210.167969 185.664062 211.996094 185.523438 Z M 190.585938 168.933594 C 195.484375 169.429688 194.863281 182.261719 194.332031 187.175781 C 194.144531 187.113281 193.960938 187.050781 193.773438 186.992188 L 193.335938 177.613281 L 191.996094 186.410156 C 191.742188 186.324219 191.488281 186.242188 191.230469 186.160156 L 190.941406 170.738281 L 189.261719 185.511719 C 188.5 185.261719 187.730469 185.011719 186.964844 184.761719 L 186.332031 179.191406 L 185.125 184.15625 C 185.058594 184.136719 184.988281 184.113281 184.921875 184.089844 C 185.289062 178.859375 187.082031 168.585938 190.585938 168.933594 Z M 215.265625 198.03125 C 215.875 198.953125 216.375 199.851562 216.835938 200.707031 C 220.726562 208.175781 221.722656 214.160156 221.570312 221.867188 L 221.546875 221.863281 C 221.015625 231.398438 216.703125 241.035156 207.957031 248.472656 C 215.542969 240.472656 218.941406 230.835938 218.285156 221.152344 L 179.710938 212.753906 C 181.113281 202.933594 178.492188 192.285156 172.144531 183.90625 C 188.070312 189.121094 203.816406 194.28125 215.265625 198.03125 Z M 146.460938 102.464844 C 149.804688 101.308594 152.855469 100.5625 156.269531 99.902344 C 165.660156 98.230469 171.800781 98.589844 179.386719 100.140625 C 170.472656 96.929688 161.308594 95.542969 149.410156 97.054688 L 147.71875 89.367188 L 147.546875 97.320312 C 147.398438 97.34375 147.257812 97.367188 147.113281 97.386719 L 145.585938 85.191406 L 145.101562 97.742188 C 144.957031 97.769531 144.820312 97.796875 144.683594 97.820312 C 144.382812 94.085938 143.898438 87.300781 143.542969 82.160156 C 147 80.777344 157.617188 77.109375 169.476562 78.6875 L 169.433594 92.300781 L 171.515625 79.011719 C 171.757812 79.058594 172.003906 79.105469 172.25 79.152344 L 172.199219 93.296875 L 174.324219 79.628906 C 174.378906 79.644531 174.433594 79.660156 174.488281 79.675781 L 174.4375 94.195312 C 176.835938 78.773438 176.546875 80.277344 176.730469 80.335938 L 176.679688 95.09375 L 178.851562 81.109375 C 179.023438 81.179688 178.972656 80.011719 178.917969 95.992188 C 181.246094 81.007812 181.019531 82.046875 181.207031 82.140625 L 181.15625 96.890625 L 183.28125 83.214844 C 183.515625 83.34375 183.449219 81.746094 183.394531 97.789062 L 185.457031 84.53125 C 185.554688 84.597656 185.65625 84.660156 185.753906 84.726562 L 184.375 99.382812 C 177.964844 111.203125 178.273438 110.472656 178.25 111.089844 L 175.601562 181.039062 C 175.320312 180.945312 175.039062 180.855469 174.753906 180.761719 C 175.726562 145.988281 175.3125 150.476562 176.394531 119.023438 C 174.183594 150.472656 174.738281 146.324219 172.582031 180.050781 C 172.332031 179.96875 172.085938 179.886719 171.835938 179.804688 C 172.804688 145.433594 172.335938 148.09375 173.460938 115.222656 C 171.210938 148.128906 171.761719 145.605469 169.675781 179.097656 C 169.253906 178.957031 168.828125 178.820312 168.40625 178.679688 C 169.296875 146.996094 168.980469 140.328125 169.996094 112.5625 C 168.054688 140.515625 168.164062 147.058594 166.277344 177.984375 C 166.03125 177.90625 165.789062 177.824219 165.542969 177.746094 L 165.117188 159.765625 L 163.472656 177.066406 C 162.949219 176.894531 162.429688 176.722656 161.90625 176.554688 L 161.640625 161.417969 L 159.820312 175.867188 C 159.539062 175.777344 159.257812 175.6875 158.980469 175.59375 L 159.046875 160.332031 L 156.972656 174.9375 C 156.433594 174.761719 155.898438 174.585938 155.363281 174.410156 L 155.097656 159.40625 L 153.671875 171.027344 C 151.933594 164.808594 152.390625 168.046875 151.792969 156.289062 L 150.78125 163.164062 C 150.613281 163.089844 149.828125 162.828125 149.636719 162.765625 L 151.214844 112.9375 C 158.910156 110.453125 169.1875 109.648438 177.007812 111.84375 C 168.148438 108.570312 156.453125 109.425781 151.285156 110.738281 C 151.316406 109.707031 151.351562 109.570312 151.261719 109.191406 C 159.824219 105.84375 170.359375 105.902344 178.800781 108.25 C 168.535156 104.550781 156.792969 104.878906 150.089844 107.355469 C 148.773438 105.601562 147.457031 103.832031 146.460938 102.464844 Z M 148.421875 166.367188 L 150.195312 172.71875 C 143.875 170.648438 137.890625 168.6875 132.535156 166.933594 C 132.519531 166.660156 132.472656 166.503906 132.398438 166.304688 L 147.191406 170.375 L 131.441406 163.828125 L 130.019531 160.132812 Z M 146.207031 150.882812 L 145.871094 161.492188 L 140.058594 159.519531 C 142.613281 157.554688 144.796875 154.367188 146.207031 150.882812 Z M 124.886719 150.949219 C 127.496094 151.410156 132.769531 152.472656 138.5625 153.503906 C 133.640625 151.886719 131.082031 150.972656 125.824219 149.195312 C 125.929688 148.972656 125.300781 149.160156 139.652344 151.792969 C 133.75 149.839844 132.203125 149.238281 126.613281 147.339844 C 126.675781 147.183594 132.015625 148.433594 140.738281 150.082031 C 137.058594 148.855469 127.390625 145.484375 127.253906 145.4375 C 127.289062 145.320312 134.066406 146.863281 141.828125 148.371094 C 135.394531 146.207031 131.15625 144.628906 127.78125 143.496094 C 132.144531 144.359375 135.640625 145.210938 142.914062 146.65625 C 135.566406 144.167969 133.03125 143.148438 128.121094 141.488281 C 128.785156 137.085938 128.789062 131.8125 126.882812 127.789062 C 141.558594 132.457031 145.171875 132.574219 144.035156 144.175781 C 143.402344 150.613281 138.601562 157.664062 134.820312 157.746094 L 128.21875 155.511719 C 135.019531 156.710938 133.257812 156.410156 136.386719 156.929688 C 131.964844 155.503906 125.074219 153.167969 123.738281 152.734375 C 126.6875 153.242188 131.839844 154.246094 137.472656 155.21875 C 134.789062 154.34375 124.84375 151.019531 124.886719 150.949219 Z M 125.785156 155.082031 L 121.714844 154.886719 C 121.871094 154.746094 122.023438 154.605469 122.171875 154.457031 C 123.839844 154.734375 123.097656 154.609375 125.785156 155.082031 Z M 115.542969 153.695312 C 123.601562 147.652344 125.664062 134.871094 120.453125 126.003906 C 128.855469 130.933594 123.777344 153.648438 115.542969 153.695312 Z M 114.261719 147.582031 L 113.175781 145 L 112.597656 148.695312 C 107.871094 151.21875 102.664062 148.988281 100.414062 143.609375 L 103.242188 140.339844 L 99.820312 141.835938 C 99.609375 141.011719 99.464844 140.148438 99.398438 139.257812 L 103.242188 137.664062 L 99.375 137.382812 C 99.613281 132.585938 101.960938 128.5625 105.070312 126.5 L 107.34375 129.023438 L 106.664062 125.644531 C 108.007812 125.082031 109.453125 124.859375 110.921875 125.058594 C 119.917969 126.292969 122.171875 141.105469 114.261719 147.582031 Z M 98.261719 147.960938 C 90.894531 137.738281 97.5 121.308594 108.203125 121.90625 C 108.527344 121.921875 108.328125 121.890625 111.167969 122.792969 C 104.578125 121.9375 98.335938 127.714844 97.242188 135.714844 C 95.800781 146.230469 103.773438 154.457031 112.207031 151.355469 C 107.539062 154.121094 101.886719 152.988281 98.261719 147.960938 Z M 91.085938 157.210938 L 125.457031 158.871094 L 127.992188 165.449219 C 127.027344 165.132812 127.183594 165.207031 127.035156 165.042969 L 126.96875 165.113281 C 108.347656 159.019531 106.003906 157.796875 99.101562 157.796875 C 95.953125 157.796875 92.894531 158.21875 89.964844 159.011719 Z M 63.855469 201.59375 C 63.855469 179.542969 79.667969 161.601562 99.101562 161.601562 C 118.523438 161.601562 134.34375 179.535156 134.34375 201.59375 C 134.34375 223.554688 118.664062 241.433594 99.34375 241.585938 C 93.035156 241.527344 88.117188 239.808594 86.964844 239.078125 L 86.816406 239.078125 C 73.421875 233.410156 63.855469 218.746094 63.855469 201.59375 Z M 85.933594 242.878906 C 92.035156 245.9375 105.328125 246.503906 112.640625 242.878906 L 132.9375 242.878906 C 129.148438 246.550781 128.347656 253.40625 131.097656 258.328125 L 128.199219 261.867188 L 71.648438 261.175781 L 74.632812 257.535156 C 77.855469 257.585938 80.449219 254.980469 80.449219 251.8125 C 80.449219 248.65625 77.878906 246.089844 74.722656 246.089844 C 70.980469 246.089844 68.179688 249.664062 69.210938 253.351562 L 62.890625 261.070312 L 54.808594 260.972656 C 55.257812 260.566406 55.675781 260.109375 56.058594 259.605469 L 60.722656 259.605469 C 63.777344 259.605469 66.25 256.332031 66.25 252.296875 C 66.25 248.257812 63.777344 244.988281 60.722656 244.988281 L 56.707031 244.988281 C 56.230469 244.195312 55.675781 243.484375 55.050781 242.878906 Z M 70.945312 251.234375 C 71.226562 249.402344 72.808594 247.992188 74.722656 247.992188 C 78.636719 247.992188 80.015625 253.226562 76.585938 255.148438 C 79.328125 251.804688 74.507812 246.890625 70.945312 251.234375 Z M 54.414062 267.5 L 54.414062 264.769531 L 59.804688 264.835938 L 57.585938 267.546875 C 57.585938 267.546875 54.414062 267.5 54.414062 267.5 Z M 54.507812 271.300781 C 54.390625 271.445312 54.414062 271.453125 54.414062 271.300781 Z M 48.027344 261.089844 C 41.773438 261.089844 38.828125 250.355469 43.636719 244.753906 C 46.449219 241.480469 50.59375 241.90625 53.035156 245.570312 C 57.027344 251.558594 53.847656 261.089844 48.027344 261.089844 Z M 71.875 252.953125 C 66.195312 261.050781 53.050781 277.117188 46.175781 284.324219 C 51.789062 276.316406 64.882812 260.296875 71.875 252.953125 Z M 42.75 282.65625 C 43.042969 282.664062 43.367188 282.671875 43.714844 282.679688 C 43.335938 282.898438 43.015625 283.148438 42.75 283.425781 Z M 42.75 287.132812 C 45.492188 290.019531 54.558594 289.367188 54.558594 285.28125 C 54.558594 284.496094 54.207031 283.800781 53.578125 283.234375 L 53.816406 282.945312 C 70.757812 283.386719 92.953125 283.972656 107.933594 284.367188 C 106.25 286.414062 107.871094 289.65625 113.601562 289.65625 C 119.070312 289.65625 120.78125 286.710938 119.488281 284.667969 C 122.492188 284.746094 124.765625 284.804688 126.210938 284.839844 L 126.394531 290.578125 L 124.308594 290.710938 C 121.214844 289.515625 124.972656 289.667969 52.734375 294.363281 L 42.75 289.878906 Z M 50.925781 297.585938 C 86.945312 294.824219 118.417969 293.148438 132.214844 292.675781 C 118.328125 293.996094 86.78125 296.421875 50.792969 298.335938 C 47.234375 296.683594 42.308594 294.417969 32.761719 289.828125 C 41.300781 293.394531 46.746094 295.769531 50.925781 297.585938 Z M 35.382812 293.714844 L 50.410156 300.464844 L 124.933594 295.625 C 125.757812 296.574219 126.691406 297.160156 128.046875 297.105469 C 134.429688 335.957031 133.527344 332.824219 134.234375 333.390625 L 134.753906 336.945312 L 35.632812 358.859375 L 17.851562 333.136719 Z M 34.628906 362.65625 C 62.839844 355.835938 107.890625 345.820312 141.164062 339.84375 C 108.996094 348.503906 66.304688 358.21875 33.707031 365 C 28.105469 356.488281 21.351562 346.214844 13.238281 333.136719 C 20.894531 343.367188 27.191406 352.140625 34.628906 362.65625 Z M 34.628906 362.65625 " fill-opacity="1" fill-rule="nonzero"/><path fill="#1d764a" d="M 280.65625 229.515625 C 278.074219 228.480469 273.554688 227.289062 269.851562 227.011719 C 273.378906 228.425781 278.027344 229.324219 280.65625 229.515625 Z M 280.65625 229.515625 " fill-opacity="1" fill-rule="nonzero"/><path fill="#1d764a" d="M 268.183594 232.699219 C 270.789062 233.960938 274.722656 235.078125 277.578125 235.375 C 274.988281 234.117188 271.058594 233 268.183594 232.699219 Z M 268.183594 232.699219 " fill-opacity="1" fill-rule="nonzero"/><path fill="#1d764a" d="M 269.203125 234.703125 C 271.144531 235.886719 274.183594 236.925781 276.46875 237.171875 C 274.5 235.96875 271.460938 234.949219 269.203125 234.703125 Z M 269.203125 234.703125 " fill-opacity="1" fill-rule="nonzero"/><path fill="#1d764a" d="M 279.917969 245.34375 C 276.625 243.867188 271.710938 242.460938 268.183594 241.957031 C 271.339844 243.367188 276.257812 244.824219 279.917969 245.34375 Z M 279.917969 245.34375 " fill-opacity="1" fill-rule="nonzero"/><path fill="#1d764a" d="M 277.714844 246.183594 C 277.261719 245.976562 273.492188 244.375 269.292969 244.253906 C 271.5625 245.269531 275.085938 246.105469 277.714844 246.183594 Z M 277.714844 246.183594 " fill-opacity="1" fill-rule="nonzero"/><path fill="#1d764a" d="M 279.257812 248.84375 C 278.796875 248.640625 273.625 246.457031 267.894531 245.769531 C 271.085938 247.152344 275.839844 248.433594 279.257812 248.84375 Z M 279.257812 248.84375 " fill-opacity="1" fill-rule="nonzero"/><path fill="#1d764a" d="M 279.25 250.417969 C 276.054688 249.273438 271.261719 248.296875 267.761719 248.105469 C 271.023438 249.273438 275.824219 250.238281 279.25 250.417969 Z M 279.25 250.417969 " fill-opacity="1" fill-rule="nonzero"/><path fill="#1d764a" d="M 268.46875 250.863281 C 270.703125 251.707031 274.039062 252.222656 276.449219 252.078125 C 274.21875 251.234375 270.878906 250.722656 268.46875 250.863281 Z M 268.46875 250.863281 " fill-opacity="1" fill-rule="nonzero"/><path fill="#1d764a" d="M 248.535156 241.152344 C 250.570312 242.074219 253.667969 242.734375 255.96875 242.695312 C 253.894531 241.75 250.785156 241.109375 248.535156 241.152344 Z M 248.535156 241.152344 " fill-opacity="1" fill-rule="nonzero"/><path fill="#1d764a" d="M 256.289062 244.644531 C 254.484375 243.691406 251.726562 243.015625 249.644531 243.027344 C 251.425781 243.964844 254.199219 244.660156 256.289062 244.644531 Z M 256.289062 244.644531 " fill-opacity="1" fill-rule="nonzero"/><path fill="#1d764a" d="M 313.597656 246.9375 C 306.410156 244.453125 295.042969 241.230469 286.574219 239.425781 C 295.097656 242.363281 306.457031 245.414062 313.597656 246.9375 Z M 313.597656 246.9375 " fill-opacity="1" fill-rule="nonzero"/><path fill="#1d764a" d="M 287.367188 242.535156 C 292.625 244.421875 300.6875 246.589844 306.585938 247.613281 C 301.046875 245.625 292.988281 243.515625 287.367188 242.535156 Z M 287.367188 242.535156 " fill-opacity="1" fill-rule="nonzero"/><path fill="#1d764a" d="M 304.046875 248.28125 C 299.179688 246.609375 292.089844 244.957031 287.167969 244.296875 C 291.855469 245.902344 298.933594 247.597656 304.046875 248.28125 Z M 304.046875 248.28125 " fill-opacity="1" fill-rule="nonzero"/><path fill="#1d764a" d="M 287.9375 246.726562 C 288.757812 247.03125 295.964844 249.566406 303.183594 250.566406 C 298.859375 248.960938 292.484375 247.359375 287.9375 246.726562 Z M 287.9375 246.726562 " fill-opacity="1" fill-rule="nonzero"/><path fill="#1d764a" d="M 287.335938 249.746094 C 294.335938 251.679688 304.066406 253.53125 310.15625 254.277344 C 304.277344 252.652344 294.410156 250.617188 287.335938 249.746094 Z M 287.335938 249.746094 " fill-opacity="1" fill-rule="nonzero"/><path fill="#1d764a" d="M 288.527344 252.339844 C 295.460938 254.125 305.988281 256.121094 313.566406 257.015625 C 306.308594 255.144531 295.804688 253.199219 288.527344 252.339844 Z M 288.527344 252.339844 " fill-opacity="1" fill-rule="nonzero"/><path fill="#1d764a" d="M 286.988281 254.910156 C 298.667969 257.144531 314.207031 259.285156 323.875 260.226562 C 313.929688 258.320312 298.402344 256.023438 286.988281 254.910156 Z M 286.988281 254.910156 " fill-opacity="1" fill-rule="nonzero"/><path fill="#1d764a" d="M 329.011719 260.773438 C 335.3125 261.980469 344.878906 263.441406 351.816406 263.722656 C 345.367188 262.484375 335.695312 261.046875 329.011719 260.773438 Z M 329.011719 260.773438 " fill-opacity="1" fill-rule="nonzero"/><path fill="#1d764a" d="M 330 251.859375 C 336.054688 253.808594 345.199219 256.027344 351.839844 257.09375 C 345.648438 255.097656 336.507812 252.902344 330 251.859375 Z M 330 251.859375 " fill-opacity="1" fill-rule="nonzero"/><path fill="#1d764a" d="M 322.207031 253.371094 C 329.203125 255.570312 338.960938 257.757812 344.789062 258.679688 C 338.921875 256.832031 329.21875 254.484375 322.207031 253.371094 Z M 322.207031 253.371094 " fill-opacity="1" fill-rule="nonzero"/><path fill="#1d764a" d="M 323.09375 256.53125 C 328.554688 258.117188 336.441406 259.554688 341.179688 260.015625 C 336.507812 258.652344 328.746094 257.085938 323.09375 256.53125 Z M 323.09375 256.53125 " fill-opacity="1" fill-rule="nonzero"/><path fill="#1d764a" d="M 304.691406 236.183594 C 300.746094 234.5 294.035156 232.359375 289.113281 231.394531 C 293.734375 233.363281 300.542969 235.371094 304.691406 236.183594 Z M 304.691406 236.183594 " fill-opacity="1" fill-rule="nonzero"/><path fill="#1d764a" d="M 221.195312 186.488281 C 218.558594 186.449219 214.792969 186.511719 212.089844 186.613281 C 217.496094 187.054688 221.058594 187.140625 226.457031 187.316406 C 231.933594 187.386719 234.140625 187.890625 235.859375 195.308594 C 234.8125 185.597656 230.261719 186.605469 221.195312 186.488281 Z M 221.195312 186.488281 " fill-opacity="1" fill-rule="nonzero"/><path fill="#1d764a" d="M 207.984375 190.175781 C 209.105469 189.882812 210.207031 188.917969 210.644531 187.894531 C 209.558594 188.171875 208.4375 189.121094 207.984375 190.175781 Z M 207.984375 190.175781 " fill-opacity="1" fill-rule="nonzero"/><path fill="#1d764a" d="M 230.539062 189.164062 C 228.433594 188.425781 218.492188 188.453125 215.640625 188.617188 C 222.988281 189.625 229.269531 189.261719 230.417969 189.574219 C 231.507812 189.832031 232.160156 190.570312 232.261719 191.25 C 232.304688 190.339844 231.472656 189.472656 230.539062 189.164062 Z M 230.539062 189.164062 " fill-opacity="1" fill-rule="nonzero"/><path fill="#1d764a" d="M 244.65625 197.742188 C 249.035156 199.382812 256.167969 201.75 261.046875 202.527344 C 256.496094 200.820312 249.429688 198.503906 244.65625 197.742188 Z M 244.65625 197.742188 " fill-opacity="1" fill-rule="nonzero"/><path fill="#1d764a" d="M 245.925781 192.039062 C 249.664062 193.757812 255.140625 195.464844 258.992188 196.175781 C 255.265625 194.457031 249.800781 192.753906 245.925781 192.039062 Z M 245.925781 192.039062 " fill-opacity="1" fill-rule="nonzero"/><path fill="#1d764a" d="M 144.796875 64.761719 C 145.371094 65.171875 145.675781 65.390625 145.675781 65.390625 C 138.464844 50.316406 143.398438 35.488281 154.324219 29.5 C 158.21875 26.867188 162.882812 25.453125 167.457031 25.695312 C 174.785156 26.148438 179.667969 28.078125 186.175781 33.621094 C 186.554688 33.964844 188.234375 35.613281 190.214844 38.203125 C 190.214844 38.203125 190.160156 37.832031 190.058594 37.132812 C 189.714844 34.128906 187.890625 29.632812 185.402344 26.492188 C 202.378906 11.664062 248.238281 18.664062 247.683594 63.296875 C 247.617188 65.945312 247.445312 68.152344 246.132812 73.625 C 247.613281 71.679688 249.527344 69.398438 251.347656 64.765625 C 262.28125 64.636719 268.351562 66.96875 275.8125 71.105469 C 292.136719 80.152344 298.808594 102.515625 289.203125 123.261719 C 291.574219 121.472656 293.621094 119.867188 296.378906 115.832031 C 304.335938 115.667969 310.402344 119.332031 313.351562 124.039062 C 317.9375 129.363281 318.855469 137.976562 318.804688 145.03125 C 320.570312 143.105469 322.195312 140.742188 322.953125 138.265625 C 330.984375 139.261719 338.742188 143.847656 343.027344 151.523438 C 347.835938 160.132812 345.832031 165.972656 345.324219 169.214844 C 346.941406 167.097656 349.984375 161.945312 348.925781 153.984375 C 346.996094 139.476562 331.78125 134.445312 323.109375 137.738281 C 323.746094 135.242188 326.0625 128.113281 320.070312 119.074219 C 317.714844 116.203125 314.675781 113.886719 311.425781 112.519531 C 307.886719 111 301.980469 110.847656 297.863281 113.390625 C 299.367188 110.578125 300.742188 106.199219 301.367188 103.214844 C 302.992188 95.347656 301.472656 86.996094 298.128906 79.828125 C 293.105469 69.402344 281.875 61.898438 271.265625 60.355469 C 261.402344 58.953125 256.695312 60.867188 252.121094 62.714844 C 254.300781 56.355469 254.757812 45.398438 251.28125 36.757812 C 237.628906 3.003906 193.933594 5.878906 184.378906 25.296875 C 171.902344 11.824219 151.855469 13.949219 141.191406 27.371094 C 134.628906 35.605469 133.859375 43.917969 136.441406 53.007812 C 137.898438 57.984375 141.757812 62.730469 144.796875 64.761719 Z M 144.796875 64.761719 " fill-opacity="1" fill-rule="nonzero"/><path fill="#1d764a" d="M 221.144531 153.65625 C 225.949219 162.242188 235.238281 167.808594 244.386719 170.148438 C 252.644531 171.648438 262.324219 170.871094 269.730469 167.433594 C 270.769531 172.484375 273.96875 175.746094 278.550781 177.984375 C 281.8125 178.960938 286.0625 179.332031 289.132812 177.914062 C 289.863281 177.601562 291.375 176.757812 291.757812 176.515625 C 293.851562 187.253906 308.558594 196.246094 322.1875 188.324219 C 325.402344 186.414062 326.660156 184.613281 328.65625 182.101562 C 330.34375 179.703125 331.109375 177.039062 331.476562 174.140625 C 320.324219 191.003906 301.503906 188.667969 292.113281 176.277344 C 293.597656 175.242188 294.703125 173.613281 295.449219 171.972656 C 291.800781 172.285156 277.578125 175.171875 273.585938 165.363281 C 280.363281 161.257812 284.507812 157.417969 288.886719 149.792969 C 270.328125 161.382812 256.347656 162.335938 246.664062 159.761719 C 233.074219 157.445312 222.847656 146.921875 219.140625 134.304688 C 224.191406 132.414062 226.34375 130.789062 229.40625 127.546875 C 231.519531 125.164062 232.398438 124.539062 234.007812 120.523438 C 234.691406 118.753906 234.484375 119.703125 235.167969 116.425781 C 230.078125 119.890625 225.722656 122.007812 223.375 122.816406 C 212.78125 126.390625 214.644531 125.296875 208.882812 125.910156 C 208.503906 125.941406 207.429688 126.113281 205.417969 126.035156 C 201.777344 125.816406 195.90625 124.582031 193.332031 122.996094 C 190.25 121.25 188.730469 120.199219 186.691406 117.296875 C 185.789062 123.191406 188.5 127.449219 193.046875 131.210938 C 196.246094 133.863281 201.023438 136.1875 210.789062 136.390625 C 212.960938 136.113281 215.082031 135.636719 217.105469 135.007812 C 216.726562 139.371094 216.207031 144.859375 221.144531 153.65625 Z M 221.144531 153.65625 " fill-opacity="1" fill-rule="nonzero"/><path fill="#1d764a" d="M 347.835938 190.988281 C 339.042969 194.058594 332.410156 192.554688 325.769531 186.4375 C 327.664062 196.582031 342.054688 199.621094 347.835938 190.988281 Z M 347.835938 190.988281 " fill-opacity="1" fill-rule="nonzero"/><path fill="#1d764a" d="M 354.195312 201.183594 C 364.507812 194.5 360.242188 177.546875 347.972656 176.535156 C 356.257812 182.65625 358.898438 191.15625 354.195312 201.183594 Z M 354.195312 201.183594 " fill-opacity="1" fill-rule="nonzero"/><path fill="#1d764a" d="M 350.21875 206.984375 C 349.550781 207.761719 349.027344 208.722656 348.953125 209.730469 C 348.84375 211.664062 348.988281 212.761719 350.316406 214.597656 C 351.273438 215.859375 352.042969 216.414062 353.546875 216.925781 C 355.765625 217.625 356.835938 217.378906 358.597656 216.683594 C 359.53125 216.300781 360.277344 215.496094 360.800781 214.613281 C 355.644531 215.09375 351.523438 212.632812 350.21875 206.984375 Z M 350.21875 206.984375 " fill-opacity="1" fill-rule="nonzero"/><g clip-path="url(#49cc058d10)"><path fill="#1d764a" d="M 356.855469 207.121094 C 356.597656 206.820312 356.410156 206.457031 356.355469 206.046875 C 355.90625 206.984375 356.242188 208.0625 356.820312 208.925781 C 358.460938 211.359375 361.960938 211.050781 364.140625 213.460938 C 367.003906 216.703125 366.210938 220.554688 363.96875 220.058594 C 362.636719 219.796875 361.683594 218.898438 360.519531 217.859375 C 360.976562 219.570312 361.59375 221.21875 363.164062 222.042969 C 366.246094 223.652344 369.773438 221.386719 369.46875 216.730469 C 369.222656 212.945312 366.625 210.347656 363.953125 209.230469 C 361.605469 208.226562 358.121094 209.003906 356.855469 207.121094 Z M 356.855469 207.121094 " fill-opacity="1" fill-rule="nonzero"/></g><path fill="#1d764a" d="M 323.21875 156.386719 C 316.886719 162.964844 310.894531 165.304688 301.46875 164.21875 C 308.835938 171.160156 321.992188 166.425781 323.21875 156.386719 Z M 323.21875 156.386719 " fill-opacity="1" fill-rule="nonzero"/><path fill="#1d764a" d="M 285.910156 122.835938 C 278.023438 127.488281 271.828125 127.132812 264.683594 123.460938 C 268.597656 132.367188 282.535156 131.980469 285.910156 122.835938 Z M 285.910156 122.835938 " fill-opacity="1" fill-rule="nonzero"/><path fill="#1d764a" d="M 273.246094 129.785156 C 270.5 135.484375 267.515625 138.445312 261.65625 141.046875 C 268.382812 144.429688 276.449219 136.605469 273.246094 129.785156 Z M 273.246094 129.785156 " fill-opacity="1" fill-rule="nonzero"/><path fill="#1d764a" d="M 245.703125 127.804688 C 253.765625 129.46875 260.386719 120.441406 257.25 112.214844 C 262.9375 109.109375 263.882812 98.824219 256.96875 95.453125 C 258.589844 100.589844 258.90625 105.355469 256.382812 110.507812 C 254.640625 107.796875 252.691406 106.527344 250.160156 105.859375 C 257.835938 114.035156 254.492188 124.511719 245.703125 127.804688 Z M 245.703125 127.804688 " fill-opacity="1" fill-rule="nonzero"/><path fill="#1d764a" d="M 210.878906 114.222656 C 213.035156 113.652344 215.046875 112.855469 216.859375 111.40625 C 220.453125 108.449219 223.230469 104.820312 224.171875 98.542969 C 224.1875 98.308594 224.195312 98.078125 224.203125 97.847656 C 235.5 94.769531 241.886719 79.234375 232.878906 68.996094 C 235.804688 79.585938 233.332031 89.359375 224.191406 95.871094 C 223.867188 89.269531 220.699219 83.550781 214.558594 80.371094 C 219.515625 86.511719 220.925781 92.105469 220.386719 98.214844 C 220.152344 98.335938 220.027344 98.402344 220.027344 98.402344 C 220.027344 98.402344 220.148438 98.398438 220.367188 98.394531 C 219.839844 103.765625 216.914062 109.386719 210.878906 114.222656 Z M 210.878906 114.222656 " fill-opacity="1" fill-rule="nonzero"/><path fill="#1d764a" d="M 181.738281 71.6875 C 186.558594 70.804688 189.980469 68.253906 192.636719 64.328125 C 205.28125 64.632812 214.039062 49.316406 206.476562 38.367188 C 207.664062 49.632812 203.632812 58.550781 192.726562 64.195312 C 196.53125 58.503906 196.960938 50.644531 192.683594 44.644531 C 193.753906 55.351562 191.265625 63.609375 181.738281 71.6875 Z M 181.738281 71.6875 " fill-opacity="1" fill-rule="nonzero"/></svg>