<svg xmlns="http://www.w3.org/2000/svg" xmlns:xlink="http://www.w3.org/1999/xlink" width="200" zoomAndPan="magnify" viewBox="0 0 150 149.999998" height="200" preserveAspectRatio="xMidYMid meet" version="1.0"><defs><clipPath id="17e9b35c6f"><path d="M 15 3.847656 L 134.25 3.847656 L 134.25 75.097656 L 15 75.097656 Z M 15 3.847656 " clip-rule="nonzero"/></clipPath><clipPath id="55fa11ed7f"><path d="M 37.4375 22.714844 L 135.347656 22.714844 L 135.347656 81.214844 L 37.4375 81.214844 Z M 37.4375 22.714844 " clip-rule="nonzero"/></clipPath></defs><g clip-path="url(#17e9b35c6f)"><path fill="#545454" d="M 64.789062 3.847656 C 51.929688 3.847656 41.503906 14.296875 41.503906 27.1875 C 41.519531 27.773438 41.5625 28.355469 41.628906 28.925781 C 40.566406 28.710938 39.460938 28.542969 38.300781 28.421875 C 25.4375 28.421875 15.011719 38.871094 15.011719 51.757812 C 15.011719 64.648438 25.4375 75.097656 38.300781 75.097656 L 110.953125 75.097656 C 123.8125 75.097656 134.238281 64.648438 134.238281 51.757812 C 134.238281 38.871094 123.8125 28.421875 110.953125 28.421875 C 108.386719 28.5 105.996094 29.039062 103.804688 29.9375 C 100.546875 25.800781 95.496094 23.144531 89.828125 23.144531 C 89.105469 23.164062 88.414062 23.207031 87.746094 23.265625 C 85.882812 12.242188 76.316406 3.851562 64.789062 3.851562 Z M 64.789062 3.847656 " fill-opacity="1" fill-rule="nonzero"/></g><g clip-path="url(#55fa11ed7f)"><path fill="#b3b3b3" d="M 94.667969 22.714844 C 105.265625 22.714844 113.855469 31.292969 113.855469 41.875 C 113.839844 42.359375 113.804688 42.835938 113.753906 43.304688 C 114.625 43.128906 115.539062 42.992188 116.496094 42.890625 C 127.089844 42.890625 135.679688 51.46875 135.679688 62.054688 C 135.679688 72.636719 127.089844 81.214844 116.496094 81.214844 L 56.632812 81.214844 C 46.035156 81.214844 37.445312 72.636719 37.445312 62.054688 C 37.445312 51.46875 46.035156 42.890625 56.632812 42.890625 C 58.746094 42.957031 60.714844 43.398438 62.519531 44.136719 C 65.207031 40.738281 69.367188 38.558594 74.039062 38.558594 C 74.632812 38.574219 75.203125 38.609375 75.753906 38.65625 C 77.285156 29.609375 85.171875 22.714844 94.667969 22.714844 Z M 94.667969 22.714844 " fill-opacity="1" fill-rule="nonzero"/></g></svg>