<svg xmlns="http://www.w3.org/2000/svg" xmlns:xlink="http://www.w3.org/1999/xlink" width="200" zoomAndPan="magnify" viewBox="0 0 150 149.999998" height="200" preserveAspectRatio="xMidYMid meet" version="1.0"><defs><clipPath id="e5cb2f9e0b"><path d="M 30.402344 45.316406 L 119.652344 45.316406 L 119.652344 135.316406 L 30.402344 135.316406 Z M 30.402344 45.316406 " clip-rule="nonzero"/></clipPath></defs><g clip-path="url(#e5cb2f9e0b)"><path fill="#009fe3" d="M 102.453125 130.683594 C 102.453125 131.976562 101.773438 133.042969 100.914062 133.042969 C 100.054688 133.042969 99.375 131.976562 99.375 130.683594 C 99.375 129.386719 100.054688 125.320312 100.914062 125.320312 C 101.773438 125.320312 102.453125 129.386719 102.453125 130.683594 Z M 45.449219 51.652344 C 45.222656 49.8125 44.90625 48.222656 44.5 48.203125 C 44.066406 48.179688 43.617188 49.746094 43.296875 51.585938 C 42.957031 53.425781 42.777344 55.539062 42.777344 56.5625 C 42.777344 58.605469 43.480469 60.261719 44.316406 60.242188 C 45.15625 60.21875 45.8125 58.582031 45.835938 56.5625 C 45.8125 55.582031 45.652344 53.492188 45.449219 51.652344 Z M 69.367188 56.425781 C 69.070312 54.039062 68.730469 51.996094 68.300781 51.996094 C 67.871094 51.996094 67.464844 54.039062 67.191406 56.445312 C 66.917969 58.832031 66.785156 61.582031 66.804688 62.898438 C 66.851562 65.554688 67.621094 67.667969 68.460938 67.644531 C 69.296875 67.625 69.910156 65.464844 69.863281 62.832031 C 69.863281 61.511719 69.660156 58.808594 69.367188 56.425781 Z M 101.640625 55.402344 C 100.800781 55.402344 100.097656 60.21875 100.097656 61.761719 C 100.097656 63.308594 100.777344 64.558594 101.640625 64.558594 C 102.5 64.558594 103.179688 63.308594 103.179688 61.761719 C 103.15625 60.21875 102.476562 55.402344 101.640625 55.402344 Z M 90.722656 73.824219 C 90.359375 71.441406 89.839844 69.394531 89.433594 69.417969 C 89 69.441406 88.753906 71.507812 88.570312 73.894531 C 88.390625 76.277344 88.277344 78.980469 88.277344 80.296875 C 88.300781 82.910156 88.980469 85.046875 89.816406 85.046875 C 90.65625 85.046875 91.378906 82.910156 91.335938 80.253906 C 91.3125 78.9375 91.085938 76.210938 90.722656 73.824219 Z M 48.054688 83.25 C 47.214844 83.25 46.515625 91.089844 46.515625 93.609375 C 46.515625 96.132812 47.195312 98.175781 48.054688 98.175781 C 48.890625 98.175781 49.59375 96.132812 49.59375 93.609375 C 49.59375 91.089844 48.890625 83.25 48.054688 83.25 Z M 72.242188 105.378906 C 71.402344 105.378906 70.703125 112.851562 70.703125 115.234375 C 70.703125 117.621094 71.382812 119.574219 72.242188 119.574219 C 73.101562 119.574219 73.78125 117.644531 73.78125 115.234375 C 73.78125 112.828125 73.082031 105.378906 72.242188 105.378906 Z M 113.597656 113.28125 C 113.121094 110.511719 112.417969 108.171875 112.011719 108.214844 C 111.582031 108.261719 111.511719 110.691406 111.445312 113.441406 C 111.378906 116.210938 111.285156 119.324219 111.285156 120.847656 C 111.308594 123.867188 111.851562 126.34375 112.714844 126.390625 C 113.550781 126.433594 114.390625 123.9375 114.367188 120.824219 C 114.34375 119.277344 114.09375 116.074219 113.597656 113.28125 Z M 102.160156 86.863281 C 101.320312 86.863281 100.621094 98.402344 100.621094 102.082031 C 100.621094 105.785156 101.300781 108.785156 102.160156 108.785156 C 103.019531 108.785156 103.699219 105.785156 103.699219 102.082031 C 103.699219 98.378906 103.019531 86.863281 102.160156 86.863281 Z M 41.824219 122.890625 C 41.644531 120.234375 41.238281 117.9375 40.828125 117.9375 C 40.398438 117.9375 40.035156 120.210938 39.675781 122.824219 C 39.3125 125.433594 38.949219 128.386719 38.835938 129.820312 C 38.609375 132.679688 38.996094 135.089844 39.855469 135.203125 C 40.695312 135.316406 41.667969 133.023438 41.894531 130.070312 C 41.984375 128.617188 42.007812 125.570312 41.824219 122.890625 Z M 32.972656 96.359375 C 32.675781 93.496094 32.359375 90.996094 31.929688 90.996094 C 31.5 90.996094 31.066406 93.472656 30.796875 96.359375 C 30.523438 99.242188 30.410156 102.558594 30.480469 104.148438 C 30.570312 107.351562 31.40625 109.921875 32.269531 109.851562 C 33.105469 109.804688 33.648438 107.195312 33.558594 104.035156 C 33.492188 102.46875 33.242188 99.222656 32.972656 96.359375 Z M 36.910156 69.417969 C 36.074219 69.441406 35.484375 75.300781 35.507812 77.1875 C 35.53125 79.070312 36.253906 80.570312 37.09375 80.570312 C 37.929688 80.546875 38.585938 79.027344 38.566406 77.140625 C 38.542969 75.253906 37.75 69.417969 36.910156 69.417969 Z M 79.058594 82.730469 C 78.222656 82.753906 77.699219 88.542969 77.769531 90.382812 C 77.835938 92.222656 78.5625 93.699219 79.398438 93.679688 C 80.238281 93.65625 80.894531 92.132812 80.824219 90.269531 C 80.757812 88.429688 79.898438 82.707031 79.058594 82.730469 Z M 61.097656 124.777344 C 60.78125 123.34375 60.421875 122.097656 59.988281 122.097656 C 59.558594 122.097656 59.152344 123.34375 58.925781 124.84375 C 58.699219 126.34375 58.628906 128.046875 58.722656 128.863281 C 58.878906 130.523438 59.742188 131.75 60.578125 131.613281 C 61.417969 131.476562 61.914062 130.136719 61.757812 128.570312 C 61.710938 127.796875 61.417969 126.183594 61.097656 124.777344 Z M 118.148438 67.261719 C 117.3125 67.191406 116.132812 73.097656 115.976562 75.007812 C 115.816406 76.914062 116.382812 78.527344 117.222656 78.59375 C 118.058594 78.664062 118.875 77.164062 119.03125 75.253906 C 119.191406 73.347656 119.011719 67.328125 118.148438 67.261719 Z M 89.976562 114.53125 C 89.136719 114.53125 88.433594 119.824219 88.433594 121.527344 C 88.433594 123.230469 89.113281 124.59375 89.976562 124.59375 C 90.835938 124.59375 91.515625 123.207031 91.515625 121.527344 C 91.515625 119.824219 90.835938 114.53125 89.976562 114.53125 Z M 63.273438 76.4375 C 62.4375 76.4375 61.734375 84.183594 61.734375 86.683594 C 61.734375 89.179688 62.414062 91.179688 63.273438 91.179688 C 64.132812 91.179688 64.8125 89.15625 64.8125 86.683594 C 64.8125 84.207031 64.132812 76.4375 63.273438 76.4375 Z M 55.6875 64.625 C 55.550781 63.261719 55.277344 62.082031 54.871094 62.058594 C 54.441406 62.011719 53.964844 63.125 53.535156 64.398438 C 53.105469 65.667969 52.765625 67.144531 52.652344 67.851562 C 52.46875 69.28125 52.96875 70.554688 53.808594 70.691406 C 54.644531 70.828125 55.503906 69.734375 55.6875 68.257812 C 55.800781 67.53125 55.800781 65.988281 55.6875 64.625 Z M 91.242188 46.589844 C 90.40625 46.589844 89.703125 52.449219 89.703125 54.335938 C 89.703125 56.21875 90.382812 57.742188 91.242188 57.742188 C 92.105469 57.742188 92.785156 56.21875 92.785156 54.335938 C 92.761719 52.449219 92.082031 46.589844 91.242188 46.589844 Z M 119.214844 49.496094 C 118.964844 47.269531 118.648438 45.363281 118.21875 45.339844 C 117.785156 45.316406 117.355469 47.222656 117.039062 49.449219 C 116.722656 51.675781 116.542969 54.222656 116.5625 55.449219 C 116.5625 57.921875 117.289062 59.898438 118.148438 59.898438 C 118.988281 59.878906 119.644531 57.902344 119.644531 55.449219 C 119.621094 54.222656 119.441406 51.699219 119.214844 49.496094 Z M 53.785156 102.671875 C 52.945312 102.671875 52.242188 107.308594 52.242188 108.785156 C 52.242188 110.261719 52.921875 111.464844 53.785156 111.464844 C 54.644531 111.464844 55.324219 110.261719 55.324219 108.785156 C 55.324219 107.308594 54.621094 102.671875 53.785156 102.671875 Z M 85.515625 97.996094 C 84.675781 97.996094 83.972656 103.378906 83.972656 105.105469 C 83.972656 106.832031 84.652344 108.238281 85.515625 108.238281 C 86.351562 108.238281 87.054688 106.832031 87.054688 105.105469 C 87.054688 103.378906 86.351562 97.996094 85.515625 97.996094 Z M 85.515625 97.996094 " fill-opacity="1" fill-rule="nonzero"/></g></svg>