<svg xmlns="http://www.w3.org/2000/svg" xmlns:xlink="http://www.w3.org/1999/xlink" width="1920" zoomAndPan="magnify" viewBox="0 0 1440 262.499992" height="350" preserveAspectRatio="xMidYMid meet" version="1.0"><defs><clipPath id="a3b62cdf90"><path d="M 1.367188 0 L 1438.628906 0 L 1438.628906 262 L 1.367188 262 Z M 1.367188 0 " clip-rule="nonzero"/></clipPath><clipPath id="418aa37ca7"><path d="M 134.355469 144.90625 L 516.992188 144.90625 L 516.992188 262 L 134.355469 262 Z M 134.355469 144.90625 " clip-rule="nonzero"/></clipPath><clipPath id="d6c3aaa267"><path d="M 325.675781 144.90625 C 220.011719 144.90625 134.355469 230.5625 134.355469 336.226562 C 134.355469 441.886719 220.011719 527.542969 325.675781 527.542969 C 431.335938 527.542969 516.992188 441.886719 516.992188 336.226562 C 516.992188 230.5625 431.335938 144.90625 325.675781 144.90625 " clip-rule="nonzero"/></clipPath><clipPath id="ea5f559003"><path d="M 399.984375 91.238281 L 479.507812 91.238281 L 479.507812 170.761719 L 399.984375 170.761719 Z M 399.984375 91.238281 " clip-rule="nonzero"/></clipPath><clipPath id="55ae9dab10"><path d="M 439.746094 91.238281 C 417.785156 91.238281 399.984375 109.042969 399.984375 131 C 399.984375 152.960938 417.785156 170.761719 439.746094 170.761719 C 461.703125 170.761719 479.507812 152.960938 479.507812 131 C 479.507812 109.042969 461.703125 91.238281 439.746094 91.238281 " clip-rule="nonzero"/></clipPath><clipPath id="e816c02375"><path d="M 293.429688 0 L 506.542969 0 L 506.542969 91.238281 L 293.429688 91.238281 Z M 293.429688 0 " clip-rule="nonzero"/></clipPath><clipPath id="d390ee959f"><path d="M 399.984375 -121.875 C 341.136719 -121.875 293.429688 -74.167969 293.429688 -15.316406 C 293.429688 43.53125 341.136719 91.238281 399.984375 91.238281 C 458.835938 91.238281 506.542969 43.53125 506.542969 -15.316406 C 506.542969 -74.167969 458.835938 -121.875 399.984375 -121.875 " clip-rule="nonzero"/></clipPath><clipPath id="fb4869908f"><path d="M 1.367188 0 L 134.355469 0 L 134.355469 131 L 1.367188 131 Z M 1.367188 0 " clip-rule="nonzero"/></clipPath><clipPath id="70e7767fd4"><path d="M 25.957031 -85.796875 C -33.910156 -85.796875 -82.441406 -37.265625 -82.441406 22.601562 C -82.441406 82.46875 -33.910156 131 25.957031 131 C 85.824219 131 134.355469 82.46875 134.355469 22.601562 C 134.355469 -37.265625 85.824219 -85.796875 25.957031 -85.796875 " clip-rule="nonzero"/></clipPath><clipPath id="9f48c17edc"><path d="M 454.113281 170.761719 L 479.507812 170.761719 L 479.507812 196.15625 L 454.113281 196.15625 Z M 454.113281 170.761719 " clip-rule="nonzero"/></clipPath><clipPath id="38a54f1463"><path d="M 466.808594 170.761719 C 459.796875 170.761719 454.113281 176.445312 454.113281 183.457031 C 454.113281 190.46875 459.796875 196.15625 466.808594 196.15625 C 473.820312 196.15625 479.507812 190.46875 479.507812 183.457031 C 479.507812 176.445312 473.820312 170.761719 466.808594 170.761719 " clip-rule="nonzero"/></clipPath><clipPath id="93f022b2e4"><path d="M 472.191406 156.128906 L 486.820312 156.128906 L 486.820312 170.761719 L 472.191406 170.761719 Z M 472.191406 156.128906 " clip-rule="nonzero"/></clipPath><clipPath id="0563e6e84a"><path d="M 479.507812 156.128906 C 475.464844 156.128906 472.191406 159.40625 472.191406 163.445312 C 472.191406 167.484375 475.464844 170.761719 479.507812 170.761719 C 483.546875 170.761719 486.820312 167.484375 486.820312 163.445312 C 486.820312 159.40625 483.546875 156.128906 479.507812 156.128906 " clip-rule="nonzero"/></clipPath></defs><g clip-path="url(#a3b62cdf90)"><path fill="#ffffff" d="M 1.367188 0 L 1438.632812 0 L 1438.632812 269.488281 L 1.367188 269.488281 Z M 1.367188 0 " fill-opacity="1" fill-rule="nonzero"/><path fill="#ffffff" d="M 1.367188 0 L 1438.632812 0 L 1438.632812 262 L 1.367188 262 Z M 1.367188 0 " fill-opacity="1" fill-rule="nonzero"/><path fill="#dbeefe" d="M 1.367188 0 L 1438.632812 0 L 1438.632812 262 L 1.367188 262 Z M 1.367188 0 " fill-opacity="1" fill-rule="nonzero"/></g><g clip-path="url(#418aa37ca7)"><g clip-path="url(#d6c3aaa267)"><path fill="#f1f8ff" d="M 134.355469 144.90625 L 516.992188 144.90625 L 516.992188 527.542969 L 134.355469 527.542969 Z M 134.355469 144.90625 " fill-opacity="1" fill-rule="nonzero"/></g></g><g clip-path="url(#ea5f559003)"><g clip-path="url(#55ae9dab10)"><path fill="#f1f8ff" d="M 399.984375 91.238281 L 479.507812 91.238281 L 479.507812 170.761719 L 399.984375 170.761719 Z M 399.984375 91.238281 " fill-opacity="1" fill-rule="nonzero"/></g></g><g clip-path="url(#e816c02375)"><g clip-path="url(#d390ee959f)"><path fill="#f1f8ff" d="M 293.429688 -121.875 L 506.542969 -121.875 L 506.542969 91.238281 L 293.429688 91.238281 Z M 293.429688 -121.875 " fill-opacity="1" fill-rule="nonzero"/></g></g><g clip-path="url(#fb4869908f)"><g clip-path="url(#70e7767fd4)"><path fill="#f1f8ff" d="M -82.441406 -85.796875 L 134.355469 -85.796875 L 134.355469 131 L -82.441406 131 Z M -82.441406 -85.796875 " fill-opacity="1" fill-rule="nonzero"/></g></g><g clip-path="url(#9f48c17edc)"><g clip-path="url(#38a54f1463)"><path fill="#f1f8ff" d="M 454.113281 170.761719 L 479.507812 170.761719 L 479.507812 196.15625 L 454.113281 196.15625 Z M 454.113281 170.761719 " fill-opacity="1" fill-rule="nonzero"/></g></g><g clip-path="url(#93f022b2e4)"><g clip-path="url(#0563e6e84a)"><path fill="#f1f8ff" d="M 472.191406 156.128906 L 486.820312 156.128906 L 486.820312 170.761719 L 472.191406 170.761719 Z M 472.191406 156.128906 " fill-opacity="1" fill-rule="nonzero"/></g></g></svg>