<svg xmlns="http://www.w3.org/2000/svg" xmlns:xlink="http://www.w3.org/1999/xlink" width="500" zoomAndPan="magnify" viewBox="0 0 375 374.999991" height="500" preserveAspectRatio="xMidYMid meet" version="1.0"><defs><clipPath id="debf87b667"><path d="M 1 83.203125 L 111 83.203125 L 111 223 L 1 223 Z M 1 83.203125 " clip-rule="nonzero"/></clipPath><clipPath id="267298b5d1"><path d="M 125 83.203125 L 235 83.203125 L 235 227 L 125 227 Z M 125 83.203125 " clip-rule="nonzero"/></clipPath><clipPath id="71a45a03ce"><path d="M 250 83.203125 L 360 83.203125 L 360 223 L 250 223 Z M 250 83.203125 " clip-rule="nonzero"/></clipPath><clipPath id="370b51720d"><path d="M 44.328125 243.105469 L 88.335938 243.105469 L 88.335938 291.703125 L 44.328125 291.703125 Z M 44.328125 243.105469 " clip-rule="nonzero"/></clipPath><clipPath id="cc87146483"><path d="M 182 243.105469 L 226 243.105469 L 226 291.703125 L 182 291.703125 Z M 182 243.105469 " clip-rule="nonzero"/></clipPath><clipPath id="bd9a888497"><path d="M 232.941406 244.5 L 271 244.5 L 271 291.703125 L 232.941406 291.703125 Z M 232.941406 244.5 " clip-rule="nonzero"/></clipPath><clipPath id="fada690745"><path d="M 11 103.285156 L 90.488281 103.285156 L 90.488281 115.582031 L 11 115.582031 Z M 120.703125 142.117188 L 121 142.117188 L 121 155.066406 L 120.703125 155.066406 Z M 56.820312 204.410156 L 121 204.410156 L 121 213.792969 L 56.820312 213.792969 Z M 56.820312 204.410156 " clip-rule="nonzero"/></clipPath><clipPath id="33271978ae"><path d="M 192.296875 115.582031 L 244 115.582031 L 244 126.585938 L 192.296875 126.585938 Z M 135.140625 142.117188 L 244 142.117188 L 244 155.066406 L 135.140625 155.066406 Z M 135.140625 142.117188 " clip-rule="nonzero"/></clipPath><clipPath id="766f598e35"><path d="M 274.375 103.285156 L 332.648438 103.285156 L 332.648438 115.582031 L 274.375 115.582031 Z M 314.6875 155.066406 L 365.667969 155.066406 L 365.667969 162.179688 L 314.6875 162.179688 Z M 261.550781 208.128906 L 369.863281 208.128906 L 369.863281 219.457031 L 261.550781 219.457031 Z M 261.550781 208.128906 " clip-rule="nonzero"/></clipPath><clipPath id="566da9f629"><path d="M 33.1875 256.023438 L 47 256.023438 L 47 264.121094 L 33.1875 264.121094 Z M 33.1875 256.023438 " clip-rule="nonzero"/></clipPath><clipPath id="28e4bd80da"><path d="M 54.109375 256.023438 L 76.242188 256.023438 L 76.242188 264.121094 L 54.109375 264.121094 Z M 54.109375 256.023438 " clip-rule="nonzero"/></clipPath><clipPath id="4e5d12564e"><path d="M 107.972656 279.320312 L 137.238281 279.320312 L 137.238281 285.792969 L 107.972656 285.792969 Z M 107.972656 279.320312 " clip-rule="nonzero"/></clipPath><clipPath id="6b864eceb1"><path d="M 159.59375 279.320312 L 181.457031 279.320312 L 181.457031 285.792969 L 159.59375 285.792969 Z M 159.59375 279.320312 " clip-rule="nonzero"/></clipPath><clipPath id="1bfc26dc50"><path d="M 215.453125 264.121094 L 236 264.121094 L 236 270.90625 L 215.453125 270.90625 Z M 215.453125 264.121094 " clip-rule="nonzero"/></clipPath><clipPath id="a1daeacf51"><path d="M 242.023438 264.121094 L 280.445312 264.121094 L 280.445312 270.90625 L 242.023438 270.90625 Z M 242.023438 264.121094 " clip-rule="nonzero"/></clipPath><clipPath id="6fb38a6818"><path d="M 305.128906 287.085938 L 327 287.085938 L 327 291 L 305.128906 291 Z M 305.128906 287.085938 " clip-rule="nonzero"/></clipPath><clipPath id="e410b910ad"><path d="M 355.703125 260.550781 L 375 260.550781 L 375 267.691406 L 355.703125 267.691406 Z M 336.332031 287.085938 L 373.113281 287.085938 L 373.113281 291 L 336.332031 291 Z M 336.332031 287.085938 " clip-rule="nonzero"/></clipPath></defs><g clip-path="url(#debf87b667)"><path fill="#1d764a" d="M 62.179688 222.894531 L 94.863281 222.894531 L 94.863281 213.796875 L 62.113281 213.796875 Z M 94.863281 169.683594 L 94.863281 137.425781 L 65.996094 137.425781 L 62.394531 169.683594 L 36.074219 169.683594 L 60.566406 115.582031 L 27.421875 115.582031 L 1.476562 172.292969 L 1.476562 193.46875 L 61.964844 193.46875 L 62.042969 204.410156 L 94.863281 204.410156 L 94.863281 193.46875 L 110.992188 193.46875 L 110.992188 169.683594 Z M 42.230469 83.207031 L 33.042969 103.285156 L 66.140625 103.285156 L 70.667969 93.28125 L 42.230469 83.207031 " fill-opacity="1" fill-rule="nonzero"/></g><g clip-path="url(#267298b5d1)"><path fill="#1d764a" d="M 231.113281 126.578125 L 197.742188 126.578125 C 198.550781 130.792969 199.101562 135.976562 199.414062 142.113281 L 233.550781 142.113281 C 233.074219 136.550781 232.261719 131.378906 231.113281 126.578125 Z M 220.1875 102.15625 C 210.914062 89.933594 197.507812 83.816406 179.96875 83.816406 C 162.417969 83.816406 149.019531 89.933594 139.75 102.15625 C 132.292969 112 127.835938 125.308594 126.378906 142.113281 L 160.523438 142.113281 C 160.847656 135.941406 161.421875 130.746094 162.246094 126.542969 C 163.585938 119.691406 165.675781 114.785156 168.507812 111.835938 C 171.335938 108.875 175.152344 107.398438 179.96875 107.398438 C 184.777344 107.398438 188.59375 108.808594 191.429688 111.628906 C 192.480469 112.667969 193.414062 113.988281 194.246094 115.582031 L 227.679688 115.582031 C 225.65625 110.550781 223.160156 106.078125 220.1875 102.15625 Z M 199.707031 155.0625 C 199.707031 167.246094 199.035156 176.789062 197.6875 183.691406 C 196.34375 190.613281 194.257812 195.515625 191.429688 198.398438 C 188.59375 201.292969 184.777344 202.738281 179.96875 202.738281 C 175.152344 202.738281 171.335938 201.253906 168.507812 198.304688 C 165.675781 195.351562 163.585938 190.410156 162.246094 183.488281 C 160.894531 176.585938 160.226562 167.113281 160.226562 155.0625 L 125.84375 155.0625 C 125.851562 177.859375 130.488281 195.429688 139.75 207.777344 C 149.019531 220.136719 162.417969 226.320312 179.96875 226.320312 C 197.507812 226.320312 210.914062 220.136719 220.1875 207.777344 C 229.445312 195.429688 234.074219 177.859375 234.089844 155.0625 L 199.707031 155.0625 " fill-opacity="1" fill-rule="nonzero"/></g><g clip-path="url(#71a45a03ce)"><path fill="#1d764a" d="M 290.960938 83.207031 L 281.78125 103.285156 L 314.882812 103.285156 L 319.40625 93.28125 Z M 310.894531 219.457031 L 310.917969 222.894531 L 343.601562 222.894531 L 343.601562 219.457031 Z M 343.601562 169.683594 L 343.601562 162.179688 L 311.96875 162.179688 L 311.121094 169.683594 L 284.8125 169.683594 L 309.308594 115.582031 L 276.15625 115.582031 L 250.21875 172.292969 L 250.21875 193.46875 L 310.703125 193.46875 L 310.8125 208.125 L 343.601562 208.125 L 343.601562 193.46875 L 359.734375 193.46875 L 359.734375 169.683594 Z M 314.738281 137.425781 L 312.769531 155.0625 L 343.601562 155.0625 L 343.601562 137.425781 L 314.738281 137.425781 " fill-opacity="1" fill-rule="nonzero"/></g><path fill="#1d764a" d="M 27.023438 264.121094 C 27.070312 269.21875 27.566406 274.625 28.546875 280.355469 L 14.269531 244.773438 L 0.0625 244.773438 L 0.0625 290.605469 L 10.226562 290.605469 L 10.226562 273.808594 C 10.226562 270.152344 10.101562 266.988281 9.839844 264.316406 C 9.589844 261.644531 9.230469 258.570312 8.761719 255.09375 L 22.691406 290.605469 L 37.25 290.605469 L 37.25 264.121094 Z M 27.011719 244.773438 L 27.011719 256.023438 L 37.25 256.023438 L 37.25 244.773438 L 27.011719 244.773438 " fill-opacity="1" fill-rule="nonzero"/><g clip-path="url(#370b51720d)"><path fill="#1d764a" d="M 82.546875 249.929688 C 78.722656 245.746094 73.367188 243.648438 66.492188 243.648438 C 61.996094 243.648438 58.109375 244.605469 54.867188 246.523438 C 51.613281 248.445312 49.117188 251.210938 47.378906 254.820312 C 47.183594 255.21875 47.011719 255.617188 46.84375 256.023438 L 58.78125 256.023438 C 58.898438 255.804688 59.023438 255.589844 59.152344 255.382812 C 60.753906 252.851562 63.199219 251.585938 66.492188 251.585938 C 69.796875 251.585938 72.25 252.839844 73.875 255.355469 C 75.507812 257.871094 76.3125 261.96875 76.3125 267.65625 C 76.3125 273.34375 75.515625 277.460938 73.914062 279.996094 C 72.3125 282.527344 69.84375 283.789062 66.492188 283.789062 C 63.25 283.789062 60.808594 282.519531 59.179688 279.953125 C 57.558594 277.402344 56.75 273.296875 56.75 267.65625 C 56.75 266.402344 56.789062 265.21875 56.878906 264.121094 L 44.929688 264.121094 C 44.824219 265.257812 44.765625 266.433594 44.765625 267.65625 C 44.765625 272.734375 45.640625 277.0625 47.378906 280.65625 C 49.117188 284.246094 51.613281 286.992188 54.867188 288.886719 C 58.109375 290.78125 61.996094 291.730469 66.492188 291.730469 C 71 291.730469 74.882812 290.769531 78.15625 288.847656 C 81.429688 286.933594 83.9375 284.167969 85.683594 280.558594 C 87.421875 276.9375 88.296875 272.636719 88.296875 267.65625 C 88.296875 260.027344 86.371094 254.125 82.546875 249.929688 " fill-opacity="1" fill-rule="nonzero"/></g><path fill="#1d764a" d="M 103.058594 285.789062 L 103.058594 290.605469 L 114.480469 290.605469 L 114.480469 285.789062 Z M 90.589844 244.773438 L 90.589844 253.105469 L 103.058594 253.105469 L 103.058594 279.324219 L 114.480469 279.324219 L 114.480469 253.105469 L 126.386719 253.105469 L 127.503906 244.773438 L 90.589844 244.773438 " fill-opacity="1" fill-rule="nonzero"/><path fill="#1d764a" d="M 150.132812 285.789062 L 150.132812 290.605469 L 161.558594 290.605469 L 161.558594 285.789062 Z M 177.707031 252.511719 L 178.894531 244.773438 L 150.132812 244.773438 L 150.132812 279.324219 L 161.558594 279.324219 L 161.558594 272.421875 L 175.617188 272.421875 L 175.617188 264.683594 L 161.558594 264.683594 L 161.558594 252.511719 L 177.707031 252.511719 " fill-opacity="1" fill-rule="nonzero"/><g clip-path="url(#cc87146483)"><path fill="#1d764a" d="M 214.019531 270.90625 C 213.769531 274.945312 213.011719 277.976562 211.726562 279.996094 C 210.125 282.527344 207.648438 283.789062 204.308594 283.789062 C 201.0625 283.789062 198.628906 282.519531 196.996094 279.953125 C 195.375 277.402344 194.554688 273.296875 194.554688 267.65625 C 194.554688 262.015625 195.359375 257.921875 196.96875 255.382812 C 198.570312 252.851562 201.015625 251.585938 204.308594 251.585938 C 207.609375 251.585938 210.070312 252.839844 211.691406 255.355469 C 212.960938 257.316406 213.730469 260.226562 214 264.121094 L 225.957031 264.121094 C 225.453125 258.179688 223.578125 253.453125 220.363281 249.929688 C 216.535156 245.746094 211.183594 243.648438 204.308594 243.648438 C 199.8125 243.648438 195.925781 244.605469 192.679688 246.523438 C 189.429688 248.445312 186.933594 251.210938 185.195312 254.820312 C 183.457031 258.441406 182.582031 262.710938 182.582031 267.65625 C 182.582031 272.734375 183.457031 277.0625 185.195312 280.65625 C 186.933594 284.246094 189.429688 286.992188 192.679688 288.886719 C 195.925781 290.78125 199.8125 291.730469 204.308594 291.730469 C 208.816406 291.730469 212.699219 290.769531 215.972656 288.847656 C 219.246094 286.933594 221.757812 284.167969 223.5 280.558594 C 224.847656 277.753906 225.675781 274.527344 225.976562 270.90625 L 214.019531 270.90625 " fill-opacity="1" fill-rule="nonzero"/></g><g clip-path="url(#bd9a888497)"><path fill="#1d764a" d="M 259.261719 270.90625 L 259.261719 274.925781 C 259.261719 277.890625 258.667969 280.082031 257.480469 281.507812 C 256.296875 282.945312 254.402344 283.664062 251.800781 283.664062 C 249.246094 283.664062 247.382812 282.945312 246.199219 281.507812 C 245.011719 280.082031 244.417969 277.890625 244.417969 274.925781 L 244.417969 270.90625 L 232.996094 270.90625 L 232.996094 275.394531 C 232.996094 280.371094 234.601562 284.34375 237.808594 287.292969 C 241.011719 290.253906 245.675781 291.730469 251.800781 291.730469 C 255.886719 291.730469 259.347656 291.023438 262.183594 289.613281 C 265.011719 288.207031 267.136719 286.265625 268.554688 283.789062 C 269.964844 281.324219 270.671875 278.527344 270.671875 275.394531 L 270.671875 270.90625 Z M 259.261719 244.773438 L 259.261719 264.121094 L 270.671875 264.121094 L 270.671875 244.773438 Z M 232.996094 244.773438 L 232.996094 264.121094 L 244.417969 264.121094 L 244.417969 244.773438 L 232.996094 244.773438 " fill-opacity="1" fill-rule="nonzero"/></g><path fill="#1d764a" d="M 306.753906 244.773438 L 306.753906 263.285156 C 306.753906 268.625 307.257812 274.3125 308.277344 280.355469 L 294 244.773438 L 279.800781 244.773438 L 279.800781 290.605469 L 289.972656 290.605469 L 289.972656 273.808594 C 289.972656 270.152344 289.835938 266.988281 289.582031 264.316406 C 289.328125 261.644531 288.96875 258.570312 288.503906 255.09375 L 301.050781 287.089844 L 316.988281 287.089844 L 316.988281 244.773438 L 306.753906 244.773438 " fill-opacity="1" fill-rule="nonzero"/><path fill="#1d764a" d="M 353.410156 267.695312 C 353.382812 273.296875 352.402344 277.195312 350.488281 279.390625 C 348.535156 281.625 345.679688 282.730469 341.921875 282.730469 L 338.152344 282.730469 L 338.152344 252.648438 L 341.773438 252.648438 C 344.242188 252.648438 346.300781 253.054688 347.972656 253.871094 C 349.640625 254.6875 350.972656 256.171875 351.945312 258.328125 C 352.246094 258.988281 352.5 259.722656 352.699219 260.550781 L 364.648438 260.550781 C 363.703125 255.5625 361.617188 251.917969 358.382812 249.636719 C 353.808594 246.398438 347.738281 244.773438 340.171875 244.773438 L 326.742188 244.773438 L 326.742188 287.089844 L 356.050781 287.089844 C 356.9375 286.585938 357.761719 286.023438 358.558594 285.410156 C 362.976562 281.984375 365.210938 276.074219 365.246094 267.695312 L 353.410156 267.695312 " fill-opacity="1" fill-rule="nonzero"/><g clip-path="url(#fada690745)"><path fill="#1d764a" d="M 104.574219 193.460938 L 104.574219 222.890625 L 71.886719 222.890625 L 71.675781 193.460938 L 11.1875 193.460938 L 11.1875 172.300781 L 51.9375 83.207031 L 80.378906 93.285156 L 45.785156 169.679688 L 72.101562 169.679688 L 75.707031 137.429688 L 104.574219 137.429688 L 104.574219 169.679688 L 120.703125 169.679688 L 120.703125 193.460938 L 104.574219 193.460938 " fill-opacity="1" fill-rule="nonzero"/></g><g clip-path="url(#33271978ae)"><path fill="#1d764a" d="M 178.21875 111.832031 C 175.386719 114.789062 173.300781 119.691406 171.957031 126.542969 C 170.609375 133.398438 169.941406 142.871094 169.941406 154.964844 C 169.941406 167.058594 170.609375 176.566406 171.957031 183.484375 C 173.300781 190.40625 175.386719 195.347656 178.21875 198.300781 C 181.046875 201.257812 184.867188 202.734375 189.675781 202.734375 C 194.484375 202.734375 198.308594 201.292969 201.140625 198.402344 C 203.96875 195.511719 206.054688 190.609375 207.402344 183.6875 C 208.742188 176.765625 209.417969 167.191406 209.417969 154.964844 C 209.417969 142.738281 208.742188 133.164062 207.402344 126.242188 C 206.054688 119.324219 203.96875 114.453125 201.140625 111.628906 C 198.308594 108.808594 194.484375 107.398438 189.675781 107.398438 C 184.867188 107.398438 181.046875 108.878906 178.21875 111.832031 Z M 229.898438 102.15625 C 239.164062 114.382812 243.796875 131.984375 243.796875 154.964844 C 243.796875 177.8125 239.164062 195.410156 229.898438 207.773438 C 220.628906 220.136719 207.21875 226.316406 189.675781 226.316406 C 172.132812 226.316406 158.722656 220.136719 149.460938 207.773438 C 140.191406 195.410156 135.558594 177.8125 135.558594 154.964844 C 135.558594 131.984375 140.191406 114.382812 149.460938 102.15625 C 158.722656 89.929688 172.132812 83.8125 189.675781 83.8125 C 207.21875 83.8125 220.628906 89.929688 229.898438 102.15625 " fill-opacity="1" fill-rule="nonzero"/></g><g clip-path="url(#766f598e35)"><path fill="#1d764a" d="M 353.3125 193.460938 L 353.3125 222.890625 L 320.625 222.890625 L 320.417969 193.460938 L 259.925781 193.460938 L 259.925781 172.300781 L 300.679688 83.207031 L 329.117188 93.285156 L 294.523438 169.679688 L 320.839844 169.679688 L 324.445312 137.429688 L 353.3125 137.429688 L 353.3125 169.679688 L 369.441406 169.679688 L 369.441406 193.460938 L 353.3125 193.460938 " fill-opacity="1" fill-rule="nonzero"/></g><g clip-path="url(#566da9f629)"><path fill="#1d764a" d="M 32.40625 290.605469 L 18.476562 255.089844 C 18.941406 258.574219 19.300781 261.648438 19.558594 264.316406 C 19.8125 266.984375 19.941406 270.144531 19.941406 273.804688 L 19.941406 290.605469 L 9.773438 290.605469 L 9.773438 244.773438 L 23.980469 244.773438 L 38.257812 280.355469 C 37.234375 274.3125 36.722656 268.625 36.722656 263.292969 L 36.722656 244.773438 L 46.960938 244.773438 L 46.960938 290.605469 L 32.40625 290.605469 " fill-opacity="1" fill-rule="nonzero"/></g><g clip-path="url(#28e4bd80da)"><path fill="#1d764a" d="M 68.863281 255.386719 C 67.261719 257.921875 66.460938 262.011719 66.460938 267.65625 C 66.460938 273.296875 67.269531 277.402344 68.894531 279.957031 C 70.519531 282.515625 72.957031 283.792969 76.207031 283.792969 C 79.550781 283.792969 82.023438 282.527344 83.625 279.988281 C 85.226562 277.457031 86.027344 273.34375 86.027344 267.65625 C 86.027344 261.96875 85.214844 257.867188 83.589844 255.355469 C 81.964844 252.839844 79.503906 251.585938 76.207031 251.585938 C 72.910156 251.585938 70.460938 252.851562 68.863281 255.386719 Z M 92.257812 249.929688 C 96.089844 254.121094 98.003906 260.027344 98.003906 267.65625 C 98.003906 272.636719 97.136719 276.9375 95.394531 280.550781 C 93.652344 284.167969 91.144531 286.933594 87.875 288.851562 C 84.597656 290.769531 80.710938 291.730469 76.207031 291.730469 C 71.707031 291.730469 67.828125 290.78125 64.578125 288.886719 C 61.328125 286.992188 58.832031 284.246094 57.09375 280.652344 C 55.351562 277.058594 54.480469 272.726562 54.480469 267.65625 C 54.480469 262.71875 55.351562 258.441406 57.09375 254.824219 C 58.832031 251.210938 61.328125 248.441406 64.578125 246.523438 C 67.828125 244.605469 71.707031 243.648438 76.207031 243.648438 C 83.078125 243.648438 88.429688 245.742188 92.257812 249.929688 " fill-opacity="1" fill-rule="nonzero"/></g><g clip-path="url(#4e5d12564e)"><path fill="#1d764a" d="M 124.1875 253.105469 L 124.1875 290.605469 L 112.769531 290.605469 L 112.769531 253.105469 L 100.304688 253.105469 L 100.304688 244.773438 L 137.214844 244.773438 L 136.097656 253.105469 L 124.1875 253.105469 " fill-opacity="1" fill-rule="nonzero"/></g><g clip-path="url(#6b864eceb1)"><path fill="#1d764a" d="M 171.265625 252.511719 L 171.265625 264.679688 L 185.332031 264.679688 L 185.332031 272.417969 L 171.265625 272.417969 L 171.265625 290.605469 L 159.84375 290.605469 L 159.84375 244.773438 L 188.605469 244.773438 L 187.421875 252.511719 L 171.265625 252.511719 " fill-opacity="1" fill-rule="nonzero"/></g><g clip-path="url(#1bfc26dc50)"><path fill="#1d764a" d="M 206.675781 255.386719 C 205.074219 257.921875 204.273438 262.011719 204.273438 267.65625 C 204.273438 273.296875 205.082031 277.402344 206.710938 279.957031 C 208.335938 282.515625 210.773438 283.792969 214.023438 283.792969 C 217.367188 283.792969 219.839844 282.527344 221.441406 279.988281 C 223.042969 277.457031 223.84375 273.34375 223.84375 267.65625 C 223.84375 261.96875 223.03125 257.867188 221.40625 255.355469 C 219.78125 252.839844 217.320312 251.585938 214.023438 251.585938 C 210.726562 251.585938 208.277344 252.851562 206.675781 255.386719 Z M 230.074219 249.929688 C 233.90625 254.121094 235.820312 260.027344 235.820312 267.65625 C 235.820312 272.636719 234.949219 276.9375 233.210938 280.550781 C 231.472656 284.167969 228.960938 286.933594 225.6875 288.851562 C 222.414062 290.769531 218.527344 291.730469 214.023438 291.730469 C 209.519531 291.730469 205.644531 290.78125 202.394531 288.886719 C 199.144531 286.992188 196.648438 284.246094 194.90625 280.652344 C 193.167969 277.058594 192.296875 272.726562 192.296875 267.65625 C 192.296875 262.71875 193.167969 258.441406 194.90625 254.824219 C 196.648438 251.210938 199.144531 248.441406 202.394531 246.523438 C 205.644531 244.605469 209.519531 243.648438 214.023438 243.648438 C 220.894531 243.648438 226.246094 245.742188 230.074219 249.929688 " fill-opacity="1" fill-rule="nonzero"/></g><g clip-path="url(#a1daeacf51)"><path fill="#1d764a" d="M 278.265625 283.792969 C 276.847656 286.261719 274.726562 288.203125 271.894531 289.613281 C 269.058594 291.023438 265.601562 291.730469 261.519531 291.730469 C 255.390625 291.730469 250.722656 290.253906 247.519531 287.300781 C 244.316406 284.34375 242.714844 280.375 242.714844 275.394531 L 242.714844 244.773438 L 254.136719 244.773438 L 254.136719 274.929688 C 254.136719 277.882812 254.726562 280.078125 255.910156 281.511719 C 257.09375 282.945312 258.960938 283.660156 261.519531 283.660156 C 264.117188 283.660156 266.007812 282.945312 267.195312 281.511719 C 268.375 280.078125 268.96875 277.882812 268.96875 274.929688 L 268.96875 244.773438 L 280.390625 244.773438 L 280.390625 275.394531 C 280.390625 278.523438 279.679688 281.324219 278.265625 283.792969 " fill-opacity="1" fill-rule="nonzero"/></g><g clip-path="url(#6fb38a6818)"><path fill="#1d764a" d="M 312.144531 290.605469 L 298.214844 255.089844 C 298.679688 258.574219 299.039062 261.648438 299.296875 264.316406 C 299.550781 266.984375 299.675781 270.144531 299.675781 273.804688 L 299.675781 290.605469 L 289.511719 290.605469 L 289.511719 244.773438 L 303.714844 244.773438 L 317.992188 280.355469 C 316.972656 274.3125 316.460938 268.625 316.460938 263.292969 L 316.460938 244.773438 L 326.699219 244.773438 L 326.699219 290.605469 L 312.144531 290.605469 " fill-opacity="1" fill-rule="nonzero"/></g><g clip-path="url(#e410b910ad)"><path fill="#1d764a" d="M 347.867188 282.734375 L 351.628906 282.734375 C 355.390625 282.734375 358.242188 281.621094 360.195312 279.394531 C 362.144531 277.167969 363.121094 273.1875 363.121094 267.457031 C 363.121094 263.535156 362.632812 260.492188 361.65625 258.328125 C 360.683594 256.171875 359.359375 254.683594 357.6875 253.867188 C 356.015625 253.050781 353.949219 252.644531 351.488281 252.644531 L 347.867188 252.644531 Z M 368.097656 249.632812 C 372.671875 252.871094 374.960938 258.816406 374.960938 267.457031 C 374.960938 275.96875 372.730469 281.953125 368.273438 285.414062 C 363.816406 288.871094 358.035156 290.605469 350.933594 290.605469 L 336.449219 290.605469 L 336.449219 244.773438 L 349.886719 244.773438 C 357.453125 244.773438 363.527344 246.394531 368.097656 249.632812 " fill-opacity="1" fill-rule="nonzero"/></g></svg>