<svg xmlns="http://www.w3.org/2000/svg" xmlns:xlink="http://www.w3.org/1999/xlink" width="500" zoomAndPan="magnify" viewBox="0 0 375 374.999991" height="500" preserveAspectRatio="xMidYMid meet" version="1.0"><defs><clipPath id="aa1cf6670e"><path d="M 360 292 L 370.300781 292 L 370.300781 303 L 360 303 Z M 360 292 " clip-rule="nonzero"/></clipPath><clipPath id="93d8ba0f1a"><path d="M 98 341 L 236 341 L 236 349.871094 L 98 349.871094 Z M 98 341 " clip-rule="nonzero"/></clipPath><clipPath id="511826dd87"><path d="M 5.050781 322 L 120 322 L 120 331 L 5.050781 331 Z M 5.050781 322 " clip-rule="nonzero"/></clipPath><clipPath id="2b500eb0f3"><path d="M 215 25.121094 L 232 25.121094 L 232 48 L 215 48 Z M 215 25.121094 " clip-rule="nonzero"/></clipPath></defs><path fill="#1d764a" d="M 253.742188 307.976562 L 240.808594 317.15625 L 234.308594 328.734375 L 258.902344 332.125 L 276.710938 324.496094 L 266.535156 314.332031 Z M 256.394531 316.132812 L 245.582031 320.261719 L 240.808594 324.285156 L 240.28125 324.179688 L 243.777344 318.671875 L 254.804688 312.953125 Z M 256.394531 316.132812 " fill-opacity="1" fill-rule="nonzero"/><path fill="#1d764a" d="M 279.808594 340.796875 L 279.808594 334.441406 L 270.902344 335.710938 L 273.445312 342.914062 Z M 279.808594 340.796875 " fill-opacity="1" fill-rule="nonzero"/><path fill="#1d764a" d="M 189.734375 319.535156 L 182.09375 327.144531 L 197.9375 330.097656 L 200.207031 322.886719 Z M 189.734375 319.535156 " fill-opacity="1" fill-rule="nonzero"/><path fill="#1d764a" d="M 218.492188 329.917969 L 208.5625 330.742188 L 211.402344 335.421875 L 218.492188 334.042969 Z M 218.492188 329.917969 " fill-opacity="1" fill-rule="nonzero"/><path fill="#1d764a" d="M 84.0625 343.859375 L 85.40625 339.578125 L 79.191406 337.585938 L 74.65625 342.105469 Z M 84.0625 343.859375 " fill-opacity="1" fill-rule="nonzero"/><path fill="#1d764a" d="M 141.605469 326.613281 L 136.03125 323.554688 L 131.960938 330.503906 L 140.398438 333.203125 Z M 141.605469 326.613281 " fill-opacity="1" fill-rule="nonzero"/><path fill="#1d764a" d="M 56 293.273438 L 43.066406 302.453125 L 36.566406 314.03125 L 61.160156 317.417969 L 78.96875 309.792969 L 68.792969 299.628906 Z M 43.066406 309.582031 L 42.535156 309.476562 L 46.035156 303.96875 L 57.058594 298.25 L 58.652344 301.425781 L 47.835938 305.558594 Z M 43.066406 309.582031 " fill-opacity="1" fill-rule="nonzero"/><path fill="#1d764a" d="M 169.1875 323.8125 L 159.257812 324.640625 L 162.09375 329.320312 L 169.1875 327.941406 Z M 169.1875 323.8125 " fill-opacity="1" fill-rule="nonzero"/><path fill="#1d764a" d="M 15.878906 304.382812 L 17.085938 297.792969 L 11.511719 294.734375 L 7.445312 301.683594 Z M 15.878906 304.382812 " fill-opacity="1" fill-rule="nonzero"/><g clip-path="url(#aa1cf6670e)"><path fill="#1d764a" d="M 364.753906 292.527344 L 360.6875 299.480469 L 369.121094 302.175781 L 370.328125 295.589844 Z M 364.753906 292.527344 " fill-opacity="1" fill-rule="nonzero"/></g><path fill="#1d764a" d="M 341.867188 328.046875 L 356.214844 326.210938 L 358.191406 321.691406 L 339.640625 324.234375 L 305.132812 319.574219 L 284.351562 320 L 295.484375 327.625 L 310.328125 325.082031 Z M 341.867188 328.046875 " fill-opacity="1" fill-rule="nonzero"/><g clip-path="url(#93d8ba0f1a)"><path fill="#1d764a" d="M 231.902344 347.925781 L 235.585938 343.40625 L 201.039062 345.949219 L 136.78125 341.289062 L 98.085938 341.710938 L 118.816406 349.335938 L 146.453125 346.792969 L 205.183594 349.761719 Z M 231.902344 347.925781 " fill-opacity="1" fill-rule="nonzero"/></g><g clip-path="url(#511826dd87)"><path fill="#1d764a" d="M 45.164062 327.789062 L 93.871094 330.753906 L 116.027344 328.917969 L 119.085938 324.398438 L 90.433594 326.941406 L 37.140625 322.28125 L 5.050781 322.707031 L 22.242188 330.332031 Z M 45.164062 327.789062 " fill-opacity="1" fill-rule="nonzero"/></g><path fill="#1d764a" d="M 161.699219 65.511719 C 160.277344 66.332031 159.308594 67.75 158.820312 69.730469 C 158.707031 70.191406 158.988281 70.65625 159.449219 70.769531 C 159.910156 70.882812 160.375 70.605469 160.492188 70.140625 C 160.859375 68.640625 161.550781 67.585938 162.542969 67.007812 C 164.097656 66.105469 165.949219 66.613281 165.964844 66.617188 C 166.390625 66.738281 166.835938 66.519531 167 66.121094 C 167.011719 66.089844 167.019531 66.0625 167.03125 66.03125 C 167.160156 65.574219 166.902344 65.101562 166.445312 64.96875 C 166.34375 64.9375 163.894531 64.246094 161.699219 65.511719 Z M 161.699219 65.511719 " fill-opacity="1" fill-rule="nonzero"/><path fill="#1d764a" d="M 166.007812 60.851562 C 165.859375 60.816406 162.308594 60.011719 159.203125 61.996094 C 157.164062 63.300781 155.820312 65.472656 155.210938 68.445312 C 155.113281 68.910156 155.414062 69.363281 155.878906 69.460938 C 156.347656 69.554688 156.796875 69.25 156.894531 68.789062 C 157.40625 66.292969 158.492188 64.5 160.117188 63.453125 C 162.597656 61.859375 165.585938 62.519531 165.617188 62.523438 C 166.03125 62.621094 166.449219 62.398438 166.605469 62.015625 C 166.625 61.972656 166.636719 61.929688 166.648438 61.882812 C 166.757812 61.421875 166.46875 60.960938 166.007812 60.851562 Z M 166.007812 60.851562 " fill-opacity="1" fill-rule="nonzero"/><path fill="#1d764a" d="M 212.867188 51.367188 C 212.371094 53.09375 213.136719 54.808594 215.253906 55.417969 C 217.285156 56.003906 218.886719 54.828125 219.347656 53.230469 C 219.859375 51.460938 219.023438 49.820312 216.949219 49.222656 C 215.046875 48.675781 213.351562 49.683594 212.867188 51.367188 Z M 212.867188 51.367188 " fill-opacity="1" fill-rule="nonzero"/><g clip-path="url(#2b500eb0f3)"><path fill="#1d764a" d="M 221.324219 37.300781 C 218.183594 38.453125 216.527344 39.332031 215.824219 43.054688 L 215.230469 46.25 L 219.769531 47.554688 L 220.367188 45.484375 C 221.164062 42.722656 221.898438 42.277344 225.011719 41.210938 C 228.800781 39.917969 230.675781 38.121094 231.609375 34.882812 C 232.46875 31.90625 231.460938 27.78125 225.582031 26.09375 C 222.601562 25.234375 219.1875 25.234375 217.179688 25.542969 L 215.375 31.800781 L 219.984375 33.5 L 220.707031 31 C 220.878906 30.394531 221.195312 30.109375 221.609375 30.136719 C 222.222656 30.125 222.914062 30.324219 223.648438 30.535156 C 225.332031 31.019531 226.175781 32.152344 225.679688 33.878906 C 225.03125 36.121094 223.578125 36.453125 221.324219 37.300781 Z M 221.324219 37.300781 " fill-opacity="1" fill-rule="nonzero"/></g><path fill="#1d764a" d="M 235.710938 30.875 L 233.90625 37.132812 L 238.515625 38.835938 L 239.238281 36.332031 C 239.410156 35.726562 239.726562 35.441406 240.140625 35.46875 C 240.75 35.457031 241.441406 35.65625 242.175781 35.867188 C 243.863281 36.351562 244.707031 37.484375 244.207031 39.210938 C 243.5625 41.453125 242.109375 41.785156 239.851562 42.632812 C 236.714844 43.785156 235.054688 44.664062 234.355469 48.390625 L 233.761719 51.582031 L 238.300781 52.890625 L 238.894531 50.816406 C 239.691406 48.054688 240.429688 47.613281 243.542969 46.546875 C 247.332031 45.25 249.207031 43.453125 250.140625 40.21875 C 251 37.238281 249.988281 33.117188 244.113281 31.425781 C 241.132812 30.566406 237.71875 30.566406 235.710938 30.875 Z M 235.710938 30.875 " fill-opacity="1" fill-rule="nonzero"/><path fill="#1d764a" d="M 233.785156 60.75 C 235.816406 61.335938 237.417969 60.160156 237.878906 58.5625 C 238.390625 56.792969 237.554688 55.152344 235.480469 54.554688 C 233.578125 54.007812 231.882812 55.015625 231.398438 56.699219 C 230.902344 58.425781 231.667969 60.140625 233.785156 60.75 Z M 233.785156 60.75 " fill-opacity="1" fill-rule="nonzero"/><path fill="#1d764a" d="M 207.597656 66.59375 C 205.671875 66.546875 203.847656 67.023438 202.257812 67.886719 C 211.910156 73.75 218.371094 84.355469 218.371094 96.441406 C 218.371094 97.238281 218.332031 98.023438 218.277344 98.808594 C 221.917969 103.277344 226.476562 109.550781 232.070312 118.386719 C 234.601562 122.382812 236.992188 126.355469 239.152344 130.054688 L 228.28125 128.261719 L 218.808594 126.699219 C 218.117188 126.585938 217.4375 126.546875 216.761719 126.566406 C 216.226562 126.480469 215.679688 126.421875 215.117188 126.421875 L 199.640625 126.421875 C 195.203125 128.601562 190.21875 129.828125 184.949219 129.828125 C 179.679688 129.828125 174.691406 128.601562 170.253906 126.421875 L 163.464844 126.421875 C 163.222656 126.421875 162.980469 126.441406 162.738281 126.457031 C 159.347656 126.558594 153.121094 127.574219 146.496094 132.832031 C 134.925781 142.011719 127.445312 159.808594 124.246094 185.75 L 108.304688 206.78125 L 104.054688 159 L 117.042969 157.847656 L 116.285156 149.324219 L 82.160156 152.355469 L 82.917969 160.875 L 95.910156 159.722656 L 100.957031 216.476562 L 95.433594 223.761719 C 91.867188 228.464844 92.792969 235.167969 97.503906 238.730469 C 99.199219 240.011719 101.152344 240.679688 103.121094 240.832031 L 107.609375 291.304688 L 102.242188 291.304688 L 101.203125 279.609375 C 84.300781 280.414062 69.539062 281.09375 60.59375 281.289062 C 35.441406 281.839844 27.191406 289.066406 28.242188 296.480469 C 28.589844 298.925781 31.40625 301.464844 36.214844 303.734375 L 38.992188 298.789062 L 55.511719 287.066406 L 71.957031 295.230469 L 88.015625 311.277344 C 121.617188 310.730469 173.355469 318.265625 193.527344 311.78125 C 204.359375 308.296875 221.527344 309.953125 238.605469 312.167969 L 253.257812 301.769531 L 269.699219 309.9375 L 275.964844 316.195312 C 277.203125 316.214844 278.40625 316.214844 279.542969 316.171875 C 301.902344 315.347656 355.238281 307.644531 354.308594 297.945312 C 353.375 288.246094 336.089844 283.667969 297.082031 281.472656 C 272.574219 280.09375 251.773438 278.214844 230.796875 277.078125 L 230.796875 291.304688 L 225.449219 291.304688 L 225.449219 149.453125 L 230.796875 150.335938 L 257.402344 154.722656 C 257.984375 154.816406 258.570312 154.863281 259.148438 154.863281 C 262.523438 154.863281 265.742188 153.265625 267.777344 150.488281 C 270.15625 147.238281 270.507812 142.925781 268.675781 139.332031 C 268.324219 138.636719 259.847656 122.046875 248.976562 105.125 C 227.402344 71.539062 215.953125 66.800781 207.597656 66.59375 Z M 120.070312 278.707031 L 121.191406 291.304688 L 115.820312 291.304688 L 111.09375 238.152344 C 111.59375 237.703125 112.066406 237.214844 112.488281 236.660156 L 143.0625 196.328125 C 144.230469 194.78125 144.960938 192.949219 145.167969 191.027344 C 146.855469 175.441406 149.921875 165.203125 153.132812 158.617188 L 153.132812 291.304688 L 147.785156 291.304688 L 147.785156 277.453125 C 138.648438 277.839844 129.253906 278.273438 120.070312 278.707031 Z M 186.195312 291.304688 L 186.195312 238.410156 L 192.390625 238.410156 L 192.390625 291.304688 Z M 186.195312 291.304688 " fill-opacity="1" fill-rule="nonzero"/><path fill="#1d764a" d="M 184.949219 126.492188 C 201.5625 126.492188 215.027344 113.035156 215.027344 96.441406 C 215.027344 79.84375 201.5625 66.390625 184.949219 66.390625 C 168.332031 66.390625 154.867188 79.84375 154.867188 96.441406 C 154.867188 113.035156 168.332031 126.492188 184.949219 126.492188 Z M 200.925781 93.550781 C 203.507812 93.550781 205.601562 95.644531 205.601562 98.226562 C 205.601562 100.808594 203.507812 102.902344 200.925781 102.902344 C 198.339844 102.902344 196.246094 100.808594 196.246094 98.226562 C 196.246094 95.644531 198.339844 93.550781 200.925781 93.550781 Z M 181.789062 98.617188 C 184.882812 98.617188 187.386719 101.121094 187.386719 104.207031 C 187.386719 107.296875 184.882812 109.800781 181.789062 109.800781 C 178.699219 109.800781 176.191406 107.296875 176.191406 104.207031 C 176.191406 101.121094 178.699219 98.617188 181.789062 98.617188 Z M 181.789062 98.617188 " fill-opacity="1" fill-rule="nonzero"/><path fill="#1d764a" d="M 342.761719 313.066406 L 338.625 311.601562 L 332.832031 313.894531 L 335.667969 318.570312 L 342.761719 317.195312 Z M 342.761719 313.066406 " fill-opacity="1" fill-rule="nonzero"/><path fill="#1d764a" d="M 358.640625 313.949219 L 368.046875 315.703125 L 369.390625 311.421875 L 363.175781 309.429688 Z M 358.640625 313.949219 " fill-opacity="1" fill-rule="nonzero"/></svg>