<svg xmlns="http://www.w3.org/2000/svg" xmlns:xlink="http://www.w3.org/1999/xlink" width="500" zoomAndPan="magnify" viewBox="0 0 375 374.999991" height="500" preserveAspectRatio="xMidYMid meet" version="1.0"><defs><clipPath id="f433204c8f"><path d="M 8 129 L 294 129 L 294 359 L 8 359 Z M 8 129 " clip-rule="nonzero"/></clipPath><clipPath id="bfe5d14101"><path d="M -61.925781 151.300781 L 329.621094 16.808594 L 406.367188 240.246094 L 14.820312 374.738281 Z M -61.925781 151.300781 " clip-rule="nonzero"/></clipPath><clipPath id="daa0fb039e"><path d="M -61.925781 151.300781 L 329.621094 16.808594 L 406.367188 240.246094 L 14.820312 374.738281 Z M -61.925781 151.300781 " clip-rule="nonzero"/></clipPath><clipPath id="fe06fd609b"><path d="M -52.128906 179.824219 L 261.953125 71.941406 L 328.960938 267.023438 L 14.878906 374.90625 Z M -52.128906 179.824219 " clip-rule="nonzero"/></clipPath><clipPath id="1b57edb9f1"><path d="M -52.128906 179.824219 L 261.953125 71.941406 L 328.875 266.765625 L 14.789062 374.648438 Z M -52.128906 179.824219 " clip-rule="nonzero"/></clipPath><clipPath id="888a4fdd1a"><path d="M 230 26 L 362 26 L 362 164 L 230 164 Z M 230 26 " clip-rule="nonzero"/></clipPath><clipPath id="97fc873e9d"><path d="M -61.925781 151.300781 L 329.621094 16.808594 L 406.367188 240.246094 L 14.820312 374.738281 Z M -61.925781 151.300781 " clip-rule="nonzero"/></clipPath><clipPath id="5098a38484"><path d="M -61.925781 151.300781 L 329.621094 16.808594 L 406.367188 240.246094 L 14.820312 374.738281 Z M -61.925781 151.300781 " clip-rule="nonzero"/></clipPath><clipPath id="cbb19ab401"><path d="M 211.496094 57.464844 L 330.296875 16.660156 L 373.851562 143.464844 L 255.054688 184.269531 Z M 211.496094 57.464844 " clip-rule="nonzero"/></clipPath><clipPath id="2c04ae2adf"><path d="M 211.496094 57.464844 L 329.636719 16.886719 L 373.195312 143.691406 L 255.054688 184.269531 Z M 211.496094 57.464844 " clip-rule="nonzero"/></clipPath></defs><g clip-path="url(#f433204c8f)"><g clip-path="url(#bfe5d14101)"><g clip-path="url(#daa0fb039e)"><g clip-path="url(#fe06fd609b)"><g clip-path="url(#1b57edb9f1)"><path fill="#1d764a" d="M 65.140625 147.203125 C 61.242188 150.1875 57.359375 153.382812 54.003906 157.085938 L 53.9375 157.160156 C 53.289062 157.875 52.238281 157.976562 51.519531 157.332031 C 50.804688 156.683594 50.800781 155.625 51.449219 154.914062 L 51.519531 154.832031 C 55.015625 150.980469 59.003906 147.589844 63.066406 144.476562 C 63.835938 143.890625 65.089844 144.175781 65.675781 144.941406 C 66.199219 145.621094 66.144531 146.5625 65.585938 147.175781 C 65.515625 147.253906 65.226562 147.132812 65.140625 147.203125 Z M 36.371094 183.828125 C 35.472656 183.476562 35.03125 182.464844 35.378906 181.566406 C 37.265625 176.765625 39.625 172.082031 42.386719 167.640625 C 42.894531 166.820312 43.972656 166.570312 44.792969 167.082031 C 45.613281 167.589844 45.863281 168.667969 45.355469 169.484375 C 42.703125 173.746094 40.445312 178.238281 38.636719 182.84375 C 38.554688 183.042969 38.445312 183.222656 38.308594 183.375 C 37.832031 183.898438 37.066406 184.105469 36.371094 183.828125 Z M 92.007812 134.386719 C 87.28125 135.535156 82.578125 137.253906 78.027344 139.492188 C 77.160156 139.921875 76.113281 139.566406 75.6875 138.699219 C 75.261719 137.835938 75.617188 136.789062 76.484375 136.359375 C 81.261719 134.007812 86.210938 132.199219 91.183594 130.992188 C 92.117188 130.761719 93.066406 131.339844 93.296875 132.273438 C 93.4375 132.859375 93.265625 133.445312 92.886719 133.859375 C 92.660156 134.113281 92.359375 134.296875 92.007812 134.386719 Z M 31.578125 213.820312 C 30.609375 213.839844 29.8125 213.070312 29.796875 212.105469 C 29.703125 206.933594 30.132812 201.703125 31.085938 196.558594 C 31.261719 195.609375 32.171875 194.980469 33.121094 195.15625 C 34.070312 195.328125 34.699219 196.238281 34.523438 197.1875 C 33.617188 202.105469 33.203125 207.101562 33.289062 212.039062 C 33.300781 212.503906 33.128906 212.925781 32.835938 213.246094 C 32.523438 213.589844 32.078125 213.808594 31.578125 213.820312 Z M 121.363281 134.679688 C 116.613281 133.363281 111.6875 132.683594 106.722656 132.644531 C 105.757812 132.636719 104.980469 131.851562 104.988281 130.886719 C 104.996094 129.921875 105.785156 129.144531 106.75 129.152344 C 112.019531 129.191406 117.25 129.917969 122.300781 131.3125 C 123.230469 131.570312 123.773438 132.53125 123.511719 133.460938 C 123.4375 133.730469 123.304688 133.96875 123.128906 134.167969 C 122.695312 134.640625 122.023438 134.859375 121.363281 134.679688 Z M 38.863281 243.28125 C 37.980469 243.667969 36.949219 243.269531 36.558594 242.386719 C 34.4375 237.578125 32.789062 232.597656 31.660156 227.59375 C 31.449219 226.652344 32.042969 225.71875 32.984375 225.507812 C 33.925781 225.292969 34.859375 225.886719 35.074219 226.824219 C 36.148438 231.613281 37.726562 236.375 39.761719 240.976562 C 40.046875 241.625 39.90625 242.359375 39.453125 242.855469 C 39.292969 243.03125 39.09375 243.175781 38.863281 243.28125 Z M 149.6875 149.324219 C 149.039062 150.039062 147.609375 149.976562 146.894531 149.332031 L 146.652344 149.109375 C 142.9375 145.75 139.007812 142.832031 134.933594 140.488281 C 134.097656 140.007812 133.832031 138.914062 134.316406 138.078125 C 134.796875 137.242188 135.820312 137.007812 136.660156 137.492188 C 140.945312 139.957031 145.007812 143.101562 148.90625 146.628906 L 149.15625 146.855469 C 149.871094 147.5 150.339844 148.605469 149.691406 149.316406 C 149.6875 149.320312 149.6875 149.324219 149.6875 149.324219 Z M 56.179688 268.285156 C 55.46875 268.933594 54.363281 268.886719 53.710938 268.179688 C 50.128906 264.269531 46.890625 260.167969 44.089844 256 C 43.550781 255.199219 43.769531 254.113281 44.566406 253.574219 C 45.371094 253.039062 46.457031 253.25 46.992188 254.054688 C 49.695312 258.078125 52.824219 262.035156 56.289062 265.816406 C 56.902344 266.484375 56.898438 267.503906 56.296875 268.167969 C 56.261719 268.207031 56.21875 268.246094 56.179688 268.285156 Z M 168.507812 172.839844 C 167.679688 173.335938 166.609375 173.070312 166.113281 172.242188 C 163.644531 168.144531 160.703125 164.050781 157.371094 160.082031 C 156.75 159.34375 156.84375 158.242188 157.585938 157.621094 C 158.324219 157.003906 159.429688 157.09375 160.050781 157.832031 C 163.496094 161.941406 166.546875 166.183594 169.109375 170.445312 C 169.511719 171.117188 169.410156 171.957031 168.90625 172.515625 C 168.792969 172.640625 168.664062 172.75 168.507812 172.839844 Z M 77.222656 288.214844 C 72.847656 285.242188 68.699219 282.101562 64.894531 278.886719 C 64.160156 278.261719 64.070312 277.160156 64.695312 276.425781 C 65.328125 275.683594 66.417969 275.59375 67.15625 276.21875 C 70.867188 279.355469 74.914062 282.421875 79.191406 285.328125 C 79.988281 285.871094 80.195312 286.957031 79.652344 287.753906 C 79.609375 287.828125 79.554688 287.886719 79.5 287.949219 C 78.921875 288.582031 77.953125 288.714844 77.222656 288.214844 Z M 25.4375 353.0625 C 20.605469 354.804688 15.703125 356.453125 10.863281 357.976562 C 9.941406 358.261719 8.957031 357.75 8.671875 356.832031 C 8.382812 355.910156 8.894531 354.929688 9.816406 354.640625 C 14.609375 353.136719 19.464844 351.5 24.257812 349.777344 C 25.164062 349.449219 26.164062 349.921875 26.492188 350.828125 C 26.71875 351.457031 26.5625 352.132812 26.144531 352.589844 C 25.957031 352.800781 25.71875 352.960938 25.4375 353.0625 Z M 178.003906 201.621094 C 177.042969 201.738281 176.171875 201.0625 176.050781 200.105469 C 175.441406 195.25 174.261719 190.398438 172.554688 185.675781 C 172.226562 184.773438 172.695312 183.769531 173.605469 183.441406 C 174.515625 183.113281 175.515625 183.582031 175.84375 184.488281 C 177.636719 189.453125 178.875 194.5625 179.519531 199.667969 C 179.585938 200.191406 179.410156 200.695312 179.078125 201.058594 C 178.808594 201.355469 178.433594 201.5625 178.003906 201.621094 Z M 53.941406 341.484375 C 49.292969 343.59375 44.535156 345.636719 39.800781 347.558594 C 38.90625 347.925781 37.890625 347.496094 37.523438 346.601562 C 37.160156 345.707031 37.59375 344.6875 38.488281 344.324219 C 43.175781 342.421875 47.890625 340.390625 52.496094 338.304688 C 53.378906 337.902344 54.410156 338.292969 54.808594 339.171875 C 55.109375 339.828125 54.96875 340.566406 54.515625 341.066406 C 54.359375 341.242188 54.164062 341.382812 53.941406 341.484375 Z M 81.398438 327.648438 C 76.980469 330.113281 72.40625 332.535156 67.808594 334.851562 C 66.945312 335.285156 65.894531 334.941406 65.460938 334.078125 C 65.027344 333.21875 65.375 332.167969 66.238281 331.734375 C 70.792969 329.4375 75.320312 327.039062 79.699219 324.597656 C 80.542969 324.128906 81.605469 324.429688 82.074219 325.269531 C 82.453125 325.941406 82.335938 326.753906 81.84375 327.296875 C 81.71875 327.429688 81.574219 327.550781 81.398438 327.648438 Z M 104.089844 303.320312 C 99.320312 301.097656 94.703125 298.738281 90.363281 296.316406 C 89.519531 295.839844 89.21875 294.777344 89.691406 293.9375 C 90.164062 293.097656 91.230469 292.792969 92.074219 293.265625 C 96.335938 295.648438 100.875 297.96875 105.570312 300.160156 C 106.445312 300.566406 106.820312 301.605469 106.414062 302.480469 C 106.335938 302.640625 106.238281 302.785156 106.125 302.914062 C 105.625 303.464844 104.800781 303.652344 104.089844 303.320312 Z M 174.421875 231.730469 C 173.496094 231.449219 172.976562 230.46875 173.261719 229.546875 C 174.761719 224.667969 175.761719 219.753906 176.234375 214.945312 C 176.332031 213.984375 177.183594 213.285156 178.144531 213.382812 C 179.105469 213.476562 179.808594 214.328125 179.714844 215.289062 C 179.21875 220.324219 178.171875 225.464844 176.605469 230.570312 C 176.527344 230.828125 176.394531 231.046875 176.230469 231.234375 C 175.789062 231.71875 175.089844 231.933594 174.421875 231.730469 Z M 107.570312 311.457031 C 103.421875 314.304688 99.082031 317.128906 94.667969 319.859375 C 93.847656 320.363281 92.773438 320.113281 92.261719 319.289062 C 91.757812 318.46875 92.011719 317.390625 92.832031 316.886719 C 97.199219 314.191406 101.488281 311.394531 105.585938 308.578125 C 106.382812 308.03125 107.472656 308.234375 108.019531 309.027344 C 108.488281 309.707031 108.40625 310.601562 107.878906 311.191406 C 107.785156 311.285156 107.683594 311.375 107.570312 311.457031 Z M 160.539062 258.851562 C 159.738281 258.3125 159.527344 257.230469 160.066406 256.425781 C 162.96875 252.117188 165.527344 247.75 167.667969 243.441406 C 168.097656 242.578125 169.148438 242.226562 170.011719 242.65625 C 170.875 243.085938 171.230469 244.132812 170.796875 245 C 168.589844 249.4375 165.953125 253.945312 162.964844 258.378906 C 162.921875 258.449219 162.867188 258.515625 162.8125 258.578125 C 162.238281 259.214844 161.269531 259.34375 160.539062 258.851562 Z M 131.957031 292.644531 C 128.1875 295.929688 124.175781 299.214844 120.03125 302.40625 C 119.261719 302.992188 118.164062 302.851562 117.574219 302.085938 C 116.984375 301.324219 117.128906 300.222656 117.894531 299.636719 C 121.984375 296.488281 125.945312 293.253906 129.65625 290.015625 C 130.382812 289.378906 131.488281 289.457031 132.125 290.179688 C 132.710938 290.855469 132.691406 291.855469 132.105469 292.5 C 132.058594 292.550781 132.007812 292.601562 131.957031 292.644531 Z M 143.222656 282.113281 C 142.542969 282.796875 141.4375 282.800781 140.75 282.125 C 140.066406 281.441406 140.058594 280.339844 140.746094 279.652344 C 144.398438 275.976562 147.84375 272.210938 150.964844 268.480469 C 151.582031 267.75 152.691406 267.644531 153.429688 268.261719 C 154.167969 268.878906 154.265625 269.980469 153.648438 270.722656 C 152.238281 272.402344 150.761719 274.101562 149.246094 275.773438 C 147.328125 277.886719 145.304688 280.019531 143.222656 282.113281 Z M 132.847656 314.414062 C 129.238281 313.390625 125.542969 312.167969 121.859375 310.777344 C 120.636719 310.316406 119.433594 309.851562 118.238281 309.386719 C 117.339844 309.03125 116.898438 308.015625 117.257812 307.121094 C 117.609375 306.222656 118.625 305.78125 119.523438 306.132812 C 120.699219 306.597656 121.890625 307.054688 123.09375 307.507812 C 126.6875 308.863281 130.289062 310.054688 133.804688 311.050781 C 134.734375 311.316406 135.273438 312.28125 135.007812 313.210938 C 134.933594 313.476562 134.796875 313.710938 134.621094 313.90625 C 134.191406 314.378906 133.511719 314.601562 132.847656 314.414062 Z M 287.21875 180.535156 C 286.289062 180.273438 285.746094 179.3125 286.011719 178.382812 C 288.546875 169.378906 289.726562 163.691406 289.738281 163.636719 C 289.933594 162.695312 290.855469 162.082031 291.804688 162.273438 C 292.746094 162.46875 293.355469 163.394531 293.164062 164.339844 C 293.117188 164.574219 291.949219 170.191406 289.371094 179.324219 C 289.296875 179.597656 289.164062 179.832031 288.988281 180.027344 C 288.558594 180.5 287.878906 180.71875 287.21875 180.535156 Z M 163.507812 318.726562 C 158.449219 318.78125 153.234375 318.429688 148.003906 317.671875 C 147.046875 317.535156 146.386719 316.648438 146.527344 315.691406 C 146.667969 314.738281 147.550781 314.078125 148.507812 314.214844 C 153.558594 314.945312 158.59375 315.285156 163.46875 315.230469 C 164.4375 315.21875 165.222656 315.992188 165.234375 316.957031 C 165.238281 317.414062 165.070312 317.832031 164.785156 318.148438 C 164.46875 318.496094 164.015625 318.71875 163.507812 318.726562 Z M 277.46875 209.542969 C 276.566406 209.203125 276.109375 208.195312 276.453125 207.292969 C 278.238281 202.605469 279.949219 197.777344 281.550781 192.941406 C 281.851562 192.027344 282.839844 191.53125 283.757812 191.828125 C 284.675781 192.132812 285.171875 193.117188 284.867188 194.035156 C 283.253906 198.917969 281.523438 203.796875 279.722656 208.53125 C 279.640625 208.738281 279.527344 208.925781 279.386719 209.082031 C 278.914062 209.601562 278.160156 209.804688 277.46875 209.542969 Z M 194.007812 313.054688 C 189.132812 314.878906 184.085938 316.28125 179 317.222656 C 178.050781 317.402344 177.140625 316.773438 176.964844 315.828125 C 176.789062 314.875 177.417969 313.964844 178.367188 313.789062 C 183.25 312.882812 188.097656 311.535156 192.785156 309.78125 C 193.6875 309.441406 194.691406 309.898438 195.03125 310.804688 C 195.269531 311.433594 195.113281 312.121094 194.691406 312.589844 C 194.507812 312.789062 194.28125 312.949219 194.007812 313.054688 Z M 265.058594 237.503906 C 264.195312 237.074219 263.84375 236.023438 264.277344 235.160156 C 266.488281 230.742188 268.652344 226.109375 270.710938 221.386719 C 271.097656 220.496094 272.128906 220.09375 273.011719 220.480469 C 273.898438 220.863281 274.300781 221.894531 273.914062 222.777344 C 271.832031 227.558594 269.640625 232.246094 267.40625 236.722656 C 267.332031 236.867188 267.238281 237.003906 267.136719 237.117188 C 266.625 237.683594 265.777344 237.863281 265.058594 237.503906 Z M 249.507812 263.828125 C 248.707031 263.285156 248.496094 262.199219 249.039062 261.398438 C 251.785156 257.347656 254.492188 253.019531 257.085938 248.542969 C 257.566406 247.703125 258.636719 247.421875 259.46875 247.902344 C 260.308594 248.386719 260.59375 249.453125 260.109375 250.289062 C 257.472656 254.839844 254.726562 259.238281 251.933594 263.359375 C 251.886719 263.429688 251.835938 263.492188 251.78125 263.554688 C 251.207031 264.1875 250.238281 264.320312 249.507812 263.828125 Z M 220.914062 297.660156 C 216.753906 300.9375 212.4375 303.878906 208.070312 306.394531 C 207.234375 306.875 206.167969 306.589844 205.683594 305.753906 C 205.203125 304.917969 205.488281 303.851562 206.328125 303.371094 C 210.542969 300.9375 214.722656 298.097656 218.75 294.921875 C 219.507812 294.324219 220.609375 294.453125 221.207031 295.210938 C 221.742188 295.886719 221.691406 296.84375 221.128906 297.460938 C 221.066406 297.53125 220.992188 297.597656 220.914062 297.660156 Z M 236.953125 282.632812 C 235.488281 284.25 233.992188 285.835938 232.492188 287.347656 C 231.8125 288.035156 230.707031 288.039062 230.023438 287.359375 C 229.332031 286.683594 229.371094 285.609375 230.042969 284.921875 C 231.503906 283.449219 233.039062 281.964844 234.46875 280.382812 C 234.46875 280.382812 234.472656 280.378906 234.476562 280.378906 C 236.390625 278.261719 238.25 275.957031 240.109375 273.652344 C 240.71875 272.90625 241.753906 272.726562 242.503906 273.332031 C 243.257812 273.9375 243.382812 275.042969 242.773438 275.796875 C 240.871094 278.152344 238.925781 280.460938 236.960938 282.628906 C 236.957031 282.628906 236.957031 282.632812 236.953125 282.632812 " fill-opacity="1" fill-rule="nonzero"/></g></g></g></g></g><g clip-path="url(#888a4fdd1a)"><g clip-path="url(#97fc873e9d)"><g clip-path="url(#5098a38484)"><g clip-path="url(#cbb19ab401)"><g clip-path="url(#2c04ae2adf)"><path fill="#1d764a" d="M 361.074219 108.507812 C 360.949219 108.234375 360.800781 107.96875 360.636719 107.71875 C 360.613281 107.6875 360.59375 107.660156 360.570312 107.628906 C 360.464844 107.472656 360.355469 107.328125 360.234375 107.1875 C 360.039062 106.960938 359.824219 106.757812 359.605469 106.597656 L 348.605469 98.511719 C 348.613281 98.449219 348.621094 98.382812 348.625 98.316406 L 348.96875 92.578125 C 348.988281 92.164062 348.898438 91.8125 348.753906 91.453125 C 348.371094 90.527344 347.46875 89.886719 346.40625 89.824219 L 345.335938 89.761719 C 344.269531 89.699219 343.28125 90.226562 342.792969 91.105469 C 342.609375 91.445312 342.460938 91.785156 342.4375 92.195312 L 342.332031 93.902344 L 332.691406 86.816406 C 332.699219 86.753906 332.707031 86.695312 332.710938 86.636719 L 333.042969 81.003906 C 333.132812 79.527344 331.996094 78.253906 330.519531 78.167969 L 329.449219 78.101562 C 328.644531 78.058594 327.898438 78.375 327.371094 78.910156 C 327.359375 78.925781 327.34375 78.941406 327.332031 78.953125 C 327.300781 78.984375 327.277344 79.015625 327.25 79.046875 C 327.117188 79.199219 326.996094 79.363281 326.894531 79.539062 C 326.898438 79.542969 326.90625 79.546875 326.910156 79.546875 C 326.738281 79.871094 326.628906 80.234375 326.609375 80.625 L 326.511719 82.269531 L 307.429688 68.246094 L 309.726562 45.859375 C 309.933594 43.765625 309.511719 40.90625 308.675781 38.046875 C 308.671875 38.035156 308.667969 38.019531 308.664062 38.007812 C 308.703125 38.035156 308.726562 38.046875 308.726562 38.046875 C 308.699219 38.003906 308.664062 37.957031 308.636719 37.910156 C 308.371094 37.003906 308.058594 36.101562 307.714844 35.222656 C 306.011719 30.871094 303.460938 27.148438 300.894531 27 C 298.339844 26.847656 295.375 30.234375 293.175781 34.34375 C 292.726562 35.179688 292.308594 36.046875 291.933594 36.921875 C 291.894531 36.96875 291.851562 37.011719 291.8125 37.0625 C 291.8125 37.0625 291.839844 37.050781 291.886719 37.023438 C 291.886719 37.027344 291.886719 37.03125 291.886719 37.03125 C 290.710938 39.785156 289.949219 42.589844 289.90625 44.707031 L 289.554688 67.207031 L 268.957031 78.917969 L 269.054688 77.273438 C 269.078125 76.878906 269.011719 76.503906 268.878906 76.164062 C 268.886719 76.160156 268.894531 76.160156 268.902344 76.160156 C 268.824219 75.972656 268.722656 75.800781 268.609375 75.636719 C 268.585938 75.601562 268.5625 75.5625 268.535156 75.527344 C 268.523438 75.511719 268.511719 75.5 268.5 75.480469 C 268.039062 74.886719 267.335938 74.484375 266.53125 74.4375 L 265.457031 74.375 C 263.984375 74.289062 262.707031 75.421875 262.617188 76.894531 L 262.289062 82.53125 C 262.285156 82.59375 262.285156 82.648438 262.289062 82.710938 L 251.871094 88.628906 L 251.972656 86.921875 C 252 86.511719 251.890625 86.160156 251.746094 85.796875 C 251.367188 84.871094 250.449219 84.230469 249.386719 84.167969 L 248.308594 84.105469 C 247.246094 84.046875 246.273438 84.574219 245.785156 85.449219 C 245.601562 85.789062 245.46875 86.128906 245.441406 86.539062 L 245.105469 92.28125 C 245.097656 92.347656 245.101562 92.414062 245.105469 92.476562 L 233.230469 99.230469 C 231.945312 99.957031 230.847656 101.761719 230.757812 103.238281 L 230.386719 109.566406 C 230.296875 111.042969 231.347656 111.855469 232.746094 111.375 L 289.164062 92.070312 L 288.339844 144.5 L 272.328125 154.828125 C 271.40625 155.421875 270.570312 156.535156 270.144531 157.640625 C 269.980469 158.070312 269.875 158.496094 269.851562 158.890625 C 269.769531 160.300781 270.867188 161.03125 272.296875 160.507812 L 289.292969 154.335938 C 289.464844 155.085938 289.660156 155.832031 289.878906 156.527344 C 290.324219 157.957031 291.609375 158.953125 293.105469 159.039062 C 294.59375 159.125 295.992188 158.289062 296.601562 156.925781 C 296.890625 156.265625 297.171875 155.566406 297.425781 154.84375 L 313.480469 162.910156 C 314.839844 163.597656 316.019531 163 316.105469 161.589844 C 316.125 161.195312 316.070312 160.757812 315.957031 160.3125 C 315.664062 159.164062 314.96875 157.964844 314.121094 157.269531 L 299.535156 145.21875 L 304.890625 92.988281 L 358.65625 118.714844 C 359.988281 119.351562 361.125 118.671875 361.210938 117.195312 L 361.292969 115.800781 L 361.378906 114.378906 L 361.585938 110.863281 C 361.628906 110.125 361.429688 109.28125 361.074219 108.507812 " fill-opacity="1" fill-rule="nonzero"/></g></g></g></g></g></svg>