<svg xmlns="http://www.w3.org/2000/svg" xmlns:xlink="http://www.w3.org/1999/xlink" width="160" zoomAndPan="magnify" viewBox="0 0 120 52.499999" height="70" preserveAspectRatio="xMidYMid meet" version="1.0"><defs><g/><clipPath id="2a019911dd"><path d="M 20 13 L 27 13 L 27 16 L 20 16 Z M 20 13 " clip-rule="nonzero"/></clipPath><clipPath id="6fc82ce6d5"><path d="M 21.9375 5.203125 L 34.6875 11.253906 L 19.722656 42.800781 L 6.96875 36.75 Z M 21.9375 5.203125 " clip-rule="nonzero"/></clipPath><clipPath id="69e5ac4e67"><path d="M 21.9375 5.203125 L 34.6875 11.253906 L 19.722656 42.800781 L 6.96875 36.75 Z M 21.9375 5.203125 " clip-rule="nonzero"/></clipPath><clipPath id="de43fdd666"><path d="M 23 7 L 26 7 L 26 13 L 23 13 Z M 23 7 " clip-rule="nonzero"/></clipPath><clipPath id="10ed675c77"><path d="M 21.9375 5.203125 L 34.6875 11.253906 L 19.722656 42.800781 L 6.96875 36.75 Z M 21.9375 5.203125 " clip-rule="nonzero"/></clipPath><clipPath id="6c8545f411"><path d="M 21.9375 5.203125 L 34.6875 11.253906 L 19.722656 42.800781 L 6.96875 36.75 Z M 21.9375 5.203125 " clip-rule="nonzero"/></clipPath><clipPath id="0a6bd3e1ab"><path d="M 22 6 L 26 6 L 26 14 L 22 14 Z M 22 6 " clip-rule="nonzero"/></clipPath><clipPath id="c4070c9ed9"><path d="M 21.9375 5.203125 L 34.6875 11.253906 L 19.722656 42.800781 L 6.96875 36.75 Z M 21.9375 5.203125 " clip-rule="nonzero"/></clipPath><clipPath id="15533a2709"><path d="M 21.9375 5.203125 L 34.6875 11.253906 L 19.722656 42.800781 L 6.96875 36.75 Z M 21.9375 5.203125 " clip-rule="nonzero"/></clipPath><clipPath id="01b2271be1"><path d="M 20 13 L 25 13 L 25 16 L 20 16 Z M 20 13 " clip-rule="nonzero"/></clipPath><clipPath id="66626a0686"><path d="M 21.9375 5.203125 L 34.6875 11.253906 L 19.722656 42.800781 L 6.96875 36.75 Z M 21.9375 5.203125 " clip-rule="nonzero"/></clipPath><clipPath id="fe8aa78a8a"><path d="M 21.9375 5.203125 L 34.6875 11.253906 L 19.722656 42.800781 L 6.96875 36.75 Z M 21.9375 5.203125 " clip-rule="nonzero"/></clipPath><clipPath id="31976c85ee"><path d="M 11 12 L 33 12 L 33 39 L 11 39 Z M 11 12 " clip-rule="nonzero"/></clipPath><clipPath id="6d8a445bc6"><path d="M 21.9375 5.203125 L 34.6875 11.253906 L 19.722656 42.800781 L 6.96875 36.75 Z M 21.9375 5.203125 " clip-rule="nonzero"/></clipPath><clipPath id="a561803dc6"><path d="M 21.9375 5.203125 L 34.6875 11.253906 L 19.722656 42.800781 L 6.96875 36.75 Z M 21.9375 5.203125 " clip-rule="nonzero"/></clipPath></defs><g clip-path="url(#2a019911dd)"><g clip-path="url(#6fc82ce6d5)"><g clip-path="url(#69e5ac4e67)"><path fill="#ffffff" d="M 24.988281 15.054688 C 24.941406 15.046875 24.890625 15.042969 24.839844 15.039062 C 24.785156 15.03125 24.734375 15.023438 24.679688 15.023438 C 24.625 15.015625 24.570312 15.011719 24.515625 15.007812 C 24.460938 15.007812 24.402344 15.003906 24.34375 15 C 24.285156 15 24.230469 15 24.167969 14.996094 C 24.050781 14.996094 23.933594 15 23.816406 15.007812 C 23.753906 15.011719 23.695312 15.019531 23.636719 15.023438 C 23.578125 15.03125 23.519531 15.039062 23.464844 15.046875 C 23.347656 15.066406 23.238281 15.085938 23.128906 15.113281 C 23.023438 15.140625 22.921875 15.171875 22.828125 15.207031 C 22.828125 15.207031 22.824219 15.210938 22.820312 15.210938 C 22.730469 15.1875 22.636719 15.160156 22.542969 15.136719 C 22.613281 15.105469 22.691406 15.078125 22.773438 15.050781 C 22.875 15.019531 22.980469 14.992188 23.09375 14.96875 C 23.207031 14.949219 23.324219 14.933594 23.445312 14.921875 C 23.503906 14.914062 23.566406 14.910156 23.625 14.90625 C 23.6875 14.90625 23.746094 14.902344 23.808594 14.902344 C 23.929688 14.898438 24.050781 14.902344 24.171875 14.910156 C 24.230469 14.914062 24.289062 14.917969 24.347656 14.921875 C 24.40625 14.929688 24.464844 14.933594 24.519531 14.941406 C 24.578125 14.949219 24.632812 14.957031 24.6875 14.964844 C 24.742188 14.96875 24.792969 14.980469 24.84375 14.988281 C 24.894531 14.996094 24.945312 15.003906 24.992188 15.011719 C 25.042969 15.023438 25.089844 15.03125 25.132812 15.042969 C 25.222656 15.058594 25.300781 15.078125 25.375 15.09375 C 25.410156 15.101562 25.445312 15.109375 25.472656 15.117188 C 25.503906 15.125 25.535156 15.132812 25.558594 15.140625 C 25.660156 15.167969 25.71875 15.183594 25.71875 15.183594 C 25.71875 15.183594 25.660156 15.171875 25.558594 15.148438 C 25.53125 15.144531 25.503906 15.136719 25.472656 15.132812 C 25.441406 15.125 25.40625 15.121094 25.371094 15.113281 C 25.296875 15.101562 25.214844 15.085938 25.128906 15.074219 C 25.082031 15.066406 25.035156 15.0625 24.988281 15.054688 Z M 26.5 15.261719 L 23.183594 14.109375 L 22.371094 13.707031 L 22.152344 13.601562 C 21.597656 13.339844 20.972656 13.761719 21.023438 14.363281 L 21.042969 14.59375 C 21.046875 14.636719 21.015625 14.664062 20.980469 14.679688 C 22.175781 15.144531 24.050781 15.558594 25.019531 15.757812 L 26.5 15.261719 " fill-opacity="1" fill-rule="nonzero"/></g></g></g><g clip-path="url(#de43fdd666)"><g clip-path="url(#10ed675c77)"><g clip-path="url(#6c8545f411)"><path fill="#ffffff" d="M 23.675781 8.007812 C 23.925781 8.519531 24.078125 8.882812 24.164062 9.101562 C 24.246094 9.304688 24.238281 9.535156 24.140625 9.730469 L 23.226562 11.625 L 23.925781 12.464844 L 24.933594 10.613281 C 24.9375 10.605469 25.445312 9.6875 25.3125 8.355469 C 25.261719 7.8125 25.074219 7.421875 24.769531 7.230469 C 24.542969 7.085938 24.328125 7.101562 24.324219 7.101562 C 24.316406 7.101562 23.808594 7.105469 23.628906 7.386719 C 23.535156 7.539062 23.550781 7.75 23.675781 8.007812 " fill-opacity="1" fill-rule="nonzero"/></g></g></g><g clip-path="url(#0a6bd3e1ab)"><g clip-path="url(#c4070c9ed9)"><g clip-path="url(#15533a2709)"><path fill="#ffffff" d="M 23.566406 7.351562 C 23.765625 7.039062 24.28125 7.03125 24.320312 7.03125 C 24.339844 7.027344 24.507812 7.019531 24.707031 7.113281 C 24.769531 7.144531 24.839844 7.183594 24.902344 7.238281 C 25.171875 7.460938 25.335938 7.835938 25.386719 8.347656 C 25.519531 9.703125 25.003906 10.640625 24.996094 10.648438 L 23.9375 12.589844 L 23.144531 11.632812 L 24.078125 9.699219 C 24.164062 9.519531 24.171875 9.3125 24.097656 9.125 C 24.011719 8.910156 23.859375 8.546875 23.609375 8.039062 C 23.472656 7.753906 23.457031 7.523438 23.566406 7.351562 Z M 23.699219 8.972656 C 23.84375 9.136719 23.875 9.367188 23.78125 9.5625 L 22.671875 11.898438 C 22.695312 11.917969 22.71875 11.9375 22.746094 11.957031 C 22.785156 11.992188 22.828125 12.027344 22.871094 12.070312 C 22.914062 12.109375 22.957031 12.152344 23.003906 12.195312 C 23.050781 12.242188 23.09375 12.292969 23.140625 12.339844 C 23.183594 12.390625 23.226562 12.445312 23.269531 12.5 C 23.292969 12.527344 23.3125 12.554688 23.332031 12.582031 C 23.351562 12.609375 23.371094 12.636719 23.386719 12.667969 C 23.40625 12.695312 23.425781 12.722656 23.441406 12.753906 C 23.457031 12.78125 23.472656 12.808594 23.484375 12.839844 C 23.492188 12.855469 23.5 12.867188 23.507812 12.882812 C 23.511719 12.898438 23.519531 12.910156 23.523438 12.925781 C 23.539062 12.953125 23.546875 12.980469 23.554688 13.011719 C 23.574219 13.066406 23.585938 13.121094 23.597656 13.167969 C 23.601562 13.195312 23.601562 13.21875 23.605469 13.242188 C 23.609375 13.265625 23.609375 13.285156 23.609375 13.308594 C 23.609375 13.347656 23.605469 13.382812 23.601562 13.414062 C 23.597656 13.441406 23.589844 13.464844 23.589844 13.480469 C 23.585938 13.492188 23.582031 13.5 23.582031 13.5 C 23.582031 13.5 23.585938 13.492188 23.585938 13.476562 C 23.585938 13.460938 23.589844 13.441406 23.59375 13.410156 C 23.589844 13.382812 23.59375 13.347656 23.585938 13.308594 C 23.585938 13.289062 23.582031 13.265625 23.578125 13.246094 C 23.574219 13.222656 23.570312 13.199219 23.5625 13.175781 C 23.550781 13.128906 23.53125 13.078125 23.507812 13.027344 C 23.496094 13 23.484375 12.976562 23.472656 12.949219 C 23.464844 12.9375 23.457031 12.921875 23.449219 12.910156 C 23.441406 12.898438 23.433594 12.882812 23.425781 12.871094 C 23.410156 12.84375 23.390625 12.820312 23.375 12.792969 C 23.355469 12.765625 23.335938 12.742188 23.316406 12.714844 C 23.296875 12.691406 23.273438 12.667969 23.253906 12.640625 C 23.230469 12.617188 23.210938 12.59375 23.1875 12.566406 C 23.140625 12.519531 23.09375 12.472656 23.046875 12.429688 C 23 12.386719 22.953125 12.34375 22.902344 12.304688 C 22.855469 12.265625 22.808594 12.226562 22.761719 12.195312 C 22.71875 12.160156 22.675781 12.128906 22.632812 12.101562 C 22.621094 12.089844 22.605469 12.082031 22.589844 12.070312 L 22.519531 12.21875 C 22.4375 12.394531 22.40625 12.59375 22.433594 12.789062 L 22.511719 13.328125 C 22.515625 13.371094 22.511719 13.414062 22.492188 13.449219 C 22.464844 13.503906 22.488281 13.566406 22.542969 13.59375 L 23.164062 13.890625 C 23.21875 13.914062 23.285156 13.890625 23.308594 13.839844 L 23.3125 13.835938 C 23.324219 13.808594 23.34375 13.785156 23.367188 13.765625 L 23.753906 13.4375 C 23.851562 13.351562 23.929688 13.25 23.992188 13.136719 L 25.300781 10.636719 C 25.507812 10.242188 25.621094 9.804688 25.628906 9.359375 L 25.664062 7.625 C 25.671875 7.203125 25.363281 6.828125 24.9375 6.753906 C 24.226562 6.628906 23.238281 6.574219 23.078125 7.203125 C 22.894531 7.898438 23.386719 8.605469 23.699219 8.972656 " fill-opacity="1" fill-rule="nonzero"/></g></g></g><g clip-path="url(#01b2271be1)"><g clip-path="url(#66626a0686)"><g clip-path="url(#fe8aa78a8a)"><path fill="#ffffff" d="M 20.824219 14.675781 C 20.398438 14.507812 20.390625 14.105469 20.492188 13.667969 C 20.363281 13.894531 20.296875 14.183594 20.273438 14.519531 C 20.664062 14.855469 21.085938 15.09375 21.425781 15.257812 C 21.855469 15.460938 22.179688 15.546875 22.179688 15.546875 L 22.1875 15.550781 C 22.199219 15.554688 23.121094 15.824219 24.5 15.929688 L 24.964844 15.773438 C 22.164062 15.320312 21.207031 14.867188 20.925781 14.691406 C 20.890625 14.695312 20.855469 14.6875 20.824219 14.675781 " fill-opacity="1" fill-rule="nonzero"/></g></g></g><g clip-path="url(#31976c85ee)"><g clip-path="url(#6d8a445bc6)"><g clip-path="url(#a561803dc6)"><path fill="#ffffff" d="M 32.613281 13.867188 C 28.015625 17.5 22.132812 15.734375 22.132812 15.734375 C 22.132812 15.734375 20.382812 15.269531 19.4375 13.875 C 18.488281 12.476562 20.101562 12.472656 20.101562 12.472656 C 19.40625 11.84375 18.976562 12.085938 18.722656 12.441406 C 18.496094 12.761719 18.425781 13.164062 18.507812 13.550781 L 18.8125 14.945312 C 18.015625 15.789062 18.769531 17.636719 18.769531 17.636719 C 19.199219 17.839844 19.394531 18.335938 19.214844 18.765625 L 11.203125 37.738281 C 11.128906 37.914062 11.121094 38.109375 11.179688 38.292969 L 11.214844 38.414062 C 11.339844 38.824219 11.816406 39.023438 12.191406 38.820312 C 12.347656 38.742188 12.46875 38.613281 12.542969 38.457031 L 21.425781 20.101562 C 21.8125 19.308594 22.6875 18.871094 23.570312 19.039062 L 25.378906 19.378906 C 31.835938 17.257812 32.613281 13.867188 32.613281 13.867188 " fill-opacity="1" fill-rule="nonzero"/></g></g></g><g fill="#ffffff" fill-opacity="1"><g transform="translate(36.280864, 21.532564)"><g><path d="M 3.640625 -2.921875 C 3.117188 -1.660156 2.722656 -0.707031 2.453125 -0.0625 L 2.296875 -0.015625 C 2.253906 -0.0546875 2.175781 -0.1875 2.0625 -0.40625 C 1.257812 -2.1875 0.757812 -3.265625 0.5625 -3.640625 C 0.488281 -3.734375 0.398438 -3.789062 0.296875 -3.8125 L -0.21875 -3.8125 L -0.25 -3.828125 L -0.25 -4.171875 L -0.21875 -4.1875 L 0.90625 -4.1875 C 1.1875 -4.1875 1.410156 -3.941406 1.578125 -3.453125 L 2.5 -1.40625 C 2.5625 -1.507812 2.851562 -2.203125 3.375 -3.484375 C 3.34375 -3.535156 3.316406 -3.582031 3.296875 -3.625 C 3.222656 -3.71875 3.125 -3.773438 3 -3.796875 L 2.53125 -3.796875 L 2.515625 -3.8125 L 2.515625 -4.171875 L 3.65625 -4.171875 C 3.925781 -4.171875 4.148438 -3.925781 4.328125 -3.4375 L 5.234375 -1.390625 C 5.265625 -1.410156 5.566406 -2.125 6.140625 -3.53125 C 6.179688 -3.632812 6.203125 -3.710938 6.203125 -3.765625 L 6.203125 -3.78125 C 6.203125 -3.882812 6.140625 -3.953125 6.015625 -3.984375 L 5.734375 -3.984375 L 5.703125 -4.015625 L 5.703125 -4.15625 L 5.734375 -4.171875 L 6.890625 -4.171875 C 6.097656 -2.191406 5.53125 -0.816406 5.1875 -0.046875 L 5.09375 0 C 5.019531 -0.0078125 4.914062 -0.144531 4.78125 -0.40625 C 4.28125 -1.519531 3.898438 -2.359375 3.640625 -2.921875 Z M 3.640625 -2.921875 "/></g></g></g><g fill="#ffffff" fill-opacity="1"><g transform="translate(42.930952, 21.532564)"><g><path d="M 3.59375 -4.875 L 3.59375 -4.6875 C 3.59375 -4.34375 3.460938 -4.101562 3.203125 -3.96875 L 3.125 -3.953125 C 3.269531 -3.867188 3.453125 -3.722656 3.671875 -3.515625 C 4.015625 -3.085938 4.1875 -2.613281 4.1875 -2.09375 C 4.1875 -1.539062 3.988281 -1.050781 3.59375 -0.625 C 3.164062 -0.207031 2.671875 0 2.109375 0 C 1.460938 0 0.910156 -0.273438 0.453125 -0.828125 C 0.171875 -1.222656 0.03125 -1.640625 0.03125 -2.078125 L 0.03125 -2.125 C 0.03125 -2.75 0.285156 -3.285156 0.796875 -3.734375 C 1.191406 -4.046875 1.625 -4.203125 2.09375 -4.203125 L 2.328125 -4.203125 C 2.679688 -4.273438 2.957031 -4.351562 3.15625 -4.4375 C 3.289062 -4.507812 3.394531 -4.582031 3.46875 -4.65625 C 3.53125 -4.726562 3.566406 -4.800781 3.578125 -4.875 Z M 1.046875 -2.09375 C 1.046875 -1.53125 1.222656 -1.070312 1.578125 -0.71875 C 1.753906 -0.570312 1.941406 -0.5 2.140625 -0.5 L 2.15625 -0.5 C 2.519531 -0.5 2.820312 -0.738281 3.0625 -1.21875 C 3.175781 -1.507812 3.234375 -1.78125 3.234375 -2.03125 L 3.234375 -2.15625 C 3.234375 -2.59375 3.097656 -2.992188 2.828125 -3.359375 C 2.609375 -3.585938 2.382812 -3.703125 2.15625 -3.703125 L 2.140625 -3.703125 C 1.773438 -3.703125 1.472656 -3.46875 1.234375 -3 C 1.109375 -2.726562 1.046875 -2.425781 1.046875 -2.09375 Z M 1.046875 -2.09375 "/></g></g></g><g fill="#ffffff" fill-opacity="1"><g transform="translate(47.11649, 21.532564)"><g><path d="M 3.015625 -4.25 L 3.09375 -4.25 C 3.519531 -4.25 3.890625 -4.09375 4.203125 -3.78125 C 4.503906 -3.445312 4.65625 -3.0625 4.65625 -2.625 L 4.65625 -1.078125 C 4.65625 -0.640625 4.738281 -0.378906 4.90625 -0.296875 C 4.90625 -0.285156 4.96875 -0.269531 5.09375 -0.25 L 5.578125 -0.25 L 5.59375 -0.234375 L 5.59375 0 L 5.578125 0.015625 L 4.421875 0.015625 C 4.109375 0.015625 3.90625 -0.21875 3.8125 -0.6875 C 3.789062 -0.738281 3.78125 -0.796875 3.78125 -0.859375 L 3.78125 -2.515625 C 3.78125 -3.054688 3.585938 -3.410156 3.203125 -3.578125 C 3.046875 -3.628906 2.878906 -3.65625 2.703125 -3.65625 C 2.378906 -3.644531 2.0625 -3.484375 1.75 -3.171875 C 1.632812 -3.035156 1.578125 -2.894531 1.578125 -2.75 L 1.578125 0.015625 L 0.703125 0.015625 L 0.703125 -3.234375 C 0.703125 -3.503906 0.59375 -3.691406 0.375 -3.796875 L 0.203125 -3.8125 L -0.1875 -3.8125 L -0.203125 -3.828125 L -0.203125 -4.1875 L -0.1875 -4.203125 L 0.875 -4.203125 C 1.144531 -4.203125 1.351562 -4.054688 1.5 -3.765625 L 1.53125 -3.625 C 1.988281 -4.03125 2.484375 -4.238281 3.015625 -4.25 Z M 3.015625 -4.25 "/></g></g></g><g fill="#ffffff" fill-opacity="1"><g transform="translate(52.386994, 21.532564)"><g><path d="M 3.515625 -3.71875 C 3.078125 -3.894531 2.734375 -3.984375 2.484375 -3.984375 C 1.578125 -3.984375 1.125 -3.382812 1.125 -2.1875 C 1.125 -1.644531 1.222656 -1.21875 1.421875 -0.90625 C 1.640625 -0.5625 1.957031 -0.390625 2.375 -0.390625 C 2.84375 -0.390625 3.222656 -0.5625 3.515625 -0.90625 Z M 4.5 -0.984375 C 4.570312 -0.628906 4.753906 -0.378906 5.046875 -0.234375 C 5.117188 -0.210938 5.171875 -0.203125 5.203125 -0.203125 L 5.359375 -0.203125 L 5.375 -0.1875 L 5.375 0.015625 L 5.359375 0.03125 L 4.25 0.03125 C 3.914062 0.03125 3.707031 -0.109375 3.625 -0.390625 L 3.609375 -0.453125 L 3.609375 -0.484375 L 3.578125 -0.515625 L 3.515625 -0.515625 C 3.203125 -0.191406 2.710938 -0.03125 2.046875 -0.03125 C 1.421875 -0.03125 0.929688 -0.242188 0.578125 -0.671875 C 0.253906 -1.054688 0.09375 -1.5625 0.09375 -2.1875 C 0.09375 -2.8125 0.257812 -3.316406 0.59375 -3.703125 C 0.96875 -4.128906 1.488281 -4.34375 2.15625 -4.34375 C 2.625 -4.34375 3.078125 -4.253906 3.515625 -4.078125 L 3.515625 -4.875 C 3.515625 -5.164062 3.46875 -5.375 3.375 -5.5 C 3.269531 -5.664062 3.066406 -5.75 2.765625 -5.75 L 2.546875 -5.75 L 2.546875 -5.921875 L 3.515625 -5.921875 C 3.898438 -5.921875 4.160156 -5.851562 4.296875 -5.71875 C 4.429688 -5.582031 4.5 -5.300781 4.5 -4.875 Z M 4.5 -0.984375 "/></g></g></g><g fill="#ffffff" fill-opacity="1"><g transform="translate(57.418987, 21.532564)"><g><path d="M 1.890625 -4.359375 L 1.953125 -4.359375 C 2.648438 -4.359375 3.203125 -4.09375 3.609375 -3.5625 C 3.773438 -3.300781 3.859375 -2.96875 3.859375 -2.5625 C 3.859375 -1.914062 3.617188 -1.425781 3.140625 -1.09375 C 2.859375 -0.90625 2.503906 -0.8125 2.078125 -0.8125 C 1.828125 -0.8125 1.570312 -0.847656 1.3125 -0.921875 L 1.3125 -0.90625 C 1.445312 -0.644531 1.703125 -0.445312 2.078125 -0.3125 C 2.203125 -0.269531 2.304688 -0.25 2.390625 -0.25 L 3.234375 -0.25 L 3.25 -0.234375 L 3.25 -0.015625 L 3.234375 0 L 1.953125 0 C 1.617188 0 1.238281 -0.117188 0.8125 -0.359375 C 0.632812 -0.484375 0.5 -0.625 0.40625 -0.78125 C 0.15625 -1.238281 0.03125 -1.8125 0.03125 -2.5 L 0.03125 -2.65625 C 0.03125 -3.070312 0.15625 -3.410156 0.40625 -3.671875 C 0.5 -3.773438 0.59375 -3.859375 0.6875 -3.921875 C 1.09375 -4.210938 1.492188 -4.359375 1.890625 -4.359375 Z M 0.984375 -2.59375 C 0.984375 -2.0625 1.164062 -1.648438 1.53125 -1.359375 C 1.6875 -1.273438 1.828125 -1.234375 1.953125 -1.234375 C 2.285156 -1.234375 2.5625 -1.453125 2.78125 -1.890625 C 2.875 -2.109375 2.921875 -2.34375 2.921875 -2.59375 C 2.921875 -3.070312 2.757812 -3.460938 2.4375 -3.765625 C 2.28125 -3.890625 2.117188 -3.953125 1.953125 -3.953125 C 1.617188 -3.953125 1.347656 -3.738281 1.140625 -3.3125 C 1.035156 -3.082031 0.984375 -2.84375 0.984375 -2.59375 Z M 0.984375 -2.59375 "/></g></g></g><g fill="#ffffff" fill-opacity="1"><g transform="translate(61.366016, 21.532564)"><g><path d="M 2.65625 -4.109375 L 2.734375 -4.109375 C 2.785156 -4.109375 2.832031 -4.039062 2.875 -3.90625 L 2.875 -3.875 C 2.863281 -3.863281 2.804688 -3.835938 2.703125 -3.796875 C 2.628906 -3.765625 2.5625 -3.734375 2.5 -3.703125 C 2.414062 -3.671875 2.289062 -3.597656 2.125 -3.484375 C 2.007812 -3.421875 1.898438 -3.328125 1.796875 -3.203125 C 1.691406 -3.066406 1.640625 -2.9375 1.640625 -2.8125 L 1.640625 0 L 0.75 0 L 0.75 -3.140625 C 0.75 -3.472656 0.644531 -3.679688 0.4375 -3.765625 C 0.375 -3.785156 0.3125 -3.796875 0.25 -3.796875 L -0.15625 -3.796875 L -0.15625 -4.1875 L 0.90625 -4.1875 C 1.144531 -4.1875 1.335938 -4.078125 1.484375 -3.859375 C 1.546875 -3.734375 1.578125 -3.625 1.578125 -3.53125 L 1.578125 -3.515625 C 1.816406 -3.703125 2.070312 -3.863281 2.34375 -4 C 2.46875 -4.0625 2.570312 -4.097656 2.65625 -4.109375 Z M 2.65625 -4.109375 "/></g></g></g><g fill="#ffffff" fill-opacity="1"><g transform="translate(64.097135, 21.532564)"><g><path d="M 1.546875 -0.53125 C 1.535156 -0.15625 1.332031 0.0234375 0.9375 0.015625 L -0.046875 0 L -0.0625 -0.015625 L -0.0625 -0.234375 L -0.046875 -0.25 L 0.375 -0.25 C 0.476562 -0.269531 0.53125 -0.285156 0.53125 -0.296875 C 0.675781 -0.378906 0.753906 -0.640625 0.765625 -1.078125 L 0.78125 -2.625 L 0.78125 -3.8125 L 0.375 -3.8125 L 0.375 -4.140625 L 0.78125 -4.140625 L 0.78125 -4.390625 C 0.78125 -5.328125 1.375 -5.835938 2.5625 -5.921875 L 2.5 -5.390625 C 1.863281 -5.441406 1.546875 -5.109375 1.546875 -4.390625 L 1.546875 -4.140625 L 2.296875 -4.140625 L 2.296875 -3.8125 L 1.546875 -3.8125 Z M 1.546875 -0.53125 "/></g></g></g><g fill="#ffffff" fill-opacity="1"><g transform="translate(66.664579, 21.532564)"><g><path d="M 2.421875 0.015625 L 2.34375 0.015625 C 1.925781 0.015625 1.5625 -0.140625 1.25 -0.453125 C 0.945312 -0.785156 0.796875 -1.171875 0.796875 -1.609375 L 0.796875 -3.140625 C 0.796875 -3.578125 0.710938 -3.832031 0.546875 -3.90625 C 0.546875 -3.925781 0.484375 -3.945312 0.359375 -3.96875 L -0.125 -3.96875 L -0.140625 -3.984375 L -0.140625 -4.203125 L -0.125 -4.21875 L 1.015625 -4.21875 C 1.335938 -4.21875 1.546875 -3.988281 1.640625 -3.53125 C 1.648438 -3.476562 1.65625 -3.421875 1.65625 -3.359375 L 1.65625 -1.71875 C 1.65625 -1.175781 1.847656 -0.828125 2.234375 -0.671875 C 2.398438 -0.609375 2.566406 -0.578125 2.734375 -0.578125 C 2.984375 -0.578125 3.257812 -0.734375 3.5625 -1.046875 C 3.675781 -1.179688 3.734375 -1.320312 3.734375 -1.46875 L 3.734375 -4.203125 L 3.75 -4.21875 L 4.59375 -4.21875 L 4.609375 -4.203125 L 4.609375 -0.984375 C 4.609375 -0.710938 4.71875 -0.53125 4.9375 -0.4375 L 5.109375 -0.40625 L 5.5 -0.40625 L 5.515625 -0.390625 L 5.515625 -0.03125 L 5.5 -0.015625 L 4.4375 -0.015625 C 4.175781 -0.015625 3.972656 -0.160156 3.828125 -0.453125 L 3.78125 -0.609375 C 3.320312 -0.191406 2.867188 0.015625 2.421875 0.015625 Z M 2.421875 0.015625 "/></g></g></g><g fill="#ffffff" fill-opacity="1"><g transform="translate(72.103439, 21.532564)"><g><path d="M 0.578125 -4.734375 C 0.578125 -4.890625 0.539062 -5.03125 0.46875 -5.15625 C 0.382812 -5.257812 0.222656 -5.296875 -0.015625 -5.265625 L -0.1875 -5.265625 L -0.1875 -5.59375 L 0.578125 -5.59375 C 0.804688 -5.601562 0.992188 -5.539062 1.140625 -5.40625 C 1.273438 -5.3125 1.34375 -5.085938 1.34375 -4.734375 L 1.34375 -1.078125 C 1.34375 -0.648438 1.414062 -0.394531 1.5625 -0.3125 C 1.5625 -0.289062 1.617188 -0.269531 1.734375 -0.25 L 2.15625 -0.25 L 2.171875 -0.234375 L 2.171875 -0.015625 L 2.15625 0 L 1.140625 0 C 0.859375 0 0.675781 -0.226562 0.59375 -0.6875 C 0.582031 -0.738281 0.578125 -0.796875 0.578125 -0.859375 Z M 0.578125 -4.734375 "/></g></g></g><g fill="#ffffff" fill-opacity="1"><g transform="translate(36.280864, 31.099247)"><g><path d="M 1.265625 -5.765625 C 1.265625 -6.316406 1.203125 -6.710938 1.078125 -6.953125 C 0.898438 -7.234375 0.585938 -7.375 0.140625 -7.375 L -0.1875 -7.375 L -0.1875 -7.703125 L 1.265625 -7.703125 C 1.859375 -7.703125 2.242188 -7.582031 2.421875 -7.34375 C 2.617188 -7.09375 2.71875 -6.566406 2.71875 -5.765625 L 2.71875 -0.515625 C 2.71875 0.734375 2.515625 1.613281 2.109375 2.125 C 1.671875 2.675781 0.878906 2.953125 -0.265625 2.953125 L -0.265625 2.640625 C 0.753906 2.640625 1.265625 1.585938 1.265625 -0.515625 Z M 1.265625 -5.765625 "/></g></g></g><g fill="#ffffff" fill-opacity="1"><g transform="translate(39.378234, 31.099247)"><g><path d="M 6.671875 -9.078125 L 6.6875 -9.0625 L 6.703125 -8.734375 C 6.703125 -8.078125 6.453125 -7.632812 5.953125 -7.40625 L 5.8125 -7.34375 C 6.082031 -7.195312 6.421875 -6.925781 6.828125 -6.53125 C 7.484375 -5.738281 7.8125 -4.863281 7.8125 -3.90625 C 7.8125 -2.882812 7.429688 -1.96875 6.671875 -1.15625 C 5.878906 -0.382812 4.960938 0 3.921875 0 C 2.722656 0 1.703125 -0.507812 0.859375 -1.53125 C 0.328125 -2.269531 0.0625 -3.046875 0.0625 -3.859375 L 0.0625 -3.96875 C 0.0625 -5.113281 0.535156 -6.109375 1.484375 -6.953125 C 2.222656 -7.535156 3.03125 -7.828125 3.90625 -7.828125 L 4.328125 -7.8125 C 4.984375 -7.957031 5.5 -8.109375 5.875 -8.265625 C 6.132812 -8.398438 6.328125 -8.535156 6.453125 -8.671875 C 6.578125 -8.796875 6.648438 -8.929688 6.671875 -9.078125 Z M 1.9375 -3.90625 C 1.9375 -2.851562 2.265625 -2 2.921875 -1.34375 C 3.265625 -1.0625 3.625 -0.921875 4 -0.921875 C 4.675781 -0.921875 5.242188 -1.375 5.703125 -2.28125 C 5.921875 -2.8125 6.03125 -3.3125 6.03125 -3.78125 L 6.03125 -4.015625 C 6.03125 -4.835938 5.773438 -5.578125 5.265625 -6.234375 C 4.867188 -6.671875 4.445312 -6.890625 4 -6.890625 C 3.300781 -6.890625 2.738281 -6.457031 2.3125 -5.59375 C 2.0625 -5.070312 1.9375 -4.507812 1.9375 -3.90625 Z M 1.9375 -3.90625 "/></g></g></g><g fill="#ffffff" fill-opacity="1"><g transform="translate(47.165168, 31.099247)"><g><path d="M 3.25 -1.34375 C 2.25 -0.945312 1.75 -0.25 1.75 0.75 C 1.75 2.09375 2.515625 2.765625 4.046875 2.765625 C 5.554688 2.765625 6.3125 2.09375 6.3125 0.75 C 6.3125 -0.425781 5.609375 -1.097656 4.203125 -1.265625 Z M 5.28125 -7.359375 C 4.96875 -7.679688 4.554688 -7.84375 4.046875 -7.84375 C 2.867188 -7.84375 2.28125 -7.171875 2.28125 -5.828125 C 2.28125 -4.484375 2.867188 -3.8125 4.046875 -3.8125 C 5.203125 -3.8125 5.78125 -4.484375 5.78125 -5.828125 C 5.78125 -6.492188 5.613281 -7.003906 5.28125 -7.359375 Z M 4.265625 -8.390625 C 5.816406 -8.742188 6.59375 -9.175781 6.59375 -9.6875 L 6.65625 -9.6875 L 6.671875 -9.390625 C 6.671875 -8.679688 6.410156 -8.1875 5.890625 -7.90625 L 6.140625 -7.84375 L 6.140625 -7.75 C 6.960938 -7.34375 7.375 -6.703125 7.375 -5.828125 C 7.375 -4.078125 6.265625 -3.203125 4.046875 -3.203125 C 2.804688 -3.203125 2.1875 -2.992188 2.1875 -2.578125 C 2.1875 -2.171875 2.804688 -1.96875 4.046875 -1.96875 C 5.171875 -1.96875 6.070312 -1.753906 6.75 -1.328125 C 7.507812 -0.859375 7.890625 -0.164062 7.890625 0.75 C 7.890625 2.5625 6.609375 3.46875 4.046875 3.46875 C 1.460938 3.46875 0.171875 2.5625 0.171875 0.75 C 0.171875 -0.34375 0.8125 -1.101562 2.09375 -1.53125 C 1.625 -1.757812 1.390625 -2.109375 1.390625 -2.578125 C 1.390625 -2.953125 1.597656 -3.273438 2.015625 -3.546875 C 1.140625 -3.984375 0.703125 -4.742188 0.703125 -5.828125 C 0.703125 -7.578125 1.816406 -8.453125 4.046875 -8.453125 Z M 4.265625 -8.390625 "/></g></g></g><g fill="#ffffff" fill-opacity="1"><g transform="translate(55.430622, 31.099247)"><g><path d="M 1.265625 -5.765625 C 1.265625 -6.316406 1.203125 -6.710938 1.078125 -6.953125 C 0.898438 -7.234375 0.585938 -7.375 0.140625 -7.375 L -0.1875 -7.375 L -0.1875 -7.703125 L 1.265625 -7.703125 C 1.859375 -7.703125 2.242188 -7.582031 2.421875 -7.34375 C 2.617188 -7.09375 2.71875 -6.566406 2.71875 -5.765625 L 2.71875 -0.515625 C 2.71875 0.734375 2.515625 1.613281 2.109375 2.125 C 1.671875 2.675781 0.878906 2.953125 -0.265625 2.953125 L -0.265625 2.640625 C 0.753906 2.640625 1.265625 1.585938 1.265625 -0.515625 Z M 1.265625 -5.765625 "/></g></g></g><g fill="#ffffff" fill-opacity="1"><g transform="translate(58.527992, 31.099247)"><g><path d="M 1.765625 -7.9375 L 3.796875 -7.9375 C 4.085938 -7.9375 4.425781 -7.859375 4.8125 -7.703125 C 5.382812 -7.453125 5.789062 -7.054688 6.03125 -6.515625 C 6.09375 -6.359375 6.140625 -6.203125 6.171875 -6.046875 C 6.222656 -5.796875 6.25 -5.601562 6.25 -5.46875 L 6.265625 -5.234375 C 7.203125 -5.429688 7.757812 -5.554688 7.9375 -5.609375 C 8.289062 -5.734375 8.523438 -5.914062 8.640625 -6.15625 C 8.691406 -6.28125 8.71875 -6.390625 8.71875 -6.484375 L 8.71875 -6.515625 L 8.734375 -6.515625 C 8.796875 -6.347656 8.828125 -6.179688 8.828125 -6.015625 C 8.828125 -5.585938 8.597656 -5.21875 8.140625 -4.90625 C 8.003906 -4.8125 7.851562 -4.738281 7.6875 -4.6875 C 7.550781 -4.644531 7.367188 -4.601562 7.140625 -4.5625 C 6.828125 -4.507812 6.535156 -4.457031 6.265625 -4.40625 L 6.265625 -1.65625 C 6.265625 -1.40625 6.304688 -1.15625 6.390625 -0.90625 C 6.429688 -0.789062 6.5 -0.6875 6.59375 -0.59375 C 6.726562 -0.488281 6.859375 -0.4375 6.984375 -0.4375 L 7.390625 -0.4375 L 7.40625 -0.421875 L 7.40625 0.03125 L 6.015625 0.03125 C 5.484375 0.03125 5.113281 -0.253906 4.90625 -0.828125 C 4.863281 -0.910156 4.820312 -1.050781 4.78125 -1.25 L 4.765625 -1.34375 C 3.878906 -0.457031 2.972656 -0.015625 2.046875 -0.015625 C 1.710938 -0.015625 1.375 -0.078125 1.03125 -0.203125 C 0.914062 -0.265625 0.796875 -0.335938 0.671875 -0.421875 C 0.234375 -0.785156 0.015625 -1.21875 0.015625 -1.71875 L 0.015625 -1.75 C 0.015625 -2.113281 0.132812 -2.5 0.375 -2.90625 C 0.570312 -3.207031 0.863281 -3.488281 1.25 -3.75 C 1.488281 -3.90625 1.742188 -4.050781 2.015625 -4.1875 C 2.347656 -4.351562 2.753906 -4.507812 3.234375 -4.65625 C 3.597656 -4.757812 3.867188 -4.8125 4.046875 -4.8125 C 4.242188 -4.832031 4.472656 -4.867188 4.734375 -4.921875 L 4.734375 -5.53125 C 4.734375 -5.8125 4.664062 -6.128906 4.53125 -6.484375 C 4.488281 -6.578125 4.425781 -6.6875 4.34375 -6.8125 C 4.238281 -6.957031 4.09375 -7.054688 3.90625 -7.109375 C 3.875 -7.128906 3.722656 -7.140625 3.453125 -7.140625 L 1.765625 -7.203125 L 1.75 -7.203125 L 1.75 -7.9375 Z M 1.75 -2.171875 L 1.75 -2.15625 C 1.75 -1.863281 1.84375 -1.582031 2.03125 -1.3125 C 2.21875 -1.082031 2.46875 -0.96875 2.78125 -0.96875 C 3.03125 -0.96875 3.289062 -1.046875 3.5625 -1.203125 L 4.734375 -2.078125 L 4.734375 -4.171875 C 4.242188 -4.085938 3.8125 -3.976562 3.4375 -3.84375 C 2.957031 -3.6875 2.628906 -3.535156 2.453125 -3.390625 C 2.253906 -3.242188 2.097656 -3.085938 1.984375 -2.921875 C 1.828125 -2.671875 1.75 -2.421875 1.75 -2.171875 Z M 1.75 -2.171875 "/></g></g></g></svg>