<svg xmlns="http://www.w3.org/2000/svg" xmlns:xlink="http://www.w3.org/1999/xlink" width="160" zoomAndPan="magnify" viewBox="0 0 120 37.5" height="50" preserveAspectRatio="xMidYMid meet" version="1.0"><defs><g/><clipPath id="aeeabfb902"><path d="M 12 8 L 19 8 L 19 11 L 12 11 Z M 12 8 " clip-rule="nonzero"/></clipPath><clipPath id="12887d6c2d"><path d="M 13.820312 0 L 26.566406 5.9375 L 11.261719 38.8125 L -1.488281 32.878906 Z M 13.820312 0 " clip-rule="nonzero"/></clipPath><clipPath id="8bae1ea7fc"><path d="M 13.820312 0 L 26.566406 5.9375 L 11.261719 38.8125 L -1.488281 32.878906 Z M 13.820312 0 " clip-rule="nonzero"/></clipPath><clipPath id="238199b8a2"><path d="M 13.820312 0 L 26.566406 5.9375 L 11.261719 38.8125 L -1.488281 32.878906 Z M 13.820312 0 " clip-rule="nonzero"/></clipPath><clipPath id="2bc8595b50"><path d="M 15 1 L 18 1 L 18 8 L 15 8 Z M 15 1 " clip-rule="nonzero"/></clipPath><clipPath id="83f4fdddc5"><path d="M 13.820312 0 L 26.566406 5.9375 L 11.261719 38.8125 L -1.488281 32.878906 Z M 13.820312 0 " clip-rule="nonzero"/></clipPath><clipPath id="666f447aa7"><path d="M 13.820312 0 L 26.566406 5.9375 L 11.261719 38.8125 L -1.488281 32.878906 Z M 13.820312 0 " clip-rule="nonzero"/></clipPath><clipPath id="713c2d6d57"><path d="M 13.820312 0 L 26.566406 5.9375 L 11.261719 38.8125 L -1.488281 32.878906 Z M 13.820312 0 " clip-rule="nonzero"/></clipPath><clipPath id="c964d92dbd"><path d="M 14 1 L 18 1 L 18 9 L 14 9 Z M 14 1 " clip-rule="nonzero"/></clipPath><clipPath id="1d78e293b2"><path d="M 13.820312 0 L 26.566406 5.9375 L 11.261719 38.8125 L -1.488281 32.878906 Z M 13.820312 0 " clip-rule="nonzero"/></clipPath><clipPath id="27911765ab"><path d="M 13.820312 0 L 26.566406 5.9375 L 11.261719 38.8125 L -1.488281 32.878906 Z M 13.820312 0 " clip-rule="nonzero"/></clipPath><clipPath id="49dd3c7da4"><path d="M 13.820312 0 L 26.566406 5.9375 L 11.261719 38.8125 L -1.488281 32.878906 Z M 13.820312 0 " clip-rule="nonzero"/></clipPath><clipPath id="17eaf497fb"><path d="M 12 8 L 17 8 L 17 11 L 12 11 Z M 12 8 " clip-rule="nonzero"/></clipPath><clipPath id="6f74f8591a"><path d="M 13.820312 0 L 26.566406 5.9375 L 11.261719 38.8125 L -1.488281 32.878906 Z M 13.820312 0 " clip-rule="nonzero"/></clipPath><clipPath id="e3f75317b8"><path d="M 13.820312 0 L 26.566406 5.9375 L 11.261719 38.8125 L -1.488281 32.878906 Z M 13.820312 0 " clip-rule="nonzero"/></clipPath><clipPath id="fc6abb3f10"><path d="M 13.820312 0 L 26.566406 5.9375 L 11.261719 38.8125 L -1.488281 32.878906 Z M 13.820312 0 " clip-rule="nonzero"/></clipPath><clipPath id="e7505df147"><path d="M 2 7 L 25 7 L 25 35 L 2 35 Z M 2 7 " clip-rule="nonzero"/></clipPath><clipPath id="aef76f798b"><path d="M 13.820312 0 L 26.566406 5.9375 L 11.261719 38.8125 L -1.488281 32.878906 Z M 13.820312 0 " clip-rule="nonzero"/></clipPath><clipPath id="bad95abb22"><path d="M 13.820312 0 L 26.566406 5.9375 L 11.261719 38.8125 L -1.488281 32.878906 Z M 13.820312 0 " clip-rule="nonzero"/></clipPath><clipPath id="03d9d304a9"><path d="M 13.820312 0 L 26.566406 5.9375 L 11.261719 38.8125 L -1.488281 32.878906 Z M 13.820312 0 " clip-rule="nonzero"/></clipPath></defs><g clip-path="url(#aeeabfb902)"><g clip-path="url(#12887d6c2d)"><g clip-path="url(#8bae1ea7fc)"><g clip-path="url(#238199b8a2)"><path fill="#231f20" d="M 16.796875 10.085938 C 16.746094 10.078125 16.695312 10.074219 16.644531 10.070312 C 16.59375 10.066406 16.542969 10.0625 16.488281 10.058594 C 16.433594 10.054688 16.378906 10.050781 16.320312 10.050781 C 16.265625 10.046875 16.207031 10.046875 16.148438 10.046875 C 16.09375 10.042969 16.035156 10.046875 15.976562 10.046875 C 15.855469 10.050781 15.738281 10.054688 15.617188 10.066406 C 15.558594 10.070312 15.5 10.078125 15.441406 10.085938 C 15.382812 10.09375 15.324219 10.105469 15.265625 10.113281 C 15.148438 10.136719 15.039062 10.160156 14.929688 10.191406 C 14.824219 10.21875 14.722656 10.257812 14.628906 10.292969 C 14.625 10.296875 14.621094 10.296875 14.621094 10.296875 C 14.527344 10.273438 14.433594 10.25 14.339844 10.226562 C 14.414062 10.195312 14.488281 10.164062 14.574219 10.136719 C 14.675781 10.101562 14.78125 10.070312 14.898438 10.042969 C 15.011719 10.015625 15.128906 10 15.25 9.984375 C 15.308594 9.976562 15.371094 9.96875 15.429688 9.964844 C 15.492188 9.960938 15.550781 9.957031 15.613281 9.957031 C 15.734375 9.953125 15.855469 9.953125 15.976562 9.957031 C 16.035156 9.960938 16.097656 9.960938 16.15625 9.964844 C 16.214844 9.96875 16.269531 9.976562 16.328125 9.980469 C 16.382812 9.984375 16.4375 9.992188 16.492188 10 C 16.546875 10.003906 16.601562 10.011719 16.652344 10.019531 C 16.703125 10.027344 16.753906 10.035156 16.800781 10.042969 C 16.851562 10.050781 16.894531 10.058594 16.941406 10.070312 C 17.03125 10.082031 17.109375 10.101562 17.183594 10.117188 C 17.21875 10.125 17.253906 10.132812 17.28125 10.140625 C 17.3125 10.148438 17.34375 10.152344 17.367188 10.160156 C 17.46875 10.183594 17.527344 10.199219 17.527344 10.199219 C 17.527344 10.199219 17.46875 10.1875 17.367188 10.167969 C 17.339844 10.164062 17.3125 10.160156 17.28125 10.152344 C 17.25 10.148438 17.214844 10.144531 17.179688 10.136719 C 17.105469 10.125 17.023438 10.113281 16.933594 10.101562 C 16.890625 10.097656 16.84375 10.089844 16.796875 10.085938 Z M 18.3125 10.265625 L 14.992188 9.152344 L 14.179688 8.757812 L 13.960938 8.65625 C 13.410156 8.398438 12.777344 8.847656 12.824219 9.46875 L 12.839844 9.703125 C 12.84375 9.75 12.8125 9.777344 12.777344 9.792969 C 13.972656 10.246094 15.847656 10.628906 16.820312 10.808594 L 18.3125 10.265625 " fill-opacity="1" fill-rule="nonzero"/></g></g></g></g><g clip-path="url(#2bc8595b50)"><g clip-path="url(#83f4fdddc5)"><g clip-path="url(#666f447aa7)"><g clip-path="url(#713c2d6d57)"><path fill="#231f20" d="M 15.542969 2.851562 C 15.789062 3.375 15.9375 3.746094 16.023438 3.96875 C 16.101562 4.175781 16.089844 4.414062 15.996094 4.617188 L 15.0625 6.59375 L 15.753906 7.441406 L 16.78125 5.511719 C 16.785156 5.5 17.300781 4.542969 17.183594 3.171875 C 17.136719 2.613281 16.949219 2.214844 16.648438 2.023438 C 16.421875 1.882812 16.203125 1.902344 16.203125 1.902344 L 16.199219 1.902344 C 16.195312 1.902344 15.683594 1.917969 15.5 2.214844 C 15.40625 2.375 15.417969 2.589844 15.542969 2.851562 " fill-opacity="1" fill-rule="nonzero"/></g></g></g></g><g clip-path="url(#c964d92dbd)"><g clip-path="url(#1d78e293b2)"><g clip-path="url(#27911765ab)"><g clip-path="url(#49dd3c7da4)"><path fill="#231f20" d="M 15.441406 2.175781 C 15.640625 1.851562 16.160156 1.828125 16.199219 1.828125 C 16.21875 1.828125 16.386719 1.8125 16.585938 1.90625 C 16.648438 1.9375 16.714844 1.976562 16.78125 2.03125 C 17.050781 2.253906 17.210938 2.632812 17.253906 3.164062 C 17.375 4.558594 16.851562 5.535156 16.84375 5.542969 L 15.765625 7.570312 L 14.976562 6.601562 L 15.929688 4.585938 C 16.015625 4.402344 16.027344 4.183594 15.953125 3.996094 C 15.871094 3.773438 15.722656 3.402344 15.476562 2.886719 C 15.339844 2.597656 15.328125 2.359375 15.441406 2.175781 Z M 15.558594 3.847656 C 15.699219 4.011719 15.730469 4.25 15.632812 4.453125 L 14.5 6.886719 C 14.523438 6.90625 14.546875 6.925781 14.574219 6.945312 C 14.613281 6.980469 14.652344 7.015625 14.695312 7.058594 C 14.742188 7.097656 14.785156 7.140625 14.828125 7.1875 C 14.875 7.234375 14.921875 7.28125 14.964844 7.332031 C 15.011719 7.382812 15.054688 7.4375 15.09375 7.492188 C 15.117188 7.519531 15.136719 7.546875 15.15625 7.578125 C 15.175781 7.605469 15.195312 7.632812 15.210938 7.664062 C 15.230469 7.691406 15.246094 7.71875 15.261719 7.75 C 15.277344 7.777344 15.292969 7.808594 15.308594 7.835938 C 15.316406 7.851562 15.320312 7.867188 15.328125 7.882812 C 15.335938 7.894531 15.339844 7.910156 15.347656 7.925781 C 15.359375 7.953125 15.367188 7.984375 15.378906 8.011719 C 15.394531 8.070312 15.40625 8.125 15.414062 8.175781 C 15.421875 8.199219 15.421875 8.226562 15.425781 8.25 C 15.425781 8.273438 15.425781 8.296875 15.425781 8.316406 C 15.425781 8.359375 15.421875 8.394531 15.417969 8.425781 C 15.414062 8.457031 15.40625 8.476562 15.40625 8.496094 C 15.402344 8.511719 15.398438 8.519531 15.398438 8.519531 C 15.398438 8.519531 15.402344 8.511719 15.402344 8.492188 C 15.402344 8.476562 15.410156 8.453125 15.410156 8.425781 C 15.410156 8.394531 15.410156 8.359375 15.40625 8.316406 C 15.402344 8.296875 15.402344 8.277344 15.398438 8.253906 C 15.390625 8.230469 15.390625 8.207031 15.382812 8.183594 C 15.371094 8.132812 15.351562 8.082031 15.328125 8.03125 C 15.316406 8.003906 15.308594 7.976562 15.292969 7.953125 C 15.285156 7.9375 15.277344 7.925781 15.269531 7.910156 C 15.261719 7.898438 15.253906 7.886719 15.246094 7.871094 C 15.230469 7.84375 15.214844 7.820312 15.195312 7.792969 C 15.179688 7.765625 15.15625 7.742188 15.140625 7.714844 C 15.117188 7.6875 15.097656 7.664062 15.078125 7.640625 C 15.054688 7.613281 15.035156 7.589844 15.011719 7.566406 C 14.964844 7.515625 14.917969 7.46875 14.871094 7.425781 C 14.824219 7.382812 14.777344 7.339844 14.730469 7.300781 C 14.679688 7.261719 14.632812 7.222656 14.589844 7.1875 C 14.542969 7.15625 14.5 7.125 14.460938 7.097656 C 14.445312 7.085938 14.429688 7.078125 14.417969 7.066406 L 14.34375 7.222656 C 14.257812 7.40625 14.226562 7.609375 14.253906 7.808594 L 14.324219 8.363281 C 14.332031 8.40625 14.324219 8.453125 14.304688 8.492188 C 14.277344 8.546875 14.300781 8.613281 14.355469 8.636719 L 14.976562 8.925781 C 15.03125 8.953125 15.097656 8.929688 15.121094 8.871094 L 15.125 8.871094 C 15.136719 8.839844 15.15625 8.816406 15.179688 8.792969 L 15.570312 8.445312 C 15.667969 8.359375 15.75 8.253906 15.8125 8.132812 L 17.148438 5.523438 C 17.359375 5.113281 17.476562 4.660156 17.488281 4.199219 L 17.539062 2.410156 C 17.550781 1.972656 17.246094 1.597656 16.820312 1.53125 C 16.109375 1.414062 15.117188 1.382812 14.949219 2.035156 C 14.761719 2.757812 15.246094 3.476562 15.558594 3.847656 " fill-opacity="1" fill-rule="nonzero"/></g></g></g></g><g clip-path="url(#17eaf497fb)"><g clip-path="url(#6f74f8591a)"><g clip-path="url(#e3f75317b8)"><g clip-path="url(#fc6abb3f10)"><path fill="#231f20" d="M 12.621094 9.792969 C 12.195312 9.628906 12.191406 9.21875 12.296875 8.761719 C 12.164062 9 12.09375 9.300781 12.066406 9.644531 C 12.457031 9.984375 12.878906 10.21875 13.21875 10.378906 C 13.648438 10.578125 13.972656 10.660156 13.972656 10.660156 L 13.980469 10.664062 C 13.992188 10.667969 14.914062 10.925781 16.296875 11 L 16.765625 10.828125 C 13.957031 10.425781 13.003906 9.980469 12.722656 9.808594 C 12.6875 9.8125 12.652344 9.804688 12.621094 9.792969 " fill-opacity="1" fill-rule="nonzero"/></g></g></g></g><g clip-path="url(#e7505df147)"><g clip-path="url(#aef76f798b)"><g clip-path="url(#bad95abb22)"><g clip-path="url(#03d9d304a9)"><path fill="#231f20" d="M 24.460938 8.679688 C 19.8125 12.53125 13.925781 10.851562 13.925781 10.851562 C 13.925781 10.851562 12.171875 10.417969 11.234375 9 C 10.296875 7.582031 11.914062 7.539062 11.914062 7.539062 C 11.222656 6.910156 10.789062 7.167969 10.53125 7.542969 C 10.300781 7.875 10.226562 8.292969 10.304688 8.691406 L 10.597656 10.121094 C 9.792969 11.007812 10.53125 12.894531 10.53125 12.894531 C 10.960938 13.09375 11.152344 13.601562 10.964844 14.050781 L 2.757812 33.796875 C 2.679688 33.980469 2.667969 34.183594 2.726562 34.371094 L 2.761719 34.496094 C 2.882812 34.914062 3.359375 35.105469 3.738281 34.890625 C 3.894531 34.804688 4.019531 34.667969 4.09375 34.507812 L 13.175781 15.371094 C 13.570312 14.542969 14.453125 14.074219 15.335938 14.226562 L 17.148438 14.53125 C 23.648438 12.195312 24.460938 8.679688 24.460938 8.679688 " fill-opacity="1" fill-rule="nonzero"/></g></g></g></g><g fill="#000000" fill-opacity="1"><g transform="translate(26.811296, 13.280534)"><g><path d="M 4.46875 -3.59375 C 3.820312 -2.03125 3.332031 -0.859375 3 -0.078125 L 2.8125 -0.015625 C 2.769531 -0.078125 2.675781 -0.238281 2.53125 -0.5 C 1.550781 -2.675781 0.9375 -4 0.6875 -4.46875 C 0.59375 -4.582031 0.484375 -4.648438 0.359375 -4.671875 L 0.203125 -4.65625 L -0.28125 -4.65625 L -0.296875 -4.6875 L -0.296875 -5.109375 L -0.28125 -5.140625 L 1.125 -5.140625 C 1.457031 -5.140625 1.726562 -4.835938 1.9375 -4.234375 L 3.0625 -1.71875 C 3.144531 -1.84375 3.503906 -2.691406 4.140625 -4.265625 C 4.097656 -4.335938 4.066406 -4.398438 4.046875 -4.453125 C 3.953125 -4.554688 3.828125 -4.617188 3.671875 -4.640625 L 3.578125 -4.65625 L 3.078125 -4.65625 L 3.078125 -5.109375 L 4.46875 -5.109375 C 4.8125 -5.109375 5.085938 -4.804688 5.296875 -4.203125 L 6.421875 -1.703125 C 6.453125 -1.722656 6.816406 -2.59375 7.515625 -4.3125 C 7.578125 -4.445312 7.609375 -4.546875 7.609375 -4.609375 L 7.609375 -4.640625 C 7.609375 -4.765625 7.53125 -4.847656 7.375 -4.890625 L 7.03125 -4.890625 L 7 -4.90625 L 7 -5.09375 L 7.03125 -5.109375 L 8.453125 -5.109375 C 7.472656 -2.679688 6.773438 -1 6.359375 -0.0625 L 6.234375 0 C 6.148438 -0.0078125 6.019531 -0.175781 5.84375 -0.5 C 5.238281 -1.863281 4.78125 -2.894531 4.46875 -3.59375 Z M 4.46875 -3.59375 "/></g></g><g transform="translate(34.956175, 13.280534)"><g><path d="M 4.390625 -5.96875 L 4.40625 -5.96875 L 4.40625 -5.75 C 4.40625 -5.320312 4.242188 -5.03125 3.921875 -4.875 L 3.828125 -4.828125 C 4.003906 -4.734375 4.222656 -4.554688 4.484375 -4.296875 C 4.921875 -3.773438 5.140625 -3.203125 5.140625 -2.578125 C 5.140625 -1.898438 4.890625 -1.296875 4.390625 -0.765625 C 3.867188 -0.253906 3.265625 0 2.578125 0 C 1.785156 0 1.113281 -0.335938 0.5625 -1.015625 C 0.21875 -1.492188 0.046875 -2.003906 0.046875 -2.546875 L 0.046875 -2.609375 C 0.046875 -3.367188 0.351562 -4.023438 0.96875 -4.578125 C 1.457031 -4.960938 1.992188 -5.15625 2.578125 -5.15625 L 2.859375 -5.140625 C 3.285156 -5.234375 3.617188 -5.332031 3.859375 -5.4375 C 4.035156 -5.519531 4.164062 -5.609375 4.25 -5.703125 C 4.320312 -5.785156 4.367188 -5.875 4.390625 -5.96875 Z M 1.28125 -2.5625 C 1.28125 -1.875 1.492188 -1.316406 1.921875 -0.890625 C 2.140625 -0.703125 2.375 -0.609375 2.625 -0.609375 L 2.640625 -0.609375 C 3.085938 -0.609375 3.460938 -0.90625 3.765625 -1.5 C 3.898438 -1.851562 3.96875 -2.1875 3.96875 -2.5 L 3.96875 -2.640625 C 3.96875 -3.179688 3.796875 -3.671875 3.453125 -4.109375 C 3.203125 -4.390625 2.929688 -4.53125 2.640625 -4.53125 L 2.625 -4.53125 C 2.175781 -4.53125 1.804688 -4.25 1.515625 -3.6875 C 1.359375 -3.34375 1.28125 -2.96875 1.28125 -2.5625 Z M 1.28125 -2.5625 "/></g></g><g transform="translate(40.082524, 13.280534)"><g><path d="M 3.6875 -5.203125 L 3.796875 -5.203125 C 4.316406 -5.203125 4.765625 -5.015625 5.140625 -4.640625 C 5.515625 -4.222656 5.703125 -3.742188 5.703125 -3.203125 L 5.703125 -1.328125 C 5.703125 -0.785156 5.804688 -0.46875 6.015625 -0.375 C 6.015625 -0.351562 6.09375 -0.328125 6.25 -0.296875 L 6.84375 -0.296875 L 6.859375 -0.28125 L 6.859375 0 L 6.84375 0.015625 L 5.421875 0.015625 C 5.035156 0.015625 4.78125 -0.269531 4.65625 -0.84375 C 4.644531 -0.90625 4.640625 -0.972656 4.640625 -1.046875 L 4.640625 -3.078125 C 4.640625 -3.742188 4.398438 -4.175781 3.921875 -4.375 C 3.722656 -4.445312 3.519531 -4.484375 3.3125 -4.484375 C 2.914062 -4.472656 2.53125 -4.273438 2.15625 -3.890625 C 2.007812 -3.710938 1.9375 -3.539062 1.9375 -3.375 L 1.9375 0.015625 L 1.921875 0.03125 L 0.890625 0.03125 L 0.859375 0.015625 L 0.859375 -3.96875 C 0.859375 -4.300781 0.722656 -4.523438 0.453125 -4.640625 L 0.25 -4.671875 L -0.234375 -4.671875 L -0.25 -4.6875 L -0.25 -5.140625 L -0.234375 -5.15625 L 1.078125 -5.15625 C 1.398438 -5.15625 1.648438 -4.972656 1.828125 -4.609375 L 1.890625 -4.4375 C 2.453125 -4.9375 3.050781 -5.191406 3.6875 -5.203125 Z M 3.6875 -5.203125 "/></g></g><g transform="translate(46.537713, 13.280534)"><g><path d="M 4.3125 -4.5625 C 3.78125 -4.78125 3.359375 -4.890625 3.046875 -4.890625 C 1.929688 -4.890625 1.375 -4.148438 1.375 -2.671875 C 1.375 -2.015625 1.5 -1.492188 1.75 -1.109375 C 2.019531 -0.679688 2.40625 -0.46875 2.90625 -0.46875 C 3.488281 -0.46875 3.957031 -0.6875 4.3125 -1.125 Z M 5.5 -1.21875 C 5.59375 -0.769531 5.820312 -0.457031 6.1875 -0.28125 C 6.269531 -0.257812 6.335938 -0.25 6.390625 -0.25 L 6.5625 -0.25 L 6.578125 -0.234375 L 6.578125 0.03125 L 6.5625 0.046875 L 5.203125 0.046875 C 4.796875 0.046875 4.539062 -0.128906 4.4375 -0.484375 L 4.421875 -0.5625 L 4.421875 -0.578125 L 4.375 -0.625 L 4.3125 -0.625 C 3.914062 -0.238281 3.316406 -0.046875 2.515625 -0.046875 C 1.742188 -0.046875 1.144531 -0.300781 0.71875 -0.8125 C 0.320312 -1.289062 0.125 -1.910156 0.125 -2.671875 C 0.125 -3.441406 0.328125 -4.066406 0.734375 -4.546875 C 1.179688 -5.054688 1.816406 -5.3125 2.640625 -5.3125 C 3.222656 -5.3125 3.78125 -5.203125 4.3125 -4.984375 L 4.3125 -5.96875 C 4.3125 -6.332031 4.253906 -6.59375 4.140625 -6.75 C 4.003906 -6.9375 3.75 -7.03125 3.375 -7.03125 L 3.109375 -7.03125 L 3.109375 -7.25 L 4.3125 -7.25 C 4.78125 -7.25 5.097656 -7.171875 5.265625 -7.015625 C 5.421875 -6.835938 5.5 -6.488281 5.5 -5.96875 Z M 5.5 -1.21875 "/></g></g><g transform="translate(52.700787, 13.280534)"><g><path d="M 2.3125 -5.328125 L 2.390625 -5.328125 C 3.242188 -5.328125 3.921875 -5.003906 4.421875 -4.359375 C 4.628906 -4.046875 4.734375 -3.640625 4.734375 -3.140625 C 4.734375 -2.347656 4.4375 -1.742188 3.84375 -1.328125 C 3.5 -1.109375 3.066406 -1 2.546875 -1 C 2.234375 -1 1.921875 -1.039062 1.609375 -1.125 C 1.773438 -0.800781 2.09375 -0.554688 2.5625 -0.390625 C 2.707031 -0.335938 2.828125 -0.3125 2.921875 -0.3125 L 3.96875 -0.3125 L 3.984375 -0.296875 L 3.984375 -0.015625 L 3.96875 0 L 2.390625 0 C 1.984375 0 1.515625 -0.148438 0.984375 -0.453125 C 0.773438 -0.597656 0.613281 -0.765625 0.5 -0.953125 C 0.1875 -1.515625 0.03125 -2.21875 0.03125 -3.0625 L 0.03125 -3.25 C 0.03125 -3.769531 0.1875 -4.179688 0.5 -4.484375 C 0.613281 -4.617188 0.726562 -4.726562 0.84375 -4.8125 C 1.34375 -5.15625 1.832031 -5.328125 2.3125 -5.328125 Z M 1.21875 -3.171875 C 1.21875 -2.523438 1.4375 -2.023438 1.875 -1.671875 C 2.0625 -1.554688 2.234375 -1.5 2.390625 -1.5 C 2.804688 -1.5 3.144531 -1.769531 3.40625 -2.3125 C 3.519531 -2.59375 3.578125 -2.882812 3.578125 -3.1875 C 3.578125 -3.769531 3.378906 -4.242188 2.984375 -4.609375 C 2.785156 -4.765625 2.585938 -4.84375 2.390625 -4.84375 C 1.984375 -4.84375 1.648438 -4.582031 1.390625 -4.0625 C 1.273438 -3.78125 1.21875 -3.484375 1.21875 -3.171875 Z M 1.21875 -3.171875 "/></g></g><g transform="translate(57.53502, 13.280534)"><g><path d="M 3.265625 -5.03125 L 3.34375 -5.046875 L 3.359375 -5.046875 C 3.421875 -5.046875 3.476562 -4.960938 3.53125 -4.796875 L 3.53125 -4.75 C 3.507812 -4.738281 3.4375 -4.707031 3.3125 -4.65625 C 3.226562 -4.613281 3.140625 -4.578125 3.046875 -4.546875 C 2.960938 -4.503906 2.8125 -4.410156 2.59375 -4.265625 C 2.457031 -4.179688 2.320312 -4.070312 2.1875 -3.9375 C 2.070312 -3.757812 2.015625 -3.597656 2.015625 -3.453125 L 2.015625 0 L 0.921875 0 L 0.921875 -3.84375 C 0.921875 -4.25 0.789062 -4.507812 0.53125 -4.625 C 0.445312 -4.632812 0.367188 -4.640625 0.296875 -4.640625 L -0.1875 -4.640625 L -0.203125 -4.65625 L -0.203125 -5.109375 L -0.1875 -5.125 L 1.109375 -5.125 C 1.398438 -5.125 1.640625 -4.988281 1.828125 -4.71875 C 1.898438 -4.570312 1.9375 -4.4375 1.9375 -4.3125 L 1.9375 -4.296875 C 2.226562 -4.535156 2.535156 -4.734375 2.859375 -4.890625 C 3.015625 -4.972656 3.148438 -5.019531 3.265625 -5.03125 Z M 3.265625 -5.03125 "/></g></g><g transform="translate(60.880034, 13.280534)"><g><path d="M 1.90625 -0.65625 L 1.890625 -0.65625 C 1.878906 -0.195312 1.632812 0.0234375 1.15625 0.015625 L -0.0625 0 L -0.0625 -0.28125 L -0.046875 -0.296875 L 0.453125 -0.296875 C 0.585938 -0.328125 0.65625 -0.351562 0.65625 -0.375 C 0.832031 -0.46875 0.925781 -0.785156 0.9375 -1.328125 L 0.953125 -3.203125 L 0.96875 -4.671875 L 0.453125 -4.671875 L 0.453125 -5.078125 L 0.96875 -5.078125 L 0.96875 -5.375 C 0.96875 -6.519531 1.691406 -7.144531 3.140625 -7.25 L 3.0625 -6.609375 C 2.289062 -6.660156 1.90625 -6.25 1.90625 -5.375 L 1.90625 -5.078125 L 2.8125 -5.078125 L 2.8125 -4.671875 L 1.90625 -4.671875 Z M 1.90625 -0.65625 "/></g></g><g transform="translate(64.024576, 13.280534)"><g><path d="M 2.96875 0.015625 L 2.875 0.015625 C 2.351562 0.015625 1.90625 -0.175781 1.53125 -0.5625 C 1.164062 -0.96875 0.984375 -1.441406 0.984375 -1.984375 L 0.984375 -3.84375 C 0.984375 -4.375 0.878906 -4.691406 0.671875 -4.796875 C 0.671875 -4.816406 0.59375 -4.84375 0.4375 -4.875 L -0.15625 -4.875 L -0.171875 -4.890625 L -0.171875 -5.15625 L -0.15625 -5.171875 L 1.25 -5.171875 C 1.632812 -5.171875 1.882812 -4.890625 2 -4.328125 C 2.019531 -4.265625 2.03125 -4.195312 2.03125 -4.125 L 2.03125 -2.109375 C 2.03125 -1.441406 2.265625 -1.007812 2.734375 -0.8125 C 2.929688 -0.738281 3.132812 -0.703125 3.34375 -0.703125 C 3.644531 -0.703125 3.988281 -0.894531 4.375 -1.28125 C 4.507812 -1.445312 4.578125 -1.617188 4.578125 -1.796875 L 4.578125 -5.15625 L 4.59375 -5.171875 L 5.625 -5.171875 L 5.640625 -5.15625 L 5.640625 -1.203125 C 5.640625 -0.867188 5.78125 -0.644531 6.0625 -0.53125 L 6.25 -0.5 L 6.734375 -0.5 L 6.75 -0.484375 L 6.75 -0.046875 L 6.734375 -0.015625 L 5.4375 -0.015625 C 5.113281 -0.015625 4.863281 -0.195312 4.6875 -0.5625 L 4.640625 -0.734375 C 4.078125 -0.234375 3.519531 0.015625 2.96875 0.015625 Z M 2.96875 0.015625 "/></g></g><g transform="translate(70.685965, 13.280534)"><g><path d="M 0.703125 -5.796875 C 0.703125 -5.984375 0.660156 -6.160156 0.578125 -6.328125 C 0.460938 -6.453125 0.265625 -6.492188 -0.015625 -6.453125 L -0.234375 -6.453125 L -0.234375 -6.84375 L 0.703125 -6.84375 C 0.984375 -6.863281 1.21875 -6.789062 1.40625 -6.625 C 1.5625 -6.507812 1.640625 -6.234375 1.640625 -5.796875 L 1.640625 -1.328125 C 1.640625 -0.796875 1.734375 -0.476562 1.921875 -0.375 C 1.921875 -0.351562 1.988281 -0.328125 2.125 -0.296875 L 2.640625 -0.296875 L 2.671875 -0.28125 L 2.671875 -0.015625 L 2.640625 0 L 1.390625 0 C 1.046875 0 0.828125 -0.28125 0.734375 -0.84375 C 0.710938 -0.914062 0.703125 -0.984375 0.703125 -1.046875 Z M 0.703125 -5.796875 "/></g></g></g><g fill="#000000" fill-opacity="1"><g transform="translate(26.811296, 26.617169)"><g><path d="M 1.5 -6.828125 C 1.5 -7.484375 1.425781 -7.953125 1.28125 -8.234375 C 1.070312 -8.578125 0.703125 -8.75 0.171875 -8.75 L -0.21875 -8.75 L -0.21875 -9.125 L 1.5 -9.125 C 2.195312 -9.125 2.65625 -8.984375 2.875 -8.703125 C 3.113281 -8.398438 3.234375 -7.773438 3.234375 -6.828125 L 3.234375 -0.609375 C 3.234375 0.867188 2.988281 1.914062 2.5 2.53125 C 1.976562 3.175781 1.039062 3.5 -0.3125 3.5 L -0.3125 3.125 C 0.894531 3.125 1.5 1.878906 1.5 -0.609375 Z M 1.5 -6.828125 "/></g></g><g transform="translate(30.482958, 26.617169)"><g><path d="M 7.90625 -10.75 L 7.9375 -10.734375 L 7.9375 -10.34375 C 7.9375 -9.570312 7.644531 -9.046875 7.0625 -8.765625 L 6.890625 -8.703125 C 7.210938 -8.535156 7.613281 -8.21875 8.09375 -7.75 C 8.863281 -6.800781 9.25 -5.757812 9.25 -4.625 C 9.25 -3.414062 8.800781 -2.332031 7.90625 -1.375 C 6.96875 -0.457031 5.882812 0 4.65625 0 C 3.226562 0 2.015625 -0.601562 1.015625 -1.8125 C 0.390625 -2.6875 0.078125 -3.609375 0.078125 -4.578125 L 0.078125 -4.703125 C 0.078125 -6.066406 0.632812 -7.242188 1.75 -8.234375 C 2.632812 -8.929688 3.59375 -9.28125 4.625 -9.28125 L 5.140625 -9.265625 C 5.910156 -9.429688 6.515625 -9.609375 6.953125 -9.796875 C 7.265625 -9.953125 7.5 -10.113281 7.65625 -10.28125 C 7.789062 -10.425781 7.875 -10.582031 7.90625 -10.75 Z M 2.296875 -4.625 C 2.296875 -3.382812 2.6875 -2.375 3.46875 -1.59375 C 3.863281 -1.257812 4.285156 -1.09375 4.734375 -1.09375 L 4.75 -1.09375 C 5.550781 -1.09375 6.222656 -1.628906 6.765625 -2.703125 C 7.015625 -3.335938 7.140625 -3.929688 7.140625 -4.484375 L 7.140625 -4.765625 C 7.140625 -5.734375 6.835938 -6.609375 6.234375 -7.390625 C 5.765625 -7.898438 5.269531 -8.15625 4.75 -8.15625 L 4.734375 -8.15625 C 3.910156 -8.15625 3.242188 -7.644531 2.734375 -6.625 C 2.441406 -6.007812 2.296875 -5.34375 2.296875 -4.625 Z M 2.296875 -4.625 "/></g></g><g transform="translate(39.713683, 26.617169)"><g><path d="M 3.84375 -1.59375 C 2.664062 -1.125 2.078125 -0.296875 2.078125 0.890625 C 2.078125 2.472656 2.976562 3.265625 4.78125 3.265625 C 6.582031 3.265625 7.484375 2.472656 7.484375 0.890625 C 7.484375 -0.503906 6.648438 -1.300781 4.984375 -1.5 Z M 6.25 -8.71875 C 5.882812 -9.101562 5.394531 -9.296875 4.78125 -9.296875 C 3.394531 -9.296875 2.703125 -8.5 2.703125 -6.90625 C 2.703125 -5.3125 3.394531 -4.515625 4.78125 -4.515625 C 6.164062 -4.515625 6.859375 -5.3125 6.859375 -6.90625 C 6.859375 -7.695312 6.65625 -8.300781 6.25 -8.71875 Z M 5.046875 -9.9375 C 6.890625 -10.351562 7.8125 -10.867188 7.8125 -11.484375 L 7.875 -11.484375 L 7.90625 -11.125 C 7.90625 -10.28125 7.597656 -9.695312 6.984375 -9.375 L 7.265625 -9.296875 L 7.265625 -9.1875 C 8.242188 -8.707031 8.734375 -7.945312 8.734375 -6.90625 C 8.734375 -4.832031 7.414062 -3.796875 4.78125 -3.796875 C 3.320312 -3.796875 2.59375 -3.550781 2.59375 -3.0625 C 2.59375 -2.570312 3.320312 -2.328125 4.78125 -2.328125 C 6.125 -2.328125 7.195312 -2.078125 8 -1.578125 C 8.90625 -1.015625 9.359375 -0.191406 9.359375 0.890625 C 9.359375 3.035156 7.832031 4.109375 4.78125 4.109375 C 1.726562 4.109375 0.203125 3.035156 0.203125 0.890625 C 0.203125 -0.398438 0.960938 -1.300781 2.484375 -1.8125 C 1.929688 -2.09375 1.65625 -2.507812 1.65625 -3.0625 C 1.65625 -3.5 1.894531 -3.878906 2.375 -4.203125 C 1.34375 -4.722656 0.828125 -5.625 0.828125 -6.90625 C 0.828125 -8.976562 2.144531 -10.015625 4.78125 -10.015625 Z M 5.046875 -9.9375 "/></g></g><g transform="translate(49.51166, 26.617169)"><g><path d="M 1.5 -6.828125 C 1.5 -7.484375 1.425781 -7.953125 1.28125 -8.234375 C 1.070312 -8.578125 0.703125 -8.75 0.171875 -8.75 L -0.21875 -8.75 L -0.21875 -9.125 L 1.5 -9.125 C 2.195312 -9.125 2.65625 -8.984375 2.875 -8.703125 C 3.113281 -8.398438 3.234375 -7.773438 3.234375 -6.828125 L 3.234375 -0.609375 C 3.234375 0.867188 2.988281 1.914062 2.5 2.53125 C 1.976562 3.175781 1.039062 3.5 -0.3125 3.5 L -0.3125 3.125 C 0.894531 3.125 1.5 1.878906 1.5 -0.609375 Z M 1.5 -6.828125 "/></g></g><g transform="translate(53.183323, 26.617169)"><g><path d="M 2.078125 -9.40625 L 4.5 -9.40625 C 4.84375 -9.40625 5.242188 -9.3125 5.703125 -9.125 C 6.378906 -8.820312 6.859375 -8.351562 7.140625 -7.71875 C 7.210938 -7.53125 7.269531 -7.347656 7.3125 -7.171875 C 7.375 -6.867188 7.40625 -6.640625 7.40625 -6.484375 L 7.421875 -6.203125 C 8.535156 -6.441406 9.191406 -6.585938 9.390625 -6.640625 C 9.816406 -6.796875 10.097656 -7.015625 10.234375 -7.296875 C 10.296875 -7.441406 10.328125 -7.570312 10.328125 -7.6875 L 10.328125 -7.71875 L 10.34375 -7.71875 C 10.425781 -7.519531 10.46875 -7.320312 10.46875 -7.125 C 10.46875 -6.625 10.195312 -6.1875 9.65625 -5.8125 C 9.488281 -5.707031 9.304688 -5.617188 9.109375 -5.546875 C 8.953125 -5.503906 8.734375 -5.460938 8.453125 -5.421875 C 8.085938 -5.347656 7.742188 -5.285156 7.421875 -5.234375 L 7.421875 -1.96875 C 7.421875 -1.664062 7.472656 -1.367188 7.578125 -1.078125 C 7.628906 -0.941406 7.707031 -0.816406 7.8125 -0.703125 C 7.96875 -0.578125 8.125 -0.515625 8.28125 -0.515625 L 8.75 -0.515625 L 8.765625 -0.5 L 8.765625 0.03125 L 8.75 0.046875 L 7.125 0.046875 C 6.488281 0.046875 6.050781 -0.296875 5.8125 -0.984375 C 5.757812 -1.085938 5.707031 -1.25 5.65625 -1.46875 L 5.640625 -1.59375 C 4.597656 -0.539062 3.53125 -0.015625 2.4375 -0.015625 C 2.039062 -0.015625 1.640625 -0.09375 1.234375 -0.25 C 1.085938 -0.3125 0.941406 -0.394531 0.796875 -0.5 C 0.273438 -0.925781 0.015625 -1.4375 0.015625 -2.03125 L 0.015625 -2.078125 C 0.015625 -2.503906 0.15625 -2.957031 0.4375 -3.4375 C 0.675781 -3.800781 1.019531 -4.132812 1.46875 -4.4375 C 1.75 -4.625 2.054688 -4.800781 2.390625 -4.96875 C 2.785156 -5.15625 3.265625 -5.335938 3.828125 -5.515625 C 4.265625 -5.628906 4.585938 -5.6875 4.796875 -5.6875 C 5.023438 -5.726562 5.289062 -5.773438 5.59375 -5.828125 L 5.59375 -6.5625 C 5.59375 -6.882812 5.519531 -7.253906 5.375 -7.671875 C 5.320312 -7.785156 5.242188 -7.914062 5.140625 -8.0625 C 5.023438 -8.238281 4.851562 -8.359375 4.625 -8.421875 C 4.582031 -8.441406 4.40625 -8.457031 4.09375 -8.46875 L 2.078125 -8.53125 Z M 2.078125 -2.5625 C 2.078125 -2.21875 2.1875 -1.882812 2.40625 -1.5625 C 2.625 -1.289062 2.921875 -1.15625 3.296875 -1.15625 C 3.585938 -1.15625 3.894531 -1.242188 4.21875 -1.421875 L 5.59375 -2.453125 L 5.59375 -4.953125 C 5.019531 -4.835938 4.507812 -4.707031 4.0625 -4.5625 C 3.5 -4.375 3.113281 -4.191406 2.90625 -4.015625 C 2.675781 -3.835938 2.492188 -3.648438 2.359375 -3.453125 C 2.171875 -3.160156 2.078125 -2.863281 2.078125 -2.5625 Z M 2.078125 -2.5625 "/></g></g></g></svg>