<svg xmlns="http://www.w3.org/2000/svg" xmlns:xlink="http://www.w3.org/1999/xlink" width="260" zoomAndPan="magnify" viewBox="0 0 194.87999 111.749996" height="149" preserveAspectRatio="xMidYMid meet" version="1.0"><defs><clipPath id="b25740d477"><path d="M 44 28 L 57 28 L 57 34 L 44 34 Z M 44 28 " clip-rule="nonzero"/></clipPath><clipPath id="df3e5adc9f"><path d="M 46.535156 11.304688 L 73.488281 24.082031 L 41.851562 90.699219 L 14.890625 77.921875 Z M 46.535156 11.304688 " clip-rule="nonzero"/></clipPath><clipPath id="9d22f07dcc"><path d="M 46.535156 11.304688 L 73.488281 24.082031 L 41.851562 90.699219 L 14.890625 77.921875 Z M 46.535156 11.304688 " clip-rule="nonzero"/></clipPath><clipPath id="1ff2a81d3f"><path d="M 49 15.101562 L 54 15.101562 L 54 27 L 49 27 Z M 49 15.101562 " clip-rule="nonzero"/></clipPath><clipPath id="26d2d2e1ac"><path d="M 46.535156 11.304688 L 73.488281 24.082031 L 41.851562 90.699219 L 14.890625 77.921875 Z M 46.535156 11.304688 " clip-rule="nonzero"/></clipPath><clipPath id="939001f07b"><path d="M 46.535156 11.304688 L 73.488281 24.082031 L 41.851562 90.699219 L 14.890625 77.921875 Z M 46.535156 11.304688 " clip-rule="nonzero"/></clipPath><clipPath id="9079b572b1"><path d="M 47 14 L 55 14 L 55 29.882812 L 47 29.882812 Z M 47 14 " clip-rule="nonzero"/></clipPath><clipPath id="b873256f40"><path d="M 46.535156 11.304688 L 73.488281 24.082031 L 41.851562 90.699219 L 14.890625 77.921875 Z M 46.535156 11.304688 " clip-rule="nonzero"/></clipPath><clipPath id="ce90e6e8bd"><path d="M 46.535156 11.304688 L 73.488281 24.082031 L 41.851562 90.699219 L 14.890625 77.921875 Z M 46.535156 11.304688 " clip-rule="nonzero"/></clipPath><clipPath id="fc3dac16e8"><path d="M 43 29 L 53 29 L 53 34 L 43 34 Z M 43 29 " clip-rule="nonzero"/></clipPath><clipPath id="e4b88810bf"><path d="M 46.535156 11.304688 L 73.488281 24.082031 L 41.851562 90.699219 L 14.890625 77.921875 Z M 46.535156 11.304688 " clip-rule="nonzero"/></clipPath><clipPath id="a0a339569a"><path d="M 46.535156 11.304688 L 73.488281 24.082031 L 41.851562 90.699219 L 14.890625 77.921875 Z M 46.535156 11.304688 " clip-rule="nonzero"/></clipPath><clipPath id="8977d67101"><path d="M 23.410156 25.660156 L 69.921875 25.660156 L 69.921875 82.675781 L 23.410156 82.675781 Z M 23.410156 25.660156 " clip-rule="nonzero"/></clipPath><clipPath id="8c315fd352"><path d="M 46.535156 11.304688 L 73.488281 24.082031 L 41.851562 90.699219 L 14.890625 77.921875 Z M 46.535156 11.304688 " clip-rule="nonzero"/></clipPath><clipPath id="88445fc0bf"><path d="M 46.535156 11.304688 L 73.488281 24.082031 L 41.851562 90.699219 L 14.890625 77.921875 Z M 46.535156 11.304688 " clip-rule="nonzero"/></clipPath></defs><g clip-path="url(#b25740d477)"><g clip-path="url(#df3e5adc9f)"><g clip-path="url(#9d22f07dcc)"><path fill="#000000" d="M 52.984375 32.109375 C 52.882812 32.09375 52.777344 32.085938 52.667969 32.078125 C 52.554688 32.058594 52.445312 32.042969 52.332031 32.042969 C 52.214844 32.027344 52.101562 32.019531 51.984375 32.011719 C 51.867188 32.011719 51.746094 32.003906 51.621094 31.992188 C 51.496094 31.992188 51.382812 31.992188 51.25 31.984375 C 51 31.984375 50.753906 31.992188 50.507812 32.011719 C 50.375 32.019531 50.25 32.035156 50.125 32.042969 C 50.003906 32.058594 49.878906 32.078125 49.761719 32.09375 C 49.515625 32.132812 49.285156 32.175781 49.050781 32.234375 C 48.828125 32.289062 48.613281 32.355469 48.417969 32.429688 C 48.417969 32.429688 48.410156 32.4375 48.398438 32.4375 C 48.210938 32.390625 48.011719 32.332031 47.8125 32.28125 C 47.960938 32.214844 48.128906 32.160156 48.300781 32.101562 C 48.515625 32.035156 48.738281 31.976562 48.976562 31.929688 C 49.21875 31.886719 49.464844 31.855469 49.722656 31.828125 C 49.84375 31.8125 49.976562 31.804688 50.101562 31.796875 C 50.234375 31.796875 50.355469 31.789062 50.488281 31.789062 C 50.746094 31.78125 51 31.789062 51.257812 31.804688 C 51.382812 31.8125 51.503906 31.820312 51.628906 31.828125 C 51.753906 31.84375 51.875 31.855469 51.992188 31.871094 C 52.117188 31.886719 52.230469 31.902344 52.347656 31.917969 C 52.464844 31.929688 52.570312 31.953125 52.679688 31.96875 C 52.785156 31.984375 52.890625 32.003906 52.992188 32.019531 C 53.097656 32.042969 53.199219 32.058594 53.289062 32.085938 C 53.480469 32.117188 53.644531 32.160156 53.800781 32.191406 C 53.875 32.207031 53.949219 32.226562 54.007812 32.242188 C 54.074219 32.257812 54.140625 32.273438 54.1875 32.289062 C 54.402344 32.347656 54.527344 32.382812 54.527344 32.382812 C 54.527344 32.382812 54.402344 32.355469 54.1875 32.308594 C 54.132812 32.300781 54.074219 32.28125 54.007812 32.273438 C 53.941406 32.257812 53.867188 32.25 53.792969 32.234375 C 53.636719 32.207031 53.460938 32.175781 53.28125 32.152344 C 53.179688 32.132812 53.082031 32.125 52.984375 32.109375 Z M 56.179688 32.546875 L 49.167969 30.113281 L 47.449219 29.261719 L 46.988281 29.039062 C 45.816406 28.488281 44.496094 29.378906 44.601562 30.648438 L 44.644531 31.136719 C 44.652344 31.226562 44.585938 31.285156 44.511719 31.316406 C 47.039062 32.300781 51 33.171875 53.050781 33.59375 L 56.179688 32.546875 " fill-opacity="1" fill-rule="nonzero"/></g></g></g><g clip-path="url(#1ff2a81d3f)"><g clip-path="url(#26d2d2e1ac)"><g clip-path="url(#939001f07b)"><path fill="#000000" d="M 50.207031 17.230469 C 50.738281 18.308594 51.058594 19.078125 51.242188 19.539062 C 51.414062 19.96875 51.398438 20.453125 51.191406 20.867188 L 49.257812 24.867188 L 50.738281 26.640625 L 52.867188 22.730469 C 52.875 22.714844 53.949219 20.777344 53.667969 17.960938 C 53.5625 16.816406 53.164062 15.992188 52.519531 15.585938 C 52.042969 15.28125 51.585938 15.316406 51.578125 15.316406 C 51.5625 15.316406 50.488281 15.324219 50.109375 15.917969 C 49.910156 16.238281 49.945312 16.683594 50.207031 17.230469 " fill-opacity="1" fill-rule="nonzero"/></g></g></g><g clip-path="url(#9079b572b1)"><g clip-path="url(#b873256f40)"><g clip-path="url(#ce90e6e8bd)"><path fill="#000000" d="M 49.976562 15.84375 C 50.398438 15.183594 51.488281 15.167969 51.570312 15.167969 C 51.613281 15.15625 51.96875 15.140625 52.390625 15.339844 C 52.519531 15.40625 52.667969 15.488281 52.800781 15.605469 C 53.371094 16.074219 53.71875 16.867188 53.824219 17.945312 C 54.105469 20.808594 53.015625 22.789062 53 22.804688 L 50.761719 26.90625 L 49.085938 24.882812 L 51.058594 20.800781 C 51.242188 20.421875 51.257812 19.984375 51.101562 19.585938 C 50.917969 19.132812 50.597656 18.367188 50.066406 17.292969 C 49.78125 16.691406 49.746094 16.207031 49.976562 15.84375 Z M 50.257812 19.265625 C 50.5625 19.613281 50.628906 20.097656 50.433594 20.511719 L 48.085938 25.445312 C 48.136719 25.484375 48.183594 25.527344 48.242188 25.566406 C 48.324219 25.640625 48.417969 25.714844 48.507812 25.808594 C 48.597656 25.890625 48.6875 25.980469 48.789062 26.070312 C 48.886719 26.171875 48.976562 26.277344 49.078125 26.375 C 49.167969 26.484375 49.257812 26.597656 49.351562 26.714844 C 49.398438 26.773438 49.441406 26.832031 49.480469 26.886719 C 49.523438 26.945312 49.566406 27.003906 49.597656 27.070312 C 49.640625 27.128906 49.679688 27.183594 49.714844 27.25 C 49.746094 27.308594 49.78125 27.367188 49.804688 27.433594 C 49.820312 27.464844 49.835938 27.488281 49.855469 27.523438 C 49.863281 27.554688 49.878906 27.582031 49.886719 27.613281 C 49.917969 27.671875 49.9375 27.730469 49.953125 27.796875 C 49.992188 27.910156 50.019531 28.027344 50.042969 28.125 C 50.050781 28.183594 50.050781 28.230469 50.058594 28.28125 C 50.066406 28.332031 50.066406 28.371094 50.066406 28.421875 C 50.066406 28.503906 50.058594 28.578125 50.050781 28.644531 C 50.042969 28.703125 50.027344 28.753906 50.027344 28.785156 C 50.019531 28.808594 50.011719 28.828125 50.011719 28.828125 C 50.011719 28.828125 50.019531 28.808594 50.019531 28.777344 C 50.019531 28.742188 50.027344 28.703125 50.035156 28.636719 C 50.027344 28.578125 50.035156 28.503906 50.019531 28.421875 C 50.019531 28.382812 50.011719 28.332031 50.003906 28.289062 C 49.992188 28.242188 49.984375 28.191406 49.96875 28.140625 C 49.945312 28.042969 49.902344 27.933594 49.855469 27.828125 C 49.828125 27.769531 49.804688 27.722656 49.78125 27.664062 C 49.761719 27.636719 49.746094 27.605469 49.730469 27.582031 C 49.714844 27.554688 49.695312 27.523438 49.679688 27.5 C 49.648438 27.441406 49.605469 27.390625 49.574219 27.332031 C 49.53125 27.277344 49.492188 27.226562 49.449219 27.167969 C 49.40625 27.117188 49.359375 27.070312 49.316406 27.011719 C 49.265625 26.960938 49.226562 26.914062 49.175781 26.855469 C 49.078125 26.757812 48.976562 26.65625 48.878906 26.566406 C 48.78125 26.476562 48.679688 26.382812 48.574219 26.300781 C 48.472656 26.21875 48.375 26.136719 48.277344 26.070312 C 48.183594 25.996094 48.09375 25.929688 48.003906 25.875 C 47.980469 25.847656 47.945312 25.832031 47.914062 25.808594 L 47.765625 26.121094 C 47.589844 26.492188 47.523438 26.914062 47.582031 27.324219 L 47.746094 28.464844 C 47.757812 28.554688 47.746094 28.644531 47.707031 28.71875 C 47.648438 28.835938 47.699219 28.964844 47.8125 29.023438 L 49.125 29.652344 C 49.242188 29.699219 49.382812 29.652344 49.433594 29.542969 L 49.441406 29.535156 C 49.464844 29.476562 49.507812 29.429688 49.554688 29.386719 L 50.375 28.695312 C 50.582031 28.511719 50.746094 28.296875 50.878906 28.058594 L 53.644531 22.78125 C 54.082031 21.945312 54.320312 21.023438 54.335938 20.082031 L 54.410156 16.421875 C 54.429688 15.53125 53.777344 14.738281 52.875 14.582031 C 51.375 14.316406 49.285156 14.203125 48.945312 15.53125 C 48.558594 16.996094 49.597656 18.492188 50.257812 19.265625 " fill-opacity="1" fill-rule="nonzero"/></g></g></g><g clip-path="url(#fc3dac16e8)"><g clip-path="url(#e4b88810bf)"><g clip-path="url(#a0a339569a)"><path fill="#000000" d="M 44.179688 31.308594 C 43.28125 30.953125 43.265625 30.105469 43.480469 29.179688 C 43.207031 29.660156 43.066406 30.269531 43.015625 30.980469 C 43.84375 31.6875 44.734375 32.191406 45.453125 32.539062 C 46.359375 32.96875 47.046875 33.148438 47.046875 33.148438 L 47.0625 33.15625 C 47.085938 33.164062 49.035156 33.734375 51.949219 33.957031 L 52.933594 33.628906 C 47.011719 32.671875 44.988281 31.714844 44.394531 31.34375 C 44.320312 31.351562 44.246094 31.332031 44.179688 31.308594 " fill-opacity="1" fill-rule="nonzero"/></g></g></g><g clip-path="url(#8977d67101)"><g clip-path="url(#8c315fd352)"><g clip-path="url(#88445fc0bf)"><path fill="#000000" d="M 69.101562 29.601562 C 59.382812 37.273438 46.945312 33.542969 46.945312 33.542969 C 46.945312 33.542969 43.246094 32.5625 41.25 29.617188 C 39.242188 26.664062 42.652344 26.65625 42.652344 26.65625 C 41.183594 25.328125 40.273438 25.839844 39.738281 26.589844 C 39.257812 27.265625 39.109375 28.117188 39.285156 28.933594 L 39.925781 31.878906 C 38.242188 33.660156 39.835938 37.5625 39.835938 37.5625 C 40.746094 37.992188 41.15625 39.039062 40.777344 39.945312 L 23.839844 80.011719 C 23.683594 80.382812 23.667969 80.792969 23.792969 81.179688 L 23.867188 81.4375 C 24.128906 82.304688 25.136719 82.722656 25.929688 82.292969 C 26.261719 82.128906 26.515625 81.859375 26.671875 81.527344 L 45.453125 42.765625 C 46.269531 41.09375 48.121094 40.167969 49.984375 40.523438 L 53.808594 41.242188 C 67.460938 36.761719 69.101562 29.601562 69.101562 29.601562 " fill-opacity="1" fill-rule="nonzero"/></g></g></g><path fill="#000000" d="M 84.550781 39.621094 C 83.445312 42.285156 82.609375 44.296875 82.039062 45.65625 L 81.710938 45.757812 C 81.617188 45.675781 81.453125 45.394531 81.214844 44.929688 C 79.511719 41.171875 78.457031 38.894531 78.042969 38.101562 C 77.886719 37.902344 77.695312 37.789062 77.480469 37.738281 L 76.390625 37.738281 L 76.324219 37.707031 L 76.324219 36.980469 L 76.390625 36.945312 L 78.769531 36.945312 C 79.363281 36.945312 79.835938 37.464844 80.191406 38.496094 L 82.140625 42.820312 C 82.269531 42.605469 82.882812 41.136719 83.988281 38.429688 C 83.921875 38.324219 83.867188 38.226562 83.824219 38.132812 C 83.667969 37.9375 83.460938 37.820312 83.195312 37.773438 L 82.207031 37.773438 L 82.171875 37.738281 L 82.171875 36.980469 L 84.582031 36.980469 C 85.152344 36.980469 85.625 37.5 86.003906 38.53125 L 87.917969 42.851562 C 87.984375 42.8125 88.621094 41.300781 89.835938 38.332031 C 89.917969 38.117188 89.96875 37.953125 89.96875 37.835938 L 89.96875 37.804688 C 89.96875 37.589844 89.835938 37.441406 89.570312 37.375 L 88.976562 37.375 L 88.910156 37.308594 L 88.910156 37.011719 L 88.976562 36.980469 L 91.421875 36.980469 C 89.746094 41.160156 88.546875 44.066406 87.820312 45.691406 L 87.621094 45.789062 C 87.464844 45.773438 87.242188 45.484375 86.960938 44.929688 C 85.90625 42.582031 85.09375 40.808594 84.550781 39.621094 Z M 84.550781 39.621094 " fill-opacity="1" fill-rule="nonzero"/><path fill="#000000" d="M 98.511719 35.496094 L 98.511719 35.890625 C 98.511719 36.617188 98.230469 37.128906 97.6875 37.410156 L 97.519531 37.441406 C 97.828125 37.625 98.214844 37.929688 98.675781 38.367188 C 99.402344 39.273438 99.765625 40.269531 99.765625 41.367188 C 99.765625 42.539062 99.347656 43.570312 98.511719 44.46875 C 97.605469 45.351562 96.5625 45.789062 95.375 45.789062 C 94.003906 45.789062 92.839844 45.210938 91.871094 44.039062 C 91.277344 43.207031 90.980469 42.324219 90.980469 41.402344 L 90.980469 41.300781 C 90.980469 39.980469 91.515625 38.851562 92.597656 37.902344 C 93.433594 37.242188 94.351562 36.914062 95.339844 36.914062 L 95.835938 36.914062 C 96.578125 36.765625 97.164062 36.601562 97.585938 36.417969 C 97.867188 36.269531 98.089844 36.113281 98.246094 35.957031 C 98.378906 35.808594 98.453125 35.652344 98.480469 35.496094 Z M 93.128906 41.367188 C 93.128906 42.554688 93.5 43.53125 94.25 44.273438 C 94.621094 44.585938 95.019531 44.734375 95.441406 44.734375 L 95.472656 44.734375 C 96.242188 44.734375 96.875 44.230469 97.390625 43.214844 C 97.628906 42.605469 97.753906 42.027344 97.753906 41.5 L 97.753906 41.234375 C 97.753906 40.3125 97.464844 39.472656 96.894531 38.695312 C 96.429688 38.21875 95.953125 37.96875 95.472656 37.96875 L 95.441406 37.96875 C 94.664062 37.96875 94.027344 38.464844 93.523438 39.453125 C 93.261719 40.03125 93.128906 40.667969 93.128906 41.367188 Z M 93.128906 41.367188 " fill-opacity="1" fill-rule="nonzero"/><path fill="#000000" d="M 106.136719 36.816406 L 106.300781 36.816406 C 107.203125 36.816406 107.988281 37.144531 108.648438 37.804688 C 109.28125 38.515625 109.605469 39.324219 109.605469 40.246094 L 109.605469 43.511719 C 109.605469 44.4375 109.777344 44.988281 110.132812 45.164062 C 110.132812 45.1875 110.265625 45.21875 110.53125 45.261719 L 111.554688 45.261719 L 111.585938 45.292969 L 111.585938 45.789062 L 111.554688 45.824219 L 109.109375 45.824219 C 108.449219 45.824219 108.019531 45.328125 107.820312 44.335938 C 107.773438 44.230469 107.753906 44.105469 107.753906 43.976562 L 107.753906 40.476562 C 107.753906 39.339844 107.34375 38.589844 106.535156 38.234375 C 106.203125 38.125 105.847656 38.070312 105.476562 38.070312 C 104.789062 38.09375 104.121094 38.429688 103.460938 39.089844 C 103.214844 39.378906 103.097656 39.675781 103.097656 39.980469 L 103.097656 45.824219 L 101.25 45.824219 L 101.25 38.960938 C 101.25 38.390625 101.015625 37.996094 100.554688 37.773438 L 100.191406 37.738281 L 99.367188 37.738281 L 99.332031 37.707031 L 99.332031 36.945312 L 99.367188 36.914062 L 101.613281 36.914062 C 102.179688 36.914062 102.617188 37.226562 102.933594 37.835938 L 103 38.132812 C 103.964844 37.277344 105.015625 36.839844 106.136719 36.816406 Z M 106.136719 36.816406 " fill-opacity="1" fill-rule="nonzero"/><path fill="#000000" d="M 118.335938 37.9375 C 117.410156 37.566406 116.683594 37.375 116.15625 37.375 C 114.242188 37.375 113.28125 38.644531 113.28125 41.171875 C 113.28125 42.316406 113.488281 43.214844 113.910156 43.875 C 114.375 44.601562 115.042969 44.964844 115.925781 44.964844 C 116.917969 44.964844 117.71875 44.601562 118.335938 43.875 Z M 120.417969 43.710938 C 120.566406 44.460938 120.953125 44.988281 121.574219 45.292969 C 121.722656 45.34375 121.839844 45.359375 121.90625 45.359375 L 122.234375 45.359375 L 122.269531 45.394531 L 122.269531 45.824219 L 122.234375 45.855469 L 119.890625 45.855469 C 119.179688 45.855469 118.742188 45.558594 118.566406 44.964844 L 118.535156 44.832031 L 118.535156 44.765625 L 118.46875 44.699219 L 118.335938 44.699219 C 117.675781 45.386719 116.636719 45.722656 115.230469 45.722656 C 113.910156 45.722656 112.871094 45.277344 112.128906 44.371094 C 111.441406 43.5625 111.101562 42.488281 111.101562 41.171875 C 111.101562 39.851562 111.449219 38.785156 112.160156 37.96875 C 112.953125 37.070312 114.050781 36.617188 115.464844 36.617188 C 116.453125 36.617188 117.410156 36.804688 118.335938 37.179688 L 118.335938 35.496094 C 118.335938 34.882812 118.238281 34.4375 118.039062 34.175781 C 117.816406 33.828125 117.386719 33.648438 116.75 33.648438 L 116.289062 33.648438 L 116.289062 33.285156 L 118.335938 33.285156 C 119.144531 33.285156 119.699219 33.433594 119.988281 33.714844 C 120.269531 34.003906 120.417969 34.597656 120.417969 35.496094 Z M 120.417969 43.710938 " fill-opacity="1" fill-rule="nonzero"/><path fill="#000000" d="M 125.539062 36.582031 L 125.671875 36.582031 C 127.140625 36.582031 128.3125 37.144531 129.171875 38.265625 C 129.519531 38.820312 129.703125 39.519531 129.703125 40.378906 C 129.703125 41.746094 129.1875 42.777344 128.183594 43.480469 C 127.585938 43.875 126.835938 44.074219 125.9375 44.074219 C 125.40625 44.074219 124.863281 44 124.316406 43.84375 L 124.316406 43.875 C 124.597656 44.429688 125.144531 44.847656 125.9375 45.128906 C 126.199219 45.21875 126.414062 45.261719 126.597656 45.261719 L 128.378906 45.261719 L 128.414062 45.292969 L 128.414062 45.757812 L 128.378906 45.789062 L 125.671875 45.789062 C 124.960938 45.789062 124.160156 45.542969 123.261719 45.03125 C 122.878906 44.765625 122.597656 44.46875 122.402344 44.140625 C 121.871094 43.175781 121.609375 41.960938 121.609375 40.511719 L 121.609375 40.179688 C 121.609375 39.304688 121.871094 38.589844 122.402344 38.035156 C 122.597656 37.820312 122.796875 37.640625 122.996094 37.507812 C 123.855469 36.898438 124.695312 36.582031 125.539062 36.582031 Z M 123.625 40.3125 C 123.625 41.433594 124.003906 42.308594 124.78125 42.917969 C 125.109375 43.101562 125.40625 43.183594 125.671875 43.183594 C 126.375 43.183594 126.960938 42.722656 127.421875 41.796875 C 127.621094 41.335938 127.71875 40.839844 127.71875 40.3125 C 127.71875 39.304688 127.371094 38.480469 126.695312 37.835938 C 126.363281 37.574219 126.019531 37.441406 125.671875 37.441406 C 124.960938 37.441406 124.390625 37.894531 123.953125 38.792969 C 123.730469 39.28125 123.625 39.785156 123.625 40.3125 Z M 123.625 40.3125 " fill-opacity="1" fill-rule="nonzero"/><path fill="#000000" d="M 135.503906 37.113281 L 135.667969 37.113281 C 135.773438 37.113281 135.875 37.261719 135.964844 37.539062 L 135.964844 37.605469 C 135.941406 37.632812 135.816406 37.6875 135.601562 37.773438 C 135.445312 37.835938 135.304688 37.902344 135.171875 37.96875 C 134.988281 38.035156 134.726562 38.191406 134.378906 38.429688 C 134.132812 38.5625 133.898438 38.761719 133.683594 39.027344 C 133.460938 39.3125 133.355469 39.585938 133.355469 39.851562 L 133.355469 45.789062 L 131.472656 45.789062 L 131.472656 39.15625 C 131.472656 38.457031 131.25 38.019531 130.8125 37.835938 C 130.679688 37.796875 130.546875 37.773438 130.414062 37.773438 L 129.554688 37.773438 L 129.554688 36.945312 L 131.800781 36.945312 C 132.304688 36.945312 132.710938 37.179688 133.023438 37.640625 C 133.15625 37.902344 133.222656 38.132812 133.222656 38.332031 L 133.222656 38.367188 C 133.726562 37.96875 134.261719 37.632812 134.839844 37.34375 C 135.105469 37.210938 135.320312 37.136719 135.503906 37.113281 Z M 135.503906 37.113281 " fill-opacity="1" fill-rule="nonzero"/><path fill="#000000" d="M 138.929688 44.667969 C 138.90625 45.460938 138.476562 45.839844 137.640625 45.824219 L 135.5625 45.789062 L 135.527344 45.757812 L 135.527344 45.292969 L 135.5625 45.261719 L 136.453125 45.261719 C 136.667969 45.21875 136.78125 45.1875 136.78125 45.164062 C 137.089844 44.988281 137.253906 44.4375 137.277344 43.511719 L 137.3125 40.246094 L 137.3125 37.738281 L 136.453125 37.738281 L 136.453125 37.046875 L 137.3125 37.046875 L 137.3125 36.519531 C 137.3125 34.539062 138.566406 33.464844 141.078125 33.285156 L 140.945312 34.40625 C 139.597656 34.300781 138.929688 35 138.929688 36.519531 L 138.929688 37.046875 L 140.515625 37.046875 L 140.515625 37.738281 L 138.929688 37.738281 Z M 138.929688 44.667969 " fill-opacity="1" fill-rule="nonzero"/><path fill="#000000" d="M 146.207031 45.824219 L 146.042969 45.824219 C 145.160156 45.824219 144.390625 45.492188 143.730469 44.832031 C 143.085938 44.132812 142.773438 43.316406 142.773438 42.390625 L 142.773438 39.15625 C 142.773438 38.234375 142.589844 37.699219 142.246094 37.539062 C 142.246094 37.5 142.113281 37.457031 141.847656 37.410156 L 140.824219 37.410156 L 140.792969 37.375 L 140.792969 36.914062 L 140.824219 36.878906 L 143.234375 36.878906 C 143.914062 36.878906 144.359375 37.367188 144.558594 38.332031 C 144.574219 38.449219 144.589844 38.5625 144.589844 38.695312 L 144.589844 42.160156 C 144.589844 43.304688 144.996094 44.039062 145.8125 44.371094 C 146.160156 44.503906 146.515625 44.570312 146.871094 44.570312 C 147.398438 44.570312 147.976562 44.238281 148.621094 43.578125 C 148.859375 43.296875 148.984375 43 148.984375 42.6875 L 148.984375 36.914062 L 149.015625 36.878906 L 150.800781 36.878906 L 150.832031 36.914062 L 150.832031 43.710938 C 150.832031 44.289062 151.0625 44.667969 151.527344 44.867188 L 151.890625 44.929688 L 152.714844 44.929688 L 152.75 44.964844 L 152.75 45.722656 L 152.714844 45.757812 L 150.46875 45.757812 C 149.917969 45.757812 149.488281 45.453125 149.179688 44.832031 L 149.082031 44.503906 C 148.109375 45.386719 147.148438 45.824219 146.207031 45.824219 Z M 146.207031 45.824219 " fill-opacity="1" fill-rule="nonzero"/><path fill="#000000" d="M 153.808594 35.792969 C 153.808594 35.460938 153.722656 35.164062 153.574219 34.902344 C 153.394531 34.6875 153.054688 34.605469 152.550781 34.671875 L 152.1875 34.671875 L 152.1875 33.976562 L 153.808594 33.976562 C 154.285156 33.960938 154.683594 34.09375 154.996094 34.375 C 155.277344 34.570312 155.425781 35.050781 155.425781 35.792969 L 155.425781 43.511719 C 155.425781 44.421875 155.574219 44.957031 155.886719 45.128906 C 155.886719 45.179688 156.003906 45.21875 156.25 45.261719 L 157.144531 45.261719 L 157.175781 45.292969 L 157.175781 45.757812 L 157.144531 45.789062 L 154.996094 45.789062 C 154.402344 45.789062 154.011719 45.3125 153.839844 44.335938 C 153.816406 44.230469 153.808594 44.105469 153.808594 43.976562 Z M 153.808594 35.792969 " fill-opacity="1" fill-rule="nonzero"/><path fill="#000000" d="M 79.53125 53.816406 C 79.53125 52.652344 79.398438 51.820312 79.132812 51.308594 C 78.753906 50.714844 78.09375 50.417969 77.152344 50.417969 L 76.457031 50.417969 L 76.457031 49.726562 L 79.53125 49.726562 C 80.785156 49.726562 81.59375 49.980469 81.972656 50.484375 C 82.386719 51.011719 82.601562 52.125 82.601562 53.816406 L 82.601562 64.902344 C 82.601562 67.542969 82.171875 69.398438 81.3125 70.480469 C 80.386719 71.640625 78.710938 72.226562 76.292969 72.226562 L 76.292969 71.566406 C 78.449219 71.566406 79.53125 69.339844 79.53125 64.902344 Z M 79.53125 53.816406 " fill-opacity="1" fill-rule="nonzero"/><path fill="#000000" d="M 97.507812 46.820312 L 97.542969 46.855469 L 97.574219 47.546875 C 97.574219 48.933594 97.046875 49.875 95.988281 50.351562 L 95.691406 50.484375 C 96.261719 50.796875 96.980469 51.367188 97.839844 52.199219 C 99.226562 53.875 99.917969 55.722656 99.917969 57.742188 C 99.917969 59.90625 99.109375 61.835938 97.507812 63.550781 C 95.832031 65.183594 93.890625 65.992188 91.695312 65.992188 C 89.160156 65.992188 87.003906 64.917969 85.21875 62.757812 C 84.097656 61.199219 83.535156 59.558594 83.535156 57.84375 L 83.535156 57.609375 C 83.535156 55.195312 84.535156 53.089844 86.542969 51.308594 C 88.101562 50.078125 89.8125 49.460938 91.660156 49.460938 L 92.554688 49.496094 C 93.941406 49.1875 95.03125 48.867188 95.824219 48.539062 C 96.367188 48.257812 96.78125 47.96875 97.046875 47.679688 C 97.308594 47.414062 97.457031 47.136719 97.507812 46.820312 Z M 87.5 57.742188 C 87.5 59.96875 88.191406 61.769531 89.582031 63.15625 C 90.308594 63.75 91.066406 64.046875 91.859375 64.046875 C 93.289062 64.046875 94.484375 63.089844 95.460938 61.175781 C 95.921875 60.054688 96.152344 58.996094 96.152344 58.007812 L 96.152344 57.511719 C 96.152344 55.78125 95.609375 54.210938 94.535156 52.828125 C 93.691406 51.902344 92.800781 51.441406 91.859375 51.441406 C 90.382812 51.441406 89.191406 52.355469 88.292969 54.179688 C 87.765625 55.285156 87.5 56.472656 87.5 57.742188 Z M 87.5 57.742188 " fill-opacity="1" fill-rule="nonzero"/><path fill="#000000" d="M 106.734375 63.15625 C 104.621094 63.996094 103.566406 65.464844 103.566406 67.574219 C 103.566406 70.414062 105.183594 71.832031 108.421875 71.832031 C 111.609375 71.832031 113.210938 70.414062 113.210938 67.574219 C 113.210938 65.09375 111.722656 63.675781 108.75 63.320312 Z M 111.03125 50.453125 C 110.371094 49.773438 109.492188 49.429688 108.421875 49.429688 C 105.925781 49.429688 104.6875 50.847656 104.6875 53.683594 C 104.6875 56.523438 105.925781 57.941406 108.421875 57.941406 C 110.863281 57.941406 112.085938 56.523438 112.085938 53.683594 C 112.085938 52.28125 111.730469 51.203125 111.03125 50.453125 Z M 108.882812 48.273438 C 112.160156 47.53125 113.804688 46.617188 113.804688 45.535156 L 113.9375 45.535156 L 113.96875 46.160156 C 113.96875 47.664062 113.417969 48.703125 112.316406 49.296875 L 112.847656 49.429688 L 112.847656 49.625 C 114.582031 50.484375 115.457031 51.835938 115.457031 53.683594 C 115.457031 57.378906 113.109375 59.226562 108.421875 59.226562 C 105.792969 59.226562 104.488281 59.671875 104.488281 60.546875 C 104.488281 61.40625 105.792969 61.835938 108.421875 61.835938 C 110.800781 61.835938 112.699219 62.289062 114.136719 63.1875 C 115.738281 64.175781 116.546875 65.644531 116.546875 67.574219 C 116.546875 71.402344 113.835938 73.316406 108.421875 73.316406 C 102.953125 73.316406 100.230469 71.402344 100.230469 67.574219 C 100.230469 65.265625 101.582031 63.664062 104.292969 62.757812 C 103.300781 62.28125 102.804688 61.539062 102.804688 60.546875 C 102.804688 59.757812 103.242188 59.078125 104.125 58.503906 C 102.277344 57.578125 101.351562 55.976562 101.351562 53.683594 C 101.351562 49.988281 103.707031 48.140625 108.421875 48.140625 Z M 108.882812 48.273438 " fill-opacity="1" fill-rule="nonzero"/><path fill="#000000" d="M 120.011719 53.816406 C 120.011719 52.652344 119.882812 51.820312 119.617188 51.308594 C 119.238281 50.714844 118.578125 50.417969 117.636719 50.417969 L 116.941406 50.417969 L 116.941406 49.726562 L 120.011719 49.726562 C 121.269531 49.726562 122.078125 49.980469 122.457031 50.484375 C 122.871094 51.011719 123.085938 52.125 123.085938 53.816406 L 123.085938 64.902344 C 123.085938 67.542969 122.65625 69.398438 121.796875 70.480469 C 120.871094 71.640625 119.195312 72.226562 116.777344 72.226562 L 116.777344 71.566406 C 118.929688 71.566406 120.011719 69.339844 120.011719 64.902344 Z M 120.011719 53.816406 " fill-opacity="1" fill-rule="nonzero"/><path fill="#000000" d="M 127.621094 49.230469 L 131.914062 49.230469 C 132.523438 49.230469 133.242188 49.394531 134.0625 49.726562 C 135.265625 50.253906 136.125 51.09375 136.636719 52.234375 C 136.769531 52.5625 136.867188 52.894531 136.933594 53.222656 C 137.042969 53.75 137.101562 54.164062 137.101562 54.445312 L 137.132812 54.9375 C 139.113281 54.527344 140.289062 54.261719 140.667969 54.148438 C 141.410156 53.882812 141.90625 53.503906 142.152344 52.992188 C 142.261719 52.726562 142.320312 52.496094 142.320312 52.300781 L 142.320312 52.234375 L 142.351562 52.234375 C 142.484375 52.585938 142.550781 52.941406 142.550781 53.289062 C 142.550781 54.195312 142.0625 54.972656 141.097656 55.632812 C 140.808594 55.828125 140.484375 55.984375 140.136719 56.09375 C 139.847656 56.183594 139.460938 56.273438 138.984375 56.355469 C 138.320312 56.472656 137.703125 56.582031 137.132812 56.6875 L 137.132812 62.496094 C 137.132812 63.023438 137.214844 63.550781 137.398438 64.078125 C 137.480469 64.324219 137.628906 64.539062 137.828125 64.738281 C 138.105469 64.960938 138.386719 65.066406 138.652344 65.066406 L 139.511719 65.066406 L 139.542969 65.101562 L 139.542969 66.058594 L 136.605469 66.058594 C 135.480469 66.058594 134.695312 65.457031 134.257812 64.242188 C 134.167969 64.070312 134.078125 63.773438 133.996094 63.351562 L 133.960938 63.15625 C 132.085938 65.027344 130.171875 65.957031 128.214844 65.957031 C 127.503906 65.957031 126.792969 65.828125 126.066406 65.5625 C 125.820312 65.429688 125.570312 65.28125 125.308594 65.101562 C 124.382812 64.332031 123.921875 63.417969 123.921875 62.363281 L 123.921875 62.296875 C 123.921875 61.53125 124.167969 60.710938 124.679688 59.855469 C 125.09375 59.21875 125.710938 58.625 126.53125 58.074219 C 127.035156 57.742188 127.570312 57.4375 128.148438 57.148438 C 128.851562 56.804688 129.707031 56.472656 130.722656 56.160156 C 131.492188 55.945312 132.0625 55.828125 132.441406 55.828125 C 132.855469 55.789062 133.34375 55.714844 133.894531 55.597656 L 133.894531 54.3125 C 133.894531 53.71875 133.746094 53.050781 133.464844 52.300781 C 133.375 52.101562 133.242188 51.871094 133.070312 51.605469 C 132.847656 51.300781 132.542969 51.09375 132.144531 50.980469 C 132.078125 50.9375 131.757812 50.914062 131.1875 50.914062 L 127.621094 50.78125 L 127.585938 50.78125 L 127.585938 49.230469 Z M 127.585938 61.40625 L 127.585938 61.4375 C 127.585938 62.058594 127.785156 62.652344 128.179688 63.21875 C 128.578125 63.707031 129.105469 63.945312 129.765625 63.945312 C 130.296875 63.945312 130.839844 63.78125 131.417969 63.453125 L 133.894531 61.605469 L 133.894531 57.183594 C 132.855469 57.363281 131.945312 57.59375 131.152344 57.875 C 130.136719 58.207031 129.445312 58.527344 129.074219 58.832031 C 128.652344 59.144531 128.320312 59.476562 128.082031 59.820312 C 127.75 60.351562 127.585938 60.878906 127.585938 61.40625 Z M 127.585938 61.40625 " fill-opacity="1" fill-rule="nonzero"/></svg>