<svg xmlns="http://www.w3.org/2000/svg" xmlns:xlink="http://www.w3.org/1999/xlink" width="500" zoomAndPan="magnify" viewBox="0 0 375 374.999991" height="500" preserveAspectRatio="xMidYMid meet" version="1.0"><defs><g/><clipPath id="e89cb916a9"><path d="M 152 155 L 333.996094 155 L 333.996094 306.378906 L 152 306.378906 Z M 152 155 " clip-rule="nonzero"/></clipPath><clipPath id="e9c669ce9e"><path d="M 40.746094 104 L 132 104 L 132 227 L 40.746094 227 Z M 40.746094 104 " clip-rule="nonzero"/></clipPath><clipPath id="1bf15f832f"><path d="M 112 68.628906 L 229 68.628906 L 229 175 L 112 175 Z M 112 68.628906 " clip-rule="nonzero"/></clipPath><clipPath id="863a224b04"><path d="M 256.34375 222.222656 L 274.320312 222.222656 L 274.320312 249.222656 L 256.34375 249.222656 Z M 256.34375 222.222656 " clip-rule="nonzero"/></clipPath><clipPath id="acccd6cc10"><path d="M 136.535156 195.941406 L 154.511719 195.941406 L 154.511719 222.941406 L 136.535156 222.941406 Z M 136.535156 195.941406 " clip-rule="nonzero"/></clipPath><clipPath id="5e7e4b6850"><path d="M 169.605469 84.332031 L 187.582031 84.332031 L 187.582031 111.332031 L 169.605469 111.332031 Z M 169.605469 84.332031 " clip-rule="nonzero"/></clipPath><clipPath id="1ca7332996"><path d="M 76.492188 139.589844 L 94.46875 139.589844 L 94.46875 166.589844 L 76.492188 166.589844 Z M 76.492188 139.589844 " clip-rule="nonzero"/></clipPath></defs><g clip-path="url(#e89cb916a9)"><path fill="#bce3bf" d="M 232.390625 159.25 C 232.613281 158.804688 232.378906 158.546875 232.296875 158.269531 C 231.871094 156.835938 232.730469 155.515625 234.230469 155.335938 C 234.527344 155.296875 234.839844 155.300781 235.140625 155.324219 C 238.121094 155.582031 240.988281 156.269531 243.664062 157.628906 C 244.527344 158.066406 244.679688 158.71875 244.125 159.5 C 243.550781 160.3125 242.902344 161.054688 242.019531 161.5625 C 241.726562 161.738281 241.4375 161.925781 241.175781 162.144531 C 240.925781 162.347656 240.550781 162.554688 240.863281 162.960938 C 241.175781 163.363281 241.6875 163.402344 242.046875 163.070312 C 242.296875 162.835938 242.5 162.554688 242.765625 162.339844 C 243.421875 161.800781 243.941406 161.824219 244.582031 162.390625 C 244.640625 162.441406 244.703125 162.488281 244.742188 162.550781 C 245.519531 163.773438 246.746094 163.570312 247.914062 163.546875 C 248.355469 163.539062 248.429688 163.300781 248.257812 162.941406 C 248.125 162.671875 247.949219 162.417969 247.832031 162.140625 C 247.53125 161.429688 247.558594 161.203125 248.25 160.851562 C 249.160156 160.386719 250.082031 159.917969 251.085938 159.679688 C 251.96875 159.472656 252.722656 159.675781 253.308594 160.4375 C 253.605469 160.824219 253.847656 161.277344 254.308594 161.507812 C 254.613281 161.417969 254.65625 161.113281 254.824219 160.917969 C 255.4375 160.195312 255.960938 160.144531 256.664062 160.761719 C 256.835938 160.914062 256.984375 161.089844 257.15625 161.242188 C 257.933594 161.914062 258.042969 161.933594 258.917969 161.390625 C 259.386719 161.097656 259.882812 160.945312 260.425781 160.941406 C 260.769531 160.9375 261.121094 160.890625 261.453125 160.945312 C 262.746094 161.175781 263.597656 160.679688 264.289062 159.570312 C 264.988281 158.445312 265.496094 158.464844 266.433594 159.460938 C 267.085938 160.148438 267.683594 160.890625 268.304688 161.613281 C 268.5 161.84375 268.667969 162.097656 269.054688 162.246094 C 269.652344 161.359375 270.375 160.507812 270.839844 159.535156 C 271.242188 158.699219 271.753906 158.175781 272.632812 157.960938 C 272.851562 157.90625 273.082031 157.867188 273.246094 157.664062 C 273.257812 157.1875 272.867188 156.851562 272.777344 156.40625 C 272.703125 156.015625 272.777344 155.722656 273.246094 155.675781 C 274.085938 155.59375 274.910156 155.644531 275.707031 155.964844 C 276.277344 156.195312 276.464844 156.6875 276.539062 157.230469 C 276.660156 158.121094 276.535156 158.976562 276.085938 159.765625 C 275.859375 160.160156 275.605469 160.546875 275.394531 160.945312 C 274.847656 162 275.007812 162.3125 276.164062 162.394531 C 276.582031 162.421875 277 162.457031 277.398438 162.582031 C 277.941406 162.75 278.484375 162.925781 279.003906 163.160156 C 280.558594 163.867188 282.152344 163.960938 283.789062 163.523438 C 285.261719 163.128906 286.722656 162.726562 287.941406 161.738281 C 288.910156 160.953125 288.914062 160.964844 288.527344 159.769531 C 288.460938 159.550781 288.390625 159.332031 288.347656 159.109375 C 288.226562 158.464844 288.484375 158.09375 289.144531 157.988281 C 289.636719 157.914062 290.140625 157.945312 290.613281 158.113281 C 292.515625 158.792969 294.375 159.566406 295.902344 160.949219 C 296.726562 161.695312 297.679688 162.253906 298.621094 162.816406 C 299.515625 163.347656 299.96875 164.109375 300.101562 165.121094 C 300.222656 166.027344 300.425781 166.917969 300.871094 167.730469 C 301.050781 168.058594 301.246094 168.210938 301.691406 168.050781 C 302.671875 167.695312 303.144531 167.949219 303.574219 168.878906 C 303.722656 169.195312 303.75 169.539062 303.832031 169.867188 C 304.019531 170.621094 304.269531 170.777344 305.175781 170.765625 C 306.011719 170.753906 306.09375 170.644531 306.332031 169.828125 C 306.523438 169.171875 306.410156 168.558594 306.28125 167.921875 C 306.074219 166.890625 306.21875 166.53125 307.160156 166.101562 C 307.535156 165.929688 307.628906 165.734375 307.714844 165.367188 C 307.882812 164.648438 308.269531 164.359375 309.035156 164.378906 C 309.867188 164.402344 310.695312 164.523438 311.53125 164.59375 C 312.136719 164.644531 312.367188 165 312.414062 165.578125 C 312.484375 166.46875 312.5 166.46875 313.390625 166.519531 C 313.582031 166.53125 313.777344 166.519531 313.960938 166.558594 C 314.890625 166.738281 315.34375 167.242188 315.375 168.199219 C 315.414062 169.265625 315.265625 170.324219 315.011719 171.359375 C 314.546875 173.253906 314.546875 175.125 315.234375 176.964844 C 315.390625 177.375 315.394531 177.757812 315.238281 178.179688 C 315.070312 178.636719 314.871094 179.105469 314.988281 179.636719 C 315.261719 179.839844 315.5625 179.667969 315.84375 179.65625 C 316.769531 179.632812 317.089844 179.960938 316.789062 180.792969 C 316.339844 182.035156 316.015625 183.363281 314.855469 184.214844 C 314.464844 184.5 314.429688 184.914062 314.539062 185.347656 C 314.679688 185.902344 314.839844 186.445312 314.988281 186.996094 C 315.390625 188.507812 315.285156 188.785156 313.96875 189.617188 C 312.507812 190.546875 311.855469 192.570312 312.496094 194.191406 C 312.859375 195.105469 312.8125 195.601562 312.015625 196.1875 C 310.09375 197.59375 310.058594 199.636719 310.03125 201.703125 C 310.027344 201.925781 310.152344 202.167969 310.101562 202.371094 C 309.726562 203.847656 310.191406 205.238281 310.503906 206.640625 C 310.625 207.179688 310.640625 207.65625 310.492188 208.199219 C 310.003906 210 309.75 211.84375 309.6875 213.710938 C 309.683594 213.824219 309.671875 213.945312 309.703125 214.050781 C 310.121094 215.679688 309.925781 217.25 309.46875 218.855469 C 308.925781 220.761719 309.296875 222.707031 309.589844 224.621094 C 309.84375 226.296875 309.53125 227.871094 308.886719 229.402344 C 308.429688 230.492188 307.496094 230.960938 306.359375 231.269531 C 306.546875 231.816406 306.914062 232.257812 306.941406 232.835938 C 306.988281 233.761719 306.757812 234.585938 306.117188 235.246094 C 305.613281 235.757812 305.351562 236.367188 305.167969 237.03125 C 304.738281 238.574219 304.328125 240.109375 304.410156 241.742188 C 304.46875 242.996094 304.789062 244.125 305.585938 245.121094 C 306.320312 246.046875 307.078125 246.949219 307.953125 247.742188 C 309.1875 248.855469 309.933594 250.210938 310.207031 251.863281 C 310.390625 252.949219 310.765625 253.992188 311.300781 254.96875 C 311.523438 255.371094 311.789062 255.726562 312.167969 256.007812 C 313.632812 257.09375 313.921875 258.722656 313.640625 260.296875 C 313.308594 262.132812 313.539062 263.738281 314.457031 265.320312 C 315.8125 267.664062 316.363281 270.269531 316.816406 272.902344 C 317.214844 275.230469 316.863281 277.523438 316.449219 279.804688 C 316.007812 282.230469 316.03125 284.644531 316.566406 287.042969 C 316.972656 288.847656 317.976562 290.121094 319.890625 290.542969 C 320.691406 290.71875 321.300781 290.53125 321.839844 289.945312 C 322.425781 289.304688 322.714844 288.523438 322.929688 287.710938 C 322.996094 287.453125 323.046875 287.191406 323.085938 286.929688 C 323.207031 286.046875 323.375 285.191406 324.191406 284.65625 C 325.191406 284 326.234375 283.476562 327.484375 283.558594 C 327.75 283.578125 328.027344 283.550781 328.164062 283.855469 C 328.3125 284.191406 328.160156 284.441406 327.917969 284.660156 C 327.25 285.253906 326.78125 285.980469 326.417969 286.789062 C 326.113281 287.460938 326.226562 288.023438 326.769531 288.535156 C 327.222656 288.960938 327.746094 289.253906 328.296875 289.515625 C 329.148438 289.925781 329.683594 290.519531 329.632812 291.558594 C 329.5625 292.886719 330.390625 293.640625 331.484375 294.164062 C 331.789062 294.3125 332.128906 294.378906 332.449219 294.507812 C 333.539062 294.9375 333.972656 295.851562 333.277344 296.753906 C 332.371094 297.917969 332.585938 298.851562 333.332031 299.933594 C 333.890625 300.734375 333.757812 301.066406 332.917969 301.597656 C 332.664062 301.761719 332.390625 301.898438 332.128906 302.058594 C 331.132812 302.667969 331.011719 302.96875 331.28125 304.132812 C 331.300781 304.203125 331.339844 304.273438 331.355469 304.351562 C 331.441406 304.902344 331.660156 305.503906 331.238281 305.976562 C 330.902344 306.355469 329.355469 306.386719 328.96875 305.972656 C 327.859375 304.78125 326.375 304.808594 324.964844 304.605469 C 323.578125 304.40625 322.164062 304.402344 320.777344 304.152344 C 319.257812 303.871094 319.148438 303.75 319.28125 302.238281 C 319.292969 302.09375 319.351562 301.9375 319.167969 301.765625 C 317.9375 302.117188 316.703125 302.597656 315.394531 302.820312 C 312.921875 303.242188 310.453125 303.59375 307.933594 303.710938 C 306.496094 303.78125 305.042969 303.71875 303.605469 303.882812 C 302.917969 303.964844 302.253906 303.847656 301.585938 303.636719 C 300.503906 303.289062 299.386719 303.058594 298.242188 302.972656 C 297.683594 302.933594 297.199219 303.011719 296.730469 303.324219 C 295.945312 303.84375 295.089844 304.085938 294.140625 304.042969 C 293.171875 304.003906 292.265625 304.246094 291.421875 304.753906 C 289.648438 305.835938 288.09375 305.132812 286.453125 304.042969 C 286.003906 303.746094 286.050781 303.332031 286.433594 302.992188 C 286.863281 302.617188 287.328125 302.28125 287.769531 301.925781 C 288.433594 301.390625 288.648438 300.761719 288.433594 300.015625 C 288.238281 299.34375 287.875 299.097656 287.167969 299.183594 C 286.375 299.277344 285.59375 299.460938 284.84375 299.730469 C 282.632812 300.515625 280.46875 300.382812 278.269531 299.605469 C 275.109375 298.488281 272.078125 297.070312 269.082031 295.59375 C 263.558594 292.871094 258.078125 290.058594 252.578125 287.292969 C 251.339844 286.667969 249.996094 286.671875 248.667969 286.820312 C 247.757812 286.917969 246.847656 286.871094 245.941406 286.867188 C 244.640625 286.863281 243.585938 286.222656 242.863281 285.167969 C 242.074219 284.015625 240.945312 283.464844 239.679688 283.117188 C 237.660156 282.566406 235.589844 282.285156 233.507812 282.101562 C 232.339844 282 231.246094 281.808594 230.507812 280.597656 C 229.878906 281.75 228.949219 281.734375 227.921875 281.535156 C 224.90625 280.960938 222.105469 279.792969 219.351562 278.492188 C 217.667969 277.695312 216.011719 276.847656 214.320312 276.058594 C 211.371094 274.679688 208.242188 273.917969 205.023438 273.5 C 204.035156 273.375 203.082031 273.089844 202.199219 272.636719 C 199.609375 271.304688 196.824219 270.535156 194.019531 269.847656 C 192.539062 269.484375 191.101562 269 189.671875 268.488281 C 188.792969 268.171875 188.113281 267.710938 188.171875 266.613281 C 188.203125 266.042969 187.816406 265.707031 187.335938 265.5 C 186.671875 265.21875 186.007812 264.921875 185.316406 264.722656 C 183.019531 264.0625 180.890625 262.902344 178.574219 262.363281 C 175.933594 261.753906 173.382812 260.910156 170.847656 259.984375 C 170.386719 259.816406 169.941406 259.589844 169.480469 259.417969 C 168.28125 258.972656 167.363281 258.183594 166.824219 257.042969 C 166.164062 255.644531 165.15625 254.636719 163.851562 253.839844 C 162.390625 252.949219 161.34375 251.648438 160.511719 250.164062 C 159.675781 248.671875 158.835938 247.179688 158.160156 245.601562 C 158.085938 245.429688 158.015625 245.167969 157.878906 245.121094 C 156.875 244.742188 157.019531 243.847656 156.867188 243.054688 C 156.648438 241.886719 155.988281 240.921875 155.046875 240.238281 C 153.433594 239.0625 152.953125 237.289062 152.460938 235.546875 C 152.101562 234.257812 153.378906 232.402344 154.816406 231.886719 C 156.035156 231.445312 157.277344 231.457031 158.519531 231.789062 C 158.921875 231.898438 159.308594 232.066406 159.710938 232.175781 C 160.390625 232.355469 160.695312 232.222656 161 231.59375 C 161.167969 231.253906 161.316406 230.898438 161.421875 230.535156 C 161.824219 229.140625 161.4375 228.566406 159.871094 228.390625 C 160.476562 227.453125 161.265625 226.570312 160.519531 225.292969 C 161.140625 225.527344 161.484375 225.878906 161.851562 226.203125 C 162.398438 226.6875 163.011719 227.070312 163.722656 227.253906 C 164.773438 227.519531 165.410156 227.152344 165.679688 226.101562 C 165.800781 225.628906 165.851562 225.132812 165.933594 224.628906 C 166.28125 224.507812 166.453125 224.835938 166.691406 224.976562 C 167.511719 225.457031 168.308594 225.980469 169.144531 226.429688 C 170.421875 227.121094 171.765625 227.375 173.207031 226.964844 C 173.789062 226.800781 174.402344 226.761719 175 226.671875 C 175.417969 226.609375 175.816406 226.464844 176.175781 226.257812 C 176.777344 225.90625 176.902344 225.59375 176.671875 224.929688 C 176.460938 224.320312 176.175781 223.734375 175.960938 223.128906 C 175.789062 222.648438 175.917969 222.480469 176.429688 222.539062 C 177.574219 222.671875 178.65625 223.023438 179.695312 223.503906 C 181.242188 224.226562 182.871094 224.226562 184.511719 224.070312 C 185.863281 223.945312 186.933594 223.257812 187.820312 222.238281 C 188.871094 221.027344 189.578125 220.871094 190.980469 221.496094 C 192.578125 222.203125 193.164062 221.808594 193.203125 220.035156 C 193.21875 219.378906 193.167969 218.730469 192.960938 218.121094 C 192.714844 217.402344 192.828125 216.777344 193.214844 216.167969 C 193.316406 216.003906 193.394531 215.828125 193.5 215.671875 C 193.777344 215.285156 193.863281 214.554688 194.394531 214.609375 C 195.089844 214.679688 195.753906 215.058594 196.246094 215.632812 C 196.464844 215.882812 196.390625 216.113281 196.246094 216.363281 C 195.980469 216.824219 195.679688 217.269531 195.464844 217.75 C 194.777344 219.289062 195.03125 220.84375 196.09375 221.855469 C 196.371094 222.117188 196.652344 222.425781 197.085938 222.21875 C 197.472656 222.03125 197.796875 221.75 197.820312 221.273438 C 197.84375 220.742188 197.871094 220.207031 197.832031 219.675781 C 197.777344 218.980469 198.03125 218.484375 198.636719 218.175781 C 199.035156 217.972656 199.355469 217.628906 199.78125 217.519531 C 199.875 217.597656 199.957031 217.636719 199.984375 217.699219 C 200.402344 218.507812 200.808594 219.3125 201.238281 220.160156 C 200.667969 220.59375 200.125 221.015625 199.777344 221.617188 C 199.300781 222.445312 199.519531 222.886719 200.457031 222.984375 C 201.445312 223.089844 202.402344 223.289062 203.339844 223.628906 C 203.796875 223.796875 204.285156 223.933594 204.78125 223.695312 C 205.203125 223.496094 205.359375 223.222656 205.097656 222.792969 C 205.058594 222.726562 205.027344 222.648438 204.96875 222.601562 C 204.140625 221.910156 204.152344 220.949219 204.164062 220.007812 C 204.171875 219.421875 204.011719 218.882812 203.824219 218.339844 C 203.648438 217.832031 203.636719 217.402344 204.195312 217.066406 C 205.0625 216.546875 205.324219 215.683594 205.378906 214.726562 C 205.402344 214.308594 205.464844 213.894531 205.488281 213.476562 C 205.511719 212.941406 205.835938 212.847656 206.257812 212.945312 C 206.8125 213.078125 207.347656 213.28125 207.902344 213.40625 C 209.3125 213.722656 210.371094 212.589844 209.988281 211.183594 C 209.929688 210.964844 209.863281 210.734375 209.746094 210.546875 C 209.085938 209.484375 209.292969 208.441406 209.808594 207.410156 C 209.976562 207.070312 210.167969 206.738281 210.355469 206.40625 C 211.410156 204.546875 211.90625 202.535156 211.917969 200.40625 C 211.925781 199 212.082031 197.601562 212.296875 196.214844 C 212.464844 195.125 212.210938 194.59375 211.238281 194.082031 C 210.410156 193.644531 209.5 193.550781 208.585938 193.496094 C 208.199219 193.472656 207.820312 193.476562 207.53125 193.167969 C 206.777344 192.355469 205.800781 191.929688 204.761719 191.664062 C 203.65625 191.375 203.183594 190.671875 202.988281 189.574219 C 202.472656 186.6875 202.855469 183.976562 204.304688 181.425781 C 204.796875 180.566406 205.316406 179.722656 205.765625 178.84375 C 206.324219 177.738281 207.234375 177.136719 208.386719 176.820312 C 210.519531 176.234375 212.699219 175.9375 214.90625 175.789062 C 216.308594 175.695312 217.699219 175.488281 219.074219 175.191406 C 220.117188 174.964844 220.347656 174.738281 220.425781 173.699219 C 220.453125 173.308594 220.605469 173.167969 220.933594 173.078125 C 221.917969 172.824219 222.792969 172.414062 223.28125 171.433594 C 223.460938 171.078125 223.847656 171.097656 224.175781 171.023438 C 225.144531 170.816406 226.117188 170.648438 227.070312 170.398438 C 228.355469 170.066406 228.46875 169.800781 228.6875 168.449219 C 228.988281 166.613281 229.03125 164.738281 229.519531 162.941406 C 229.832031 161.796875 229.578125 160.785156 229.070312 159.769531 C 228.90625 159.441406 228.410156 159.113281 228.804688 158.675781 C 229.226562 158.207031 229.792969 158.125 230.378906 158.335938 C 230.769531 158.472656 231.136719 158.679688 231.515625 158.855469 C 231.792969 158.988281 232.070312 159.105469 232.390625 159.25 Z M 232.390625 159.25 " fill-opacity="1" fill-rule="nonzero"/></g><g clip-path="url(#e9c669ce9e)"><path fill="#bce3bf" d="M 45.554688 194.960938 C 45.871094 194.710938 46.042969 194.445312 46.109375 194.082031 C 46.476562 191.988281 46.859375 191.636719 48.902344 191.515625 C 48.691406 190.539062 48.992188 189.664062 49.425781 188.800781 C 49.863281 187.933594 49.894531 187.054688 49.347656 186.195312 C 48.949219 185.5625 49.019531 184.886719 49.226562 184.210938 C 49.625 182.902344 50.429688 181.84375 51.351562 180.871094 C 51.875 180.3125 52.257812 179.8125 51.929688 178.957031 C 51.652344 178.234375 52.046875 177.628906 52.640625 177.183594 C 53.449219 176.574219 54.359375 176.257812 55.472656 176.4375 C 55.34375 175.78125 55.234375 175.269531 55.140625 174.753906 C 54.953125 173.734375 54.910156 172.71875 55.191406 171.699219 C 55.566406 170.339844 55.898438 168.972656 55.765625 167.546875 C 55.703125 166.914062 56.019531 166.65625 56.597656 166.570312 C 57.890625 166.378906 59.0625 165.820312 60.265625 165.355469 C 61.445312 164.898438 62.3125 164.105469 62.933594 162.988281 C 64.675781 159.832031 67.113281 157.210938 69.445312 154.503906 C 69.992188 153.867188 70.667969 153.539062 71.515625 153.449219 C 72.34375 153.367188 73.160156 153.148438 73.984375 152.996094 C 74.347656 152.929688 74.515625 152.738281 74.429688 152.359375 C 74.421875 152.324219 74.429688 152.28125 74.421875 152.242188 C 73.902344 150.648438 74.601562 149.371094 75.46875 148.121094 C 76.054688 147.277344 76.570312 146.367188 77.304688 145.652344 C 78.621094 144.371094 79.769531 142.988281 80.6875 141.382812 C 81.125 140.621094 81.4375 139.882812 81.335938 139.023438 C 81.171875 137.621094 81.265625 136.230469 81.304688 134.824219 C 81.335938 133.539062 81.324219 132.261719 81.457031 130.976562 C 81.507812 130.472656 81.28125 129.9375 81.148438 129.421875 C 81.003906 128.871094 80.800781 128.335938 80.664062 127.78125 C 80.433594 126.875 80.558594 126.0625 81.289062 125.382812 C 81.730469 124.96875 82.101562 124.480469 82.5 124.019531 C 82.832031 123.636719 82.878906 123.226562 82.640625 122.765625 C 81.679688 120.886719 80.527344 119.15625 78.847656 117.832031 C 78.398438 117.476562 77.9375 117.136719 77.515625 116.757812 C 76.792969 116.105469 76.261719 115.328125 76.085938 114.347656 C 75.933594 113.492188 76.171875 113.078125 76.984375 112.761719 C 77.128906 112.707031 77.269531 112.652344 77.417969 112.609375 C 78.277344 112.367188 78.863281 111.835938 79.246094 111.019531 C 79.761719 109.914062 80.371094 108.859375 81.292969 108.023438 C 82.265625 107.140625 83.367188 106.648438 84.722656 106.855469 C 86.546875 107.132812 88.300781 106.875 89.894531 105.9375 C 90.921875 105.328125 91.804688 105.257812 92.847656 105.945312 C 94.703125 107.179688 96.769531 107.28125 98.882812 106.746094 C 100.246094 106.398438 101.59375 106.003906 102.953125 105.628906 C 104.601562 105.171875 104.820312 105.238281 105.820312 106.632812 C 106.300781 107.308594 106.78125 107.898438 107.75 107.777344 C 108.191406 107.722656 108.542969 107.5625 108.875 107.292969 C 109.226562 107.003906 109.570312 106.703125 109.941406 106.433594 C 110.554688 105.980469 111.214844 105.917969 111.847656 106.378906 C 112.886719 107.132812 114.023438 107.367188 115.292969 107.28125 C 116.566406 107.199219 117.769531 107.335938 118.699219 108.453125 C 119.222656 109.085938 119.730469 109.035156 120.40625 108.496094 C 121.125 107.921875 121.765625 107.253906 122.171875 106.425781 C 122.925781 104.910156 124.265625 104.628906 125.730469 104.753906 C 126.871094 104.851562 127.925781 105.355469 128.941406 105.878906 C 129.585938 106.210938 129.804688 106.742188 129.660156 107.519531 C 129.527344 108.226562 129.34375 108.925781 129.160156 109.625 C 128.992188 110.25 129.132812 110.695312 129.707031 111.078125 C 130.496094 111.601562 130.546875 111.828125 130.222656 112.703125 C 129.972656 113.378906 129.65625 114.03125 129.359375 114.6875 C 128.984375 115.527344 128.84375 116.34375 129.347656 117.199219 C 129.683594 117.765625 129.617188 118.363281 129.300781 118.9375 C 129.039062 119.402344 128.800781 119.878906 128.546875 120.347656 C 128.230469 120.933594 128.296875 121.464844 128.835938 121.867188 C 129.65625 122.476562 129.980469 123.335938 130.191406 124.292969 C 130.375 125.105469 130.648438 125.898438 130.886719 126.699219 C 131.089844 127.382812 130.992188 127.605469 130.332031 127.746094 C 129.769531 127.863281 129.203125 127.816406 128.632812 127.699219 C 127.222656 127.40625 125.839844 127.753906 124.460938 127.988281 C 123.894531 128.085938 123.425781 128.464844 122.988281 128.835938 C 121.949219 129.714844 120.730469 130.050781 119.398438 130.070312 C 117.746094 130.097656 116.992188 130.75 116.75 132.386719 C 116.554688 133.683594 116.554688 133.683594 115.296875 133.402344 C 114.617188 133.246094 114.242188 133.445312 113.863281 134.195312 C 113.445312 135.023438 113.300781 135.933594 113.136719 136.824219 C 112.980469 137.679688 112.699219 138.429688 112.070312 139.035156 C 111.566406 139.519531 111.414062 140.089844 111.476562 140.796875 C 111.566406 141.796875 111.804688 142.738281 112.246094 143.632812 C 113.285156 145.761719 113.566406 148.058594 113.78125 150.371094 C 113.824219 150.835938 113.703125 151.277344 113.539062 151.707031 C 113.0625 152.953125 113.3125 154.101562 114.035156 155.171875 C 114.441406 155.769531 114.890625 156.332031 115.492188 156.757812 C 116.664062 157.589844 117.296875 158.765625 117.671875 160.132812 C 117.851562 160.800781 117.800781 161.3125 117.261719 161.765625 C 116.660156 162.265625 116.355469 162.875 116.203125 163.691406 C 116.035156 164.589844 116.214844 165.328125 116.769531 165.890625 C 117.699219 166.832031 117.742188 167.828125 117.449219 169.027344 C 117.136719 170.324219 116.9375 171.617188 115.96875 172.660156 C 115.320312 173.359375 114.625 173.746094 113.671875 173.605469 C 113.445312 173.574219 113.21875 173.523438 112.992188 173.527344 C 112.261719 173.535156 111.917969 174.027344 112.285156 174.652344 C 112.882812 175.664062 113.503906 176.695312 114.527344 177.347656 C 116.773438 178.769531 118.722656 180.636719 121.167969 181.765625 C 121.972656 182.136719 122.5625 182.816406 123.097656 183.507812 C 124.316406 185.085938 125.746094 186.433594 127.292969 187.679688 C 130.015625 189.863281 131.339844 192.804688 131.851562 196.207031 C 132.070312 197.675781 131.855469 199.082031 131.605469 200.496094 C 131.320312 202.140625 130.984375 203.78125 130.453125 205.371094 C 130.371094 205.621094 130.296875 205.882812 130.167969 206.109375 C 129.855469 206.667969 129.601562 206.730469 129.0625 206.417969 C 128.898438 206.324219 128.742188 206.210938 128.597656 206.085938 C 127.3125 204.976562 125.785156 205.058594 124.261719 205.230469 C 123.339844 205.335938 122.796875 206.015625 122.453125 206.808594 C 121.828125 208.238281 121.246094 209.6875 120.660156 211.132812 C 118.835938 215.632812 115.984375 219.394531 112.335938 222.550781 C 110.671875 223.988281 108.824219 225.21875 106.976562 226.421875 C 106.273438 226.882812 105.726562 226.835938 105.039062 226.34375 C 98.882812 221.953125 92.140625 218.613281 85.378906 215.292969 C 80.398438 212.847656 75.183594 210.894531 70.277344 208.3125 C 64.980469 205.523438 59.476562 203.25 53.90625 201.113281 C 52.269531 200.488281 50.589844 199.996094 48.886719 199.601562 C 48.035156 199.402344 47.1875 199.265625 46.300781 199.332031 C 45.140625 199.417969 44.753906 199.070312 44.765625 197.90625 C 44.773438 197.21875 44.480469 196.855469 43.9375 196.566406 C 43.300781 196.230469 42.667969 195.882812 42.046875 195.511719 C 41.757812 195.335938 41.46875 195.132812 41.242188 194.882812 C 40.773438 194.375 40.882812 194.066406 41.574219 193.847656 C 42.453125 193.570312 43.316406 193.351562 44.230469 193.769531 C 44.8125 194.027344 45.160156 194.511719 45.554688 194.960938 Z M 45.554688 194.960938 " fill-opacity="1" fill-rule="nonzero"/></g><g clip-path="url(#1bf15f832f)"><path fill="#bce3bf" d="M 178.226562 157.796875 C 176.976562 157 175.554688 156.675781 174.542969 155.628906 C 174.28125 155.355469 173.941406 155.164062 173.785156 154.792969 C 173.492188 154.101562 172.914062 153.890625 172.226562 153.855469 C 171.582031 153.820312 170.941406 153.863281 170.292969 153.761719 C 169.421875 153.625 168.699219 153.261719 168.101562 152.644531 C 167.359375 151.882812 166.699219 151.007812 165.464844 151.070312 C 165.34375 151.078125 165.179688 150.953125 165.09375 150.839844 C 164.558594 150.140625 163.757812 149.988281 162.96875 149.867188 C 162.332031 149.765625 161.695312 149.660156 161.078125 149.480469 C 160.589844 149.339844 160.347656 149.527344 159.933594 149.847656 C 158.328125 151.070312 158.226562 152.886719 157.804688 154.589844 C 157.722656 154.921875 157.660156 155.257812 157.59375 155.59375 C 157.371094 156.742188 156.820312 157.625 155.710938 158.136719 C 154.664062 158.621094 153.933594 159.449219 153.582031 160.554688 C 153.148438 161.9375 152.222656 162.683594 150.804688 162.917969 C 149.945312 163.0625 149.089844 163.277344 148.257812 163.539062 C 147.03125 163.929688 146.683594 164.507812 146.914062 165.78125 C 147.050781 166.550781 147.308594 167.300781 147.515625 168.070312 C 147.113281 168.210938 146.796875 168.042969 146.472656 167.96875 C 145.980469 167.855469 145.5 167.84375 145.019531 168.015625 C 144.578125 168.175781 144.308594 168.445312 144.316406 168.9375 C 144.320312 169.203125 144.332031 169.472656 144.316406 169.734375 C 144.273438 170.554688 144.027344 170.863281 143.207031 170.832031 C 142.339844 170.800781 141.683594 171.167969 141.027344 171.660156 C 140.304688 172.203125 139.6875 172.886719 138.855469 173.359375 C 138.445312 172.972656 138.429688 172.460938 138.394531 171.992188 C 138.308594 170.792969 137.972656 169.703125 137.339844 168.664062 C 136.730469 167.660156 136.214844 166.597656 136.121094 165.378906 C 136.050781 164.421875 136.210938 163.574219 136.839844 162.820312 C 137.628906 161.878906 138.25 160.839844 138.550781 159.632812 C 139.015625 157.777344 138.207031 156.191406 136.441406 155.480469 C 135.625 155.148438 134.882812 155.183594 134.28125 155.914062 C 133.730469 156.570312 133.011719 156.988281 132.25 157.347656 C 130.59375 158.125 128.984375 158.980469 127.59375 160.195312 C 127.226562 160.519531 126.910156 160.65625 126.414062 160.265625 C 125.65625 159.667969 125.046875 159.796875 124.441406 160.53125 C 124.203125 160.824219 124.003906 161.160156 123.855469 161.507812 C 123.574219 162.152344 123.089844 162.566406 122.4375 162.734375 C 120.609375 163.207031 119.0625 164.089844 118.019531 165.714844 C 116.714844 164.683594 116.628906 163.476562 117.804688 162.460938 C 118.648438 161.726562 118.730469 160.820312 118.511719 159.863281 C 118.183594 158.421875 117.535156 157.148438 116.324219 156.21875 C 115.933594 155.917969 115.578125 155.5625 115.246094 155.203125 C 114.308594 154.175781 113.875 153.046875 114.425781 151.652344 C 114.941406 150.347656 114.5625 149.007812 114.355469 147.707031 C 114.089844 146.023438 113.730469 144.34375 112.886719 142.820312 C 112.589844 142.289062 112.484375 141.679688 112.386719 141.074219 C 112.277344 140.390625 112.355469 139.816406 112.921875 139.324219 C 113.589844 138.746094 113.773438 137.914062 113.957031 137.089844 C 114.117188 136.351562 114.289062 135.609375 114.488281 134.878906 C 114.597656 134.492188 114.75 134.230469 115.300781 134.410156 C 117.25 135.039062 117.355469 134.207031 117.585938 132.804688 C 117.628906 132.542969 117.628906 132.269531 117.703125 132.019531 C 117.945312 131.179688 118.222656 130.960938 119.09375 131 C 120.726562 131.074219 122.203125 130.644531 123.417969 129.566406 C 124.464844 128.636719 125.753906 128.765625 126.972656 128.582031 C 127.570312 128.496094 128.183594 128.535156 128.78125 128.707031 C 129.464844 128.902344 130.148438 128.816406 130.796875 128.558594 C 131.308594 128.351562 131.773438 128.019531 131.800781 127.433594 C 131.828125 126.9375 132.0625 126.5625 132.257812 126.160156 C 134.496094 121.621094 136.792969 117.113281 139.496094 112.824219 C 140.496094 111.242188 141.550781 109.710938 143.03125 108.527344 C 143.46875 108.175781 143.894531 107.878906 144.449219 107.675781 C 145.480469 107.296875 146.417969 106.691406 147.328125 106.0625 C 150.21875 104.078125 152.929688 101.878906 155.546875 99.550781 C 157.070312 98.195312 158.820312 97.199219 160.734375 96.515625 C 163.503906 95.523438 165.863281 93.910156 167.996094 91.902344 C 170.265625 89.761719 172.488281 87.578125 174.808594 85.492188 C 177.273438 83.273438 179.390625 80.726562 181.324219 78.03125 C 182.300781 76.671875 183.355469 75.378906 184.527344 74.179688 C 185.371094 73.316406 186.324219 72.640625 187.429688 72.210938 C 188.898438 71.636719 190.21875 70.820312 191.488281 69.910156 C 191.832031 69.667969 192.179688 69.429688 192.539062 69.226562 C 193.609375 68.632812 193.894531 68.667969 194.613281 69.695312 C 196.953125 73.03125 198.757812 76.597656 199.425781 80.675781 C 199.765625 82.738281 200.089844 84.816406 200.015625 86.902344 C 199.917969 89.527344 200.453125 91.988281 201.59375 94.304688 C 202.816406 96.796875 203.164062 99.433594 203.246094 102.152344 C 203.421875 108.023438 204.183594 113.792969 205.863281 119.453125 C 207.382812 124.589844 208.652344 129.800781 210.003906 134.984375 C 210.300781 136.125 210.410156 137.300781 210.402344 138.492188 C 210.382812 141.308594 210.398438 144.128906 210.398438 146.949219 C 210.398438 147.214844 210.382812 147.484375 210.402344 147.746094 C 210.476562 148.714844 210.890625 149.097656 211.859375 149.082031 C 212.621094 149.074219 213.386719 149.003906 214.136719 149.070312 C 216.265625 149.261719 216.761719 150.039062 217.023438 151.425781 C 217.207031 152.410156 217.867188 153.027344 218.703125 153.464844 C 219.375 153.820312 220.070312 154.128906 220.765625 154.4375 C 221.867188 154.921875 222.628906 155.722656 223.085938 156.832031 C 223.304688 157.359375 223.550781 157.875 223.820312 158.375 C 224.410156 159.472656 224.824219 159.679688 226.027344 159.507812 C 226.328125 159.464844 226.644531 159.460938 226.921875 159.355469 C 227.589844 159.109375 227.84375 159.460938 228.136719 159.988281 C 228.71875 161.035156 228.925781 162.058594 228.605469 163.261719 C 228.175781 164.871094 228.097656 166.558594 227.910156 168.21875 C 227.796875 169.238281 227.820312 169.28125 226.832031 169.527344 C 225.910156 169.753906 224.980469 169.945312 224.042969 170.105469 C 223.367188 170.226562 222.859375 170.5 222.472656 171.101562 C 221.804688 172.144531 220.121094 172.628906 218.976562 172.179688 C 218.039062 171.8125 217.230469 171.378906 216.875 170.28125 C 216.597656 169.425781 215.792969 169.042969 214.894531 168.964844 C 213.980469 168.886719 213.066406 168.941406 212.171875 169.128906 C 210.878906 169.402344 209.691406 169.359375 208.695312 168.332031 C 208.492188 168.121094 208.199219 167.980469 207.925781 167.855469 C 206.890625 167.390625 206.164062 167.722656 205.796875 168.804688 C 205.464844 169.777344 205.464844 169.773438 204.453125 169.855469 C 203.570312 169.925781 202.707031 170.097656 202.007812 170.679688 C 201.515625 171.085938 201.117188 170.957031 200.6875 170.605469 C 200.25 170.242188 199.800781 169.890625 199.339844 169.558594 C 198.675781 169.078125 197.925781 168.820312 197.113281 168.757812 C 196.253906 168.691406 195.507812 168.925781 195.058594 169.691406 C 194.652344 170.382812 194.066406 170.683594 193.3125 170.816406 C 190.628906 171.28125 190.007812 171.714844 188.515625 174.109375 C 187.992188 173.210938 187.996094 172.21875 187.789062 171.289062 C 187.730469 171.03125 187.746094 170.757812 187.703125 170.496094 C 187.558594 169.605469 187.21875 169.136719 186.332031 169.082031 C 185.585938 169.035156 185.449219 168.605469 185.339844 168.082031 C 185.269531 167.75 185.242188 167.394531 185.285156 167.0625 C 185.484375 165.507812 185.414062 163.960938 185.296875 162.40625 C 185.191406 161 185.265625 159.585938 185.273438 158.175781 C 185.277344 157.628906 185.179688 157.113281 184.882812 156.652344 C 184.292969 155.742188 183.285156 155.601562 182.515625 156.355469 C 182.210938 156.65625 181.984375 156.785156 181.539062 156.609375 C 179.839844 155.9375 179.324219 156.136719 178.226562 157.796875 Z M 178.226562 157.796875 " fill-opacity="1" fill-rule="nonzero"/></g><path fill="#bce3bf" d="M 113.3125 174.472656 C 115.429688 174.992188 116.34375 173.617188 117.304688 172.328125 C 117.535156 172.019531 117.714844 171.675781 117.785156 171.300781 C 118.0625 169.851562 118.578125 168.441406 118.464844 166.933594 C 118.441406 166.597656 118.613281 166.355469 118.785156 166.101562 C 119.53125 164.984375 120.519531 164.167969 121.816406 163.820312 C 123.210938 163.449219 124.320312 162.804688 124.917969 161.398438 C 125.21875 160.703125 125.332031 160.710938 126 161.179688 C 126.546875 161.570312 127.054688 161.53125 127.585938 161.207031 C 127.78125 161.089844 127.972656 160.960938 128.148438 160.816406 C 129.527344 159.660156 131.089844 158.796875 132.707031 158.03125 C 133.535156 157.640625 134.359375 157.238281 134.933594 156.480469 C 135.179688 156.152344 135.480469 156.132812 135.84375 156.246094 C 137.292969 156.707031 138.03125 157.980469 137.660156 159.46875 C 137.457031 160.285156 137.164062 161.105469 136.589844 161.714844 C 134.582031 163.859375 134.902344 166.171875 136.160156 168.457031 C 136.890625 169.785156 137.457031 171.105469 137.527344 172.621094 C 137.53125 172.65625 137.539062 172.695312 137.546875 172.730469 C 137.957031 174.609375 138.542969 174.808594 140.035156 173.578125 C 140.417969 173.265625 140.804688 172.957031 141.175781 172.628906 C 141.84375 172.035156 142.53125 171.617188 143.511719 171.644531 C 144.59375 171.667969 145.222656 170.84375 145.257812 169.664062 C 145.285156 168.785156 145.398438 168.683594 146.230469 168.839844 C 146.601562 168.910156 146.960938 169.0625 147.332031 169.117188 C 148.140625 169.242188 148.582031 168.824219 148.472656 168.007812 C 148.417969 167.601562 148.238281 167.210938 148.101562 166.816406 C 147.417969 164.808594 147.628906 164.4375 149.65625 164.011719 C 150.363281 163.863281 151.0625 163.691406 151.765625 163.523438 C 153.019531 163.222656 153.839844 162.394531 154.246094 161.21875 C 154.660156 160.035156 155.371094 159.207031 156.488281 158.628906 C 157.640625 158.035156 158.234375 156.984375 158.488281 155.722656 C 158.722656 154.566406 158.972656 153.414062 159.242188 152.269531 C 159.332031 151.878906 159.378906 151.425781 159.9375 151.21875 C 160.160156 151.679688 160.101562 152.171875 160.023438 152.621094 C 159.457031 155.957031 158.890625 159.292969 157.648438 162.46875 C 157.402344 163.101562 157.222656 163.769531 157.171875 164.457031 C 157.101562 165.4375 157.445312 166.222656 158.410156 166.527344 C 159.230469 166.785156 159.503906 167.253906 159.515625 168.082031 C 159.527344 168.832031 159.726562 169.574219 160.117188 170.253906 C 160.515625 170.949219 161.046875 171.367188 161.859375 171.3125 C 163.074219 171.230469 164.289062 171.191406 165.503906 171.238281 C 165.910156 171.253906 166.214844 171.03125 166.542969 170.824219 C 167.210938 170.398438 167.636719 170.46875 168.105469 171.097656 C 168.398438 171.488281 168.644531 171.929688 168.835938 172.382812 C 169.140625 173.097656 169.59375 173.507812 170.410156 173.375 C 170.445312 173.371094 170.484375 173.375 170.523438 173.375 C 172.332031 173.386719 172.332031 173.386719 172.808594 175.183594 C 172.945312 175.699219 173.046875 176.226562 173.242188 176.71875 C 173.484375 177.320312 173.789062 177.40625 174.308594 177.058594 C 174.875 176.675781 175.398438 176.226562 175.832031 175.691406 C 176.363281 175.035156 176.394531 174.3125 176.066406 173.550781 C 175.816406 172.972656 175.398438 172.472656 175.257812 171.777344 C 176 171.6875 176.367188 172.128906 176.710938 172.578125 C 176.988281 172.941406 177.226562 173.335938 177.601562 173.613281 C 178.078125 173.960938 178.527344 173.929688 178.726562 173.390625 C 179.285156 171.890625 179.777344 170.367188 178.820312 168.808594 C 178.125 167.675781 177.882812 166.425781 178.078125 165.101562 C 178.257812 163.867188 178.292969 162.71875 177.292969 161.710938 C 176.28125 160.695312 176.386719 159.464844 176.933594 158.242188 C 177.292969 158.148438 177.433594 158.421875 177.628906 158.578125 C 178.375 159.171875 178.742188 159.082031 179.175781 158.191406 C 179.226562 158.089844 179.261719 157.980469 179.3125 157.878906 C 179.726562 157.105469 180.195312 156.929688 181 157.25 C 181.070312 157.277344 181.136719 157.320312 181.203125 157.351562 C 182.28125 157.828125 182.28125 157.828125 183.164062 156.992188 C 183.5625 156.613281 183.761719 156.636719 184.042969 157.089844 C 184.269531 157.457031 184.335938 157.867188 184.339844 158.292969 C 184.351562 158.902344 184.355469 159.511719 184.34375 160.121094 C 184.296875 162.550781 184.578125 164.976562 184.351562 167.40625 C 184.308594 167.863281 184.375 168.3125 184.511719 168.757812 C 184.695312 169.367188 185.074219 169.714844 185.695312 169.851562 C 186.671875 170.066406 186.644531 170.085938 186.789062 171.089844 C 186.925781 171.992188 187.109375 172.882812 187.292969 173.777344 C 187.351562 174.074219 187.445312 174.371094 187.574219 174.644531 C 187.761719 175.046875 187.902344 175.5625 188.480469 175.53125 C 189.007812 175.503906 189.207031 175.085938 189.390625 174.640625 C 190.097656 172.917969 191.308594 171.84375 193.226562 171.675781 C 194.339844 171.578125 195.289062 171.179688 195.867188 170.144531 C 196.097656 169.730469 196.488281 169.636719 196.9375 169.625 C 197.703125 169.601562 198.339844 169.914062 198.933594 170.347656 C 199.453125 170.734375 199.949219 171.148438 200.46875 171.53125 C 201.046875 171.957031 201.707031 172.039062 202.257812 171.566406 C 203.140625 170.816406 204.1875 170.738281 205.246094 170.652344 C 206.476562 170.546875 206.476562 170.558594 206.640625 169.371094 C 206.765625 168.472656 207.089844 168.3125 207.839844 168.78125 C 207.9375 168.839844 208.027344 168.914062 208.109375 168.988281 C 209.265625 170.03125 210.558594 170.4375 212.109375 169.992188 C 212.757812 169.808594 213.460938 169.796875 214.144531 169.75 C 215.1875 169.675781 215.691406 169.960938 216.078125 170.9375 C 216.351562 171.617188 216.828125 172.082031 217.449219 172.402344 C 217.953125 172.664062 218.480469 172.894531 219.015625 173.089844 C 219.359375 173.21875 219.484375 173.445312 219.492188 173.773438 C 219.507812 174.203125 219.175781 174.230469 218.878906 174.296875 C 217.054688 174.683594 215.199219 174.824219 213.34375 174.992188 C 211.410156 175.164062 209.503906 175.5 207.65625 176.117188 C 206.832031 176.394531 206.101562 176.839844 205.640625 177.546875 C 204.085938 179.9375 202.542969 182.34375 202.023438 185.234375 C 201.703125 186.992188 201.886719 188.714844 202.234375 190.4375 C 202.457031 191.523438 203.148438 192.160156 204.167969 192.476562 C 205.230469 192.800781 206.253906 193.175781 207.035156 194.03125 C 207.324219 194.34375 207.753906 194.40625 208.191406 194.425781 C 209.023438 194.46875 209.855469 194.574219 210.652344 194.863281 C 211.164062 195.050781 211.527344 195.363281 211.429688 195.960938 C 211.105469 198.023438 211.082031 200.117188 210.890625 202.195312 C 210.769531 203.5 210.292969 204.699219 209.660156 205.84375 C 209.367188 206.375 209.085938 206.914062 208.835938 207.472656 C 208.347656 208.566406 208.292969 209.675781 208.808594 210.785156 C 208.917969 211.027344 209.0625 211.261719 209.125 211.519531 C 209.289062 212.222656 208.914062 212.628906 208.199219 212.496094 C 207.714844 212.410156 207.246094 212.230469 206.769531 212.105469 C 205.257812 211.699219 204.625 212.175781 204.589844 213.757812 C 204.578125 214.253906 204.5625 214.742188 204.429688 215.226562 C 204.292969 215.71875 204.105469 216.140625 203.628906 216.410156 C 202.898438 216.824219 202.644531 217.535156 202.871094 218.269531 C 203.183594 219.277344 203.238281 220.277344 203.230469 221.308594 C 203.226562 221.714844 203.367188 222.121094 203.460938 222.621094 C 202.515625 222.40625 201.621094 222.113281 200.644531 222.039062 C 200.707031 221.425781 201.195312 221.273438 201.59375 221.035156 C 202.382812 220.5625 202.433594 220.398438 201.988281 219.578125 C 201.5 218.675781 200.996094 217.785156 200.636719 216.8125 C 200.417969 216.222656 200.109375 216.15625 199.582031 216.492188 C 199.136719 216.78125 198.726562 217.144531 198.253906 217.371094 C 197.222656 217.878906 196.890625 218.734375 196.890625 219.796875 C 196.890625 220.238281 196.890625 220.675781 196.890625 221.199219 C 195.921875 220.320312 195.710938 219.410156 196.113281 218.296875 C 196.3125 217.753906 196.65625 217.292969 196.929688 216.796875 C 197.488281 215.78125 197.375 215.261719 196.445312 214.554688 C 195.957031 214.179688 195.394531 213.945312 194.84375 213.695312 C 194.28125 213.4375 193.800781 213.558594 193.457031 214.085938 C 192.953125 214.851562 192.453125 215.617188 192.113281 216.464844 C 191.898438 216.996094 191.832031 217.539062 192.003906 218.132812 C 192.191406 218.785156 192.359375 219.457031 192.320312 220.152344 C 192.28125 220.832031 192.179688 221.136719 191.457031 220.710938 C 190.964844 220.421875 190.40625 220.292969 189.832031 220.226562 C 189.003906 220.128906 188.335938 220.367188 187.785156 220.980469 C 187.734375 221.039062 187.671875 221.082031 187.625 221.144531 C 186.882812 222.09375 186.0625 222.90625 184.792969 223.09375 C 183.226562 223.328125 181.679688 223.308594 180.195312 222.691406 C 179.210938 222.285156 178.230469 221.878906 177.171875 221.699219 C 176.445312 221.578125 175.667969 221.433594 175.136719 222.046875 C 174.609375 222.65625 175.011719 223.34375 175.265625 223.972656 C 175.453125 224.429688 175.640625 224.882812 175.8125 225.3125 C 175.539062 225.714844 175.132812 225.710938 174.769531 225.789062 C 174.214844 225.90625 173.636719 225.957031 173.09375 226.121094 C 171.917969 226.46875 170.839844 226.25 169.785156 225.714844 C 168.664062 225.148438 167.585938 224.523438 166.601562 223.726562 C 166.269531 223.457031 165.945312 222.988281 165.421875 223.207031 C 164.855469 223.441406 164.921875 223.988281 164.914062 224.488281 C 164.90625 224.90625 164.894531 225.328125 164.816406 225.738281 C 164.6875 226.414062 164.441406 226.539062 163.769531 226.308594 C 163.21875 226.121094 162.785156 225.753906 162.34375 225.382812 C 161.617188 224.773438 160.890625 224.148438 159.890625 224.003906 C 159.46875 223.945312 159.046875 223.800781 158.777344 224.269531 C 158.515625 224.714844 158.886719 224.957031 159.128906 225.238281 C 160.089844 226.332031 160.089844 226.464844 159.253906 227.695312 C 159.148438 227.851562 159.023438 228 158.933594 228.164062 C 158.597656 228.820312 158.773438 229.15625 159.503906 229.277344 C 159.859375 229.332031 160.332031 229.125 160.523438 229.558594 C 160.675781 229.910156 160.523438 230.296875 160.398438 230.667969 C 160.230469 231.171875 159.984375 231.3125 159.460938 231.125 C 157.957031 230.570312 156.433594 230.523438 154.871094 230.957031 C 153.0625 231.457031 151.699219 233.238281 151.457031 235.003906 C 151.433594 235.152344 151.410156 235.316406 151.449219 235.457031 C 151.992188 237.394531 152.480469 239.363281 154.132812 240.742188 C 154.6875 241.207031 155.222656 241.6875 155.582031 242.339844 C 155.886719 242.882812 156.058594 243.449219 155.941406 244.191406 C 154.5 243.777344 153.101562 243.382812 151.703125 242.964844 C 145.363281 241.082031 139.191406 238.703125 133 236.394531 C 127.800781 234.457031 122.515625 232.746094 117.144531 231.382812 C 113.988281 230.582031 111.023438 229.367188 108.054688 228.117188 C 107.714844 227.976562 107.332031 227.878906 107.101562 227.476562 C 108.277344 226.648438 109.445312 225.820312 110.613281 224.992188 C 115.625 221.449219 119.234375 216.796875 121.554688 211.121094 C 122.042969 209.925781 122.550781 208.734375 123.011719 207.527344 C 123.398438 206.496094 124.140625 206.109375 125.203125 206.050781 C 126.367188 205.988281 127.347656 206.292969 128.28125 206.996094 C 129.554688 207.957031 130.519531 207.71875 131.007812 206.21875 C 132.035156 203.070312 132.960938 199.851562 132.679688 196.503906 C 132.371094 192.777344 130.917969 189.507812 127.964844 187.070312 C 126.375 185.757812 124.863281 184.394531 123.617188 182.738281 C 122.878906 181.753906 121.90625 181.023438 120.789062 180.484375 C 119.761719 179.984375 118.808594 179.359375 117.910156 178.648438 C 117.019531 177.9375 116.074219 177.296875 115.132812 176.652344 C 114.394531 176.128906 113.800781 175.484375 113.3125 174.472656 Z M 113.3125 174.472656 " fill-opacity="1" fill-rule="nonzero"/><path fill="#bce3bf" d="M 178.140625 172.757812 C 177.582031 172.4375 177.417969 171.980469 177.117188 171.652344 C 176.601562 171.089844 176 170.746094 175.21875 170.769531 C 174.453125 170.792969 174.15625 171.132812 174.351562 171.863281 C 174.480469 172.335938 174.71875 172.78125 174.9375 173.222656 C 175.671875 174.710938 175.644531 174.847656 174.320312 175.851562 C 174.234375 175.917969 174.132812 175.964844 173.953125 176.066406 C 173.71875 175.296875 173.527344 174.546875 173.265625 173.816406 C 172.878906 172.726562 172.492188 172.480469 171.308594 172.464844 C 171.160156 172.460938 171 172.449219 170.851562 172.46875 C 170.113281 172.582031 169.625 172.351562 169.386719 171.578125 C 169.257812 171.152344 168.976562 170.761719 168.703125 170.398438 C 168.0625 169.558594 167.078125 169.363281 166.1875 169.9375 C 165.746094 170.226562 165.304688 170.316406 164.796875 170.320312 C 163.921875 170.320312 163.046875 170.25 162.175781 170.398438 C 161.476562 170.519531 161.007812 170.199219 160.726562 169.570312 C 160.488281 169.042969 160.34375 168.503906 160.375 167.917969 C 160.433594 166.867188 160.15625 166.097656 158.972656 165.773438 C 158.035156 165.515625 157.886719 165.097656 158.078125 164.105469 C 158.167969 163.660156 158.304688 163.21875 158.46875 162.792969 C 159.796875 159.285156 160.410156 155.609375 160.945312 151.921875 C 160.957031 151.847656 160.957031 151.773438 160.980469 151.699219 C 161.085938 151.316406 160.554688 150.828125 161.050781 150.5625 C 161.410156 150.371094 161.851562 150.6875 162.265625 150.722656 C 163.277344 150.8125 164.222656 151.007812 164.839844 151.9375 C 164.972656 152.136719 165.199219 152.269531 165.4375 152.164062 C 166.128906 151.84375 166.558594 152.3125 166.90625 152.730469 C 168.171875 154.269531 169.785156 154.902344 171.738281 154.777344 C 172.433594 154.734375 172.898438 154.984375 173.304688 155.628906 C 173.832031 156.464844 174.722656 156.992188 175.5625 157.511719 C 176.003906 157.785156 176.128906 158.050781 175.949219 158.535156 C 175.367188 160.097656 175.839844 161.441406 176.882812 162.632812 C 177.34375 163.15625 177.449219 163.683594 177.328125 164.402344 C 177.019531 166.207031 177.214844 167.949219 178.246094 169.558594 C 178.917969 170.589844 178.363281 171.621094 178.140625 172.757812 Z M 178.140625 172.757812 " fill-opacity="1" fill-rule="nonzero"/><g clip-path="url(#863a224b04)"><path fill="#1d764a" d="M 265.332031 222.222656 C 260.375 222.222656 256.34375 226.261719 256.34375 231.222656 C 256.34375 235.996094 264.511719 248.445312 264.863281 248.96875 C 264.964844 249.125 265.144531 249.222656 265.332031 249.222656 C 265.519531 249.222656 265.695312 249.125 265.800781 248.96875 C 266.148438 248.445312 274.320312 235.996094 274.320312 231.222656 C 274.320312 226.261719 270.289062 222.222656 265.332031 222.222656 " fill-opacity="1" fill-rule="nonzero"/></g><path fill="#ffffff" d="M 265.332031 235.160156 C 263.164062 235.160156 261.398438 233.394531 261.398438 231.222656 C 261.398438 229.050781 263.164062 227.285156 265.332031 227.285156 C 267.5 227.285156 269.265625 229.050781 269.265625 231.222656 C 269.265625 233.394531 267.5 235.160156 265.332031 235.160156 " fill-opacity="1" fill-rule="nonzero"/><g fill="#000000" fill-opacity="1"><g transform="translate(226.870844, 265.013068)"><g><path d="M 5.8125 -5.28125 C 5.664062 -5.539062 5.460938 -5.738281 5.203125 -5.875 C 4.941406 -6.007812 4.640625 -6.078125 4.296875 -6.078125 C 3.679688 -6.078125 3.191406 -5.875 2.828125 -5.46875 C 2.460938 -5.070312 2.28125 -4.539062 2.28125 -3.875 C 2.28125 -3.164062 2.472656 -2.609375 2.859375 -2.203125 C 3.242188 -1.804688 3.769531 -1.609375 4.4375 -1.609375 C 4.90625 -1.609375 5.296875 -1.722656 5.609375 -1.953125 C 5.929688 -2.191406 6.164062 -2.53125 6.3125 -2.96875 L 3.921875 -2.96875 L 3.921875 -4.359375 L 8.015625 -4.359375 L 8.015625 -2.609375 C 7.878906 -2.140625 7.644531 -1.703125 7.3125 -1.296875 C 6.976562 -0.890625 6.550781 -0.5625 6.03125 -0.3125 C 5.519531 -0.0625 4.941406 0.0625 4.296875 0.0625 C 3.535156 0.0625 2.851562 -0.101562 2.25 -0.4375 C 1.65625 -0.78125 1.191406 -1.25 0.859375 -1.84375 C 0.523438 -2.4375 0.359375 -3.113281 0.359375 -3.875 C 0.359375 -4.632812 0.523438 -5.3125 0.859375 -5.90625 C 1.191406 -6.507812 1.65625 -6.976562 2.25 -7.3125 C 2.84375 -7.644531 3.523438 -7.8125 4.296875 -7.8125 C 5.210938 -7.8125 5.988281 -7.585938 6.625 -7.140625 C 7.257812 -6.691406 7.679688 -6.070312 7.890625 -5.28125 Z M 5.8125 -5.28125 "/></g></g></g><g fill="#000000" fill-opacity="1"><g transform="translate(235.246923, 265.013068)"><g><path d="M 6.75 -6.140625 L 6.75 0 L 4.859375 0 L 4.859375 -0.84375 C 4.671875 -0.5625 4.410156 -0.335938 4.078125 -0.171875 C 3.753906 -0.015625 3.394531 0.0625 3 0.0625 C 2.53125 0.0625 2.113281 -0.0390625 1.75 -0.25 C 1.394531 -0.457031 1.117188 -0.757812 0.921875 -1.15625 C 0.722656 -1.550781 0.625 -2.015625 0.625 -2.546875 L 0.625 -6.140625 L 2.5 -6.140625 L 2.5 -2.8125 C 2.5 -2.394531 2.601562 -2.070312 2.8125 -1.84375 C 3.03125 -1.613281 3.316406 -1.5 3.671875 -1.5 C 4.035156 -1.5 4.320312 -1.613281 4.53125 -1.84375 C 4.75 -2.070312 4.859375 -2.394531 4.859375 -2.8125 L 4.859375 -6.140625 Z M 6.75 -6.140625 "/></g></g></g><g fill="#000000" fill-opacity="1"><g transform="translate(242.655691, 265.013068)"><g><path d="M 4.421875 -6.203125 C 5.140625 -6.203125 5.710938 -5.96875 6.140625 -5.5 C 6.566406 -5.039062 6.78125 -4.40625 6.78125 -3.59375 L 6.78125 0 L 4.921875 0 L 4.921875 -3.328125 C 4.921875 -3.742188 4.8125 -4.0625 4.59375 -4.28125 C 4.382812 -4.507812 4.097656 -4.625 3.734375 -4.625 C 3.378906 -4.625 3.09375 -4.507812 2.875 -4.28125 C 2.664062 -4.0625 2.5625 -3.742188 2.5625 -3.328125 L 2.5625 0 L 0.6875 0 L 0.6875 -6.140625 L 2.5625 -6.140625 L 2.5625 -5.328125 C 2.75 -5.597656 3.003906 -5.8125 3.328125 -5.96875 C 3.648438 -6.125 4.015625 -6.203125 4.421875 -6.203125 Z M 4.421875 -6.203125 "/></g></g></g><g fill="#000000" fill-opacity="1"><g transform="translate(250.064458, 265.013068)"><g><path d="M 6.75 -6.140625 L 6.75 0 L 4.859375 0 L 4.859375 -0.84375 C 4.671875 -0.5625 4.410156 -0.335938 4.078125 -0.171875 C 3.753906 -0.015625 3.394531 0.0625 3 0.0625 C 2.53125 0.0625 2.113281 -0.0390625 1.75 -0.25 C 1.394531 -0.457031 1.117188 -0.757812 0.921875 -1.15625 C 0.722656 -1.550781 0.625 -2.015625 0.625 -2.546875 L 0.625 -6.140625 L 2.5 -6.140625 L 2.5 -2.8125 C 2.5 -2.394531 2.601562 -2.070312 2.8125 -1.84375 C 3.03125 -1.613281 3.316406 -1.5 3.671875 -1.5 C 4.035156 -1.5 4.320312 -1.613281 4.53125 -1.84375 C 4.75 -2.070312 4.859375 -2.394531 4.859375 -2.8125 L 4.859375 -6.140625 Z M 6.75 -6.140625 "/></g></g></g><g fill="#000000" fill-opacity="1"><g transform="translate(257.473225, 265.013068)"><g><path d="M 4.421875 -6.203125 C 5.140625 -6.203125 5.710938 -5.96875 6.140625 -5.5 C 6.566406 -5.039062 6.78125 -4.40625 6.78125 -3.59375 L 6.78125 0 L 4.921875 0 L 4.921875 -3.328125 C 4.921875 -3.742188 4.8125 -4.0625 4.59375 -4.28125 C 4.382812 -4.507812 4.097656 -4.625 3.734375 -4.625 C 3.378906 -4.625 3.09375 -4.507812 2.875 -4.28125 C 2.664062 -4.0625 2.5625 -3.742188 2.5625 -3.328125 L 2.5625 0 L 0.6875 0 L 0.6875 -6.140625 L 2.5625 -6.140625 L 2.5625 -5.328125 C 2.75 -5.597656 3.003906 -5.8125 3.328125 -5.96875 C 3.648438 -6.125 4.015625 -6.203125 4.421875 -6.203125 Z M 4.421875 -6.203125 "/></g></g></g><g fill="#000000" fill-opacity="1"><g transform="translate(264.881992, 265.013068)"><g><path d="M 3.015625 -6.21875 C 3.441406 -6.21875 3.816406 -6.128906 4.140625 -5.953125 C 4.472656 -5.785156 4.726562 -5.554688 4.90625 -5.265625 L 4.90625 -6.140625 L 6.78125 -6.140625 L 6.78125 -0.015625 C 6.78125 0.554688 6.664062 1.070312 6.4375 1.53125 C 6.21875 1.988281 5.878906 2.351562 5.421875 2.625 C 4.960938 2.894531 4.394531 3.03125 3.71875 3.03125 C 2.8125 3.03125 2.070312 2.8125 1.5 2.375 C 0.9375 1.945312 0.613281 1.367188 0.53125 0.640625 L 2.390625 0.640625 C 2.453125 0.867188 2.59375 1.050781 2.8125 1.1875 C 3.03125 1.320312 3.300781 1.390625 3.625 1.390625 C 4.019531 1.390625 4.332031 1.273438 4.5625 1.046875 C 4.789062 0.828125 4.90625 0.472656 4.90625 -0.015625 L 4.90625 -0.875 C 4.71875 -0.59375 4.460938 -0.359375 4.140625 -0.171875 C 3.816406 0.00390625 3.441406 0.09375 3.015625 0.09375 C 2.503906 0.09375 2.039062 -0.0351562 1.625 -0.296875 C 1.21875 -0.554688 0.894531 -0.925781 0.65625 -1.40625 C 0.425781 -1.894531 0.3125 -2.453125 0.3125 -3.078125 C 0.3125 -3.710938 0.425781 -4.265625 0.65625 -4.734375 C 0.894531 -5.210938 1.21875 -5.578125 1.625 -5.828125 C 2.039062 -6.085938 2.503906 -6.21875 3.015625 -6.21875 Z M 4.90625 -3.0625 C 4.90625 -3.53125 4.773438 -3.898438 4.515625 -4.171875 C 4.253906 -4.453125 3.9375 -4.59375 3.5625 -4.59375 C 3.1875 -4.59375 2.867188 -4.457031 2.609375 -4.1875 C 2.347656 -3.914062 2.21875 -3.546875 2.21875 -3.078125 C 2.21875 -2.609375 2.347656 -2.234375 2.609375 -1.953125 C 2.867188 -1.679688 3.1875 -1.546875 3.5625 -1.546875 C 3.9375 -1.546875 4.253906 -1.679688 4.515625 -1.953125 C 4.773438 -2.222656 4.90625 -2.59375 4.90625 -3.0625 Z M 4.90625 -3.0625 "/></g></g></g><g fill="#000000" fill-opacity="1"><g transform="translate(272.345714, 265.013068)"><g/></g></g><g fill="#000000" fill-opacity="1"><g transform="translate(274.676063, 265.013068)"><g><path d="M 5.15625 0 L 2.5625 -3.40625 L 2.5625 0 L 0.6875 0 L 0.6875 -7.71875 L 2.5625 -7.71875 L 2.5625 -4.328125 L 5.140625 -7.71875 L 7.34375 -7.71875 L 4.359375 -3.9375 L 7.453125 0 Z M 5.15625 0 "/></g></g></g><g fill="#000000" fill-opacity="1"><g transform="translate(282.337641, 265.013068)"><g><path d="M 1.625 -6.78125 C 1.300781 -6.78125 1.03125 -6.875 0.8125 -7.0625 C 0.601562 -7.257812 0.5 -7.5 0.5 -7.78125 C 0.5 -8.082031 0.601562 -8.328125 0.8125 -8.515625 C 1.03125 -8.710938 1.300781 -8.8125 1.625 -8.8125 C 1.945312 -8.8125 2.210938 -8.710938 2.421875 -8.515625 C 2.628906 -8.328125 2.734375 -8.082031 2.734375 -7.78125 C 2.734375 -7.5 2.628906 -7.257812 2.421875 -7.0625 C 2.210938 -6.875 1.945312 -6.78125 1.625 -6.78125 Z M 2.5625 -6.140625 L 2.5625 0 L 0.6875 0 L 0.6875 -6.140625 Z M 2.5625 -6.140625 "/></g></g></g><g fill="#000000" fill-opacity="1"><g transform="translate(285.580347, 265.013068)"><g><path d="M 0.3125 -3.078125 C 0.3125 -3.710938 0.425781 -4.265625 0.65625 -4.734375 C 0.894531 -5.210938 1.21875 -5.578125 1.625 -5.828125 C 2.039062 -6.085938 2.503906 -6.21875 3.015625 -6.21875 C 3.421875 -6.21875 3.789062 -6.132812 4.125 -5.96875 C 4.457031 -5.800781 4.71875 -5.578125 4.90625 -5.296875 L 4.90625 -8.140625 L 6.78125 -8.140625 L 6.78125 0 L 4.90625 0 L 4.90625 -0.875 C 4.726562 -0.582031 4.472656 -0.347656 4.140625 -0.171875 C 3.816406 0.00390625 3.441406 0.09375 3.015625 0.09375 C 2.503906 0.09375 2.039062 -0.0351562 1.625 -0.296875 C 1.21875 -0.554688 0.894531 -0.925781 0.65625 -1.40625 C 0.425781 -1.894531 0.3125 -2.453125 0.3125 -3.078125 Z M 4.90625 -3.0625 C 4.90625 -3.53125 4.773438 -3.898438 4.515625 -4.171875 C 4.253906 -4.453125 3.9375 -4.59375 3.5625 -4.59375 C 3.1875 -4.59375 2.867188 -4.457031 2.609375 -4.1875 C 2.347656 -3.914062 2.21875 -3.546875 2.21875 -3.078125 C 2.21875 -2.609375 2.347656 -2.234375 2.609375 -1.953125 C 2.867188 -1.679688 3.1875 -1.546875 3.5625 -1.546875 C 3.9375 -1.546875 4.253906 -1.679688 4.515625 -1.953125 C 4.773438 -2.222656 4.90625 -2.59375 4.90625 -3.0625 Z M 4.90625 -3.0625 "/></g></g></g><g fill="#000000" fill-opacity="1"><g transform="translate(293.044069, 265.013068)"><g><path d="M 6.75 -6.140625 L 6.75 0 L 4.859375 0 L 4.859375 -0.84375 C 4.671875 -0.5625 4.410156 -0.335938 4.078125 -0.171875 C 3.753906 -0.015625 3.394531 0.0625 3 0.0625 C 2.53125 0.0625 2.113281 -0.0390625 1.75 -0.25 C 1.394531 -0.457031 1.117188 -0.757812 0.921875 -1.15625 C 0.722656 -1.550781 0.625 -2.015625 0.625 -2.546875 L 0.625 -6.140625 L 2.5 -6.140625 L 2.5 -2.8125 C 2.5 -2.394531 2.601562 -2.070312 2.8125 -1.84375 C 3.03125 -1.613281 3.316406 -1.5 3.671875 -1.5 C 4.035156 -1.5 4.320312 -1.613281 4.53125 -1.84375 C 4.75 -2.070312 4.859375 -2.394531 4.859375 -2.8125 L 4.859375 -6.140625 Z M 6.75 -6.140625 "/></g></g></g><g fill="#000000" fill-opacity="1"><g transform="translate(300.452836, 265.013068)"><g><path d="M 2.5625 -8.140625 L 2.5625 0 L 0.6875 0 L 0.6875 -8.140625 Z M 2.5625 -8.140625 "/></g></g></g><g clip-path="url(#acccd6cc10)"><path fill="#1d764a" d="M 145.523438 195.941406 C 140.566406 195.941406 136.535156 199.976562 136.535156 204.941406 C 136.535156 209.714844 144.707031 222.160156 145.054688 222.6875 C 145.160156 222.84375 145.335938 222.941406 145.523438 222.941406 C 145.710938 222.941406 145.886719 222.84375 145.992188 222.6875 C 146.339844 222.160156 154.511719 209.714844 154.511719 204.941406 C 154.511719 199.976562 150.480469 195.941406 145.523438 195.941406 " fill-opacity="1" fill-rule="nonzero"/></g><path fill="#ffffff" d="M 145.523438 208.878906 C 143.355469 208.878906 141.589844 207.109375 141.589844 204.941406 C 141.589844 202.769531 143.355469 201.003906 145.523438 201.003906 C 147.691406 201.003906 149.457031 202.769531 149.457031 204.941406 C 149.457031 207.109375 147.691406 208.878906 145.523438 208.878906 " fill-opacity="1" fill-rule="nonzero"/><g fill="#000000" fill-opacity="1"><g transform="translate(126.85586, 238.641371)"><g><path d="M 5.359375 -3.953125 C 5.804688 -3.859375 6.164062 -3.632812 6.4375 -3.28125 C 6.707031 -2.9375 6.84375 -2.539062 6.84375 -2.09375 C 6.84375 -1.457031 6.613281 -0.945312 6.15625 -0.5625 C 5.707031 -0.1875 5.082031 0 4.28125 0 L 0.6875 0 L 0.6875 -7.71875 L 4.15625 -7.71875 C 4.9375 -7.71875 5.550781 -7.535156 6 -7.171875 C 6.445312 -6.816406 6.671875 -6.332031 6.671875 -5.71875 C 6.671875 -5.257812 6.550781 -4.878906 6.3125 -4.578125 C 6.070312 -4.285156 5.753906 -4.078125 5.359375 -3.953125 Z M 2.5625 -4.59375 L 3.796875 -4.59375 C 4.097656 -4.59375 4.332031 -4.660156 4.5 -4.796875 C 4.664062 -4.929688 4.75 -5.132812 4.75 -5.40625 C 4.75 -5.664062 4.664062 -5.863281 4.5 -6 C 4.332031 -6.144531 4.097656 -6.21875 3.796875 -6.21875 L 2.5625 -6.21875 Z M 3.953125 -1.515625 C 4.265625 -1.515625 4.503906 -1.585938 4.671875 -1.734375 C 4.847656 -1.878906 4.9375 -2.085938 4.9375 -2.359375 C 4.9375 -2.628906 4.847656 -2.835938 4.671875 -2.984375 C 4.492188 -3.140625 4.242188 -3.21875 3.921875 -3.21875 L 2.5625 -3.21875 L 2.5625 -1.515625 Z M 3.953125 -1.515625 "/></g></g></g><g fill="#000000" fill-opacity="1"><g transform="translate(134.099741, 238.641371)"><g><path d="M 0.3125 -3.078125 C 0.3125 -3.710938 0.425781 -4.265625 0.65625 -4.734375 C 0.894531 -5.210938 1.21875 -5.578125 1.625 -5.828125 C 2.039062 -6.085938 2.503906 -6.21875 3.015625 -6.21875 C 3.441406 -6.21875 3.816406 -6.128906 4.140625 -5.953125 C 4.472656 -5.785156 4.726562 -5.554688 4.90625 -5.265625 L 4.90625 -6.140625 L 6.78125 -6.140625 L 6.78125 0 L 4.90625 0 L 4.90625 -0.875 C 4.71875 -0.582031 4.460938 -0.347656 4.140625 -0.171875 C 3.816406 0.00390625 3.4375 0.09375 3 0.09375 C 2.5 0.09375 2.039062 -0.0351562 1.625 -0.296875 C 1.21875 -0.554688 0.894531 -0.925781 0.65625 -1.40625 C 0.425781 -1.894531 0.3125 -2.453125 0.3125 -3.078125 Z M 4.90625 -3.0625 C 4.90625 -3.53125 4.773438 -3.898438 4.515625 -4.171875 C 4.253906 -4.453125 3.9375 -4.59375 3.5625 -4.59375 C 3.1875 -4.59375 2.867188 -4.457031 2.609375 -4.1875 C 2.347656 -3.914062 2.21875 -3.546875 2.21875 -3.078125 C 2.21875 -2.609375 2.347656 -2.234375 2.609375 -1.953125 C 2.867188 -1.679688 3.1875 -1.546875 3.5625 -1.546875 C 3.9375 -1.546875 4.253906 -1.679688 4.515625 -1.953125 C 4.773438 -2.222656 4.90625 -2.59375 4.90625 -3.0625 Z M 4.90625 -3.0625 "/></g></g></g><g fill="#000000" fill-opacity="1"><g transform="translate(141.563463, 238.641371)"><g><path d="M 4.421875 -6.203125 C 5.140625 -6.203125 5.710938 -5.96875 6.140625 -5.5 C 6.566406 -5.039062 6.78125 -4.40625 6.78125 -3.59375 L 6.78125 0 L 4.921875 0 L 4.921875 -3.328125 C 4.921875 -3.742188 4.8125 -4.0625 4.59375 -4.28125 C 4.382812 -4.507812 4.097656 -4.625 3.734375 -4.625 C 3.378906 -4.625 3.09375 -4.507812 2.875 -4.28125 C 2.664062 -4.0625 2.5625 -3.742188 2.5625 -3.328125 L 2.5625 0 L 0.6875 0 L 0.6875 -6.140625 L 2.5625 -6.140625 L 2.5625 -5.328125 C 2.75 -5.597656 3.003906 -5.8125 3.328125 -5.96875 C 3.648438 -6.125 4.015625 -6.203125 4.421875 -6.203125 Z M 4.421875 -6.203125 "/></g></g></g><g fill="#000000" fill-opacity="1"><g transform="translate(148.97223, 238.641371)"><g><path d="M 4.109375 -1.59375 L 4.109375 0 L 3.140625 0 C 2.460938 0 1.929688 -0.164062 1.546875 -0.5 C 1.171875 -0.832031 0.984375 -1.378906 0.984375 -2.140625 L 0.984375 -4.578125 L 0.234375 -4.578125 L 0.234375 -6.140625 L 0.984375 -6.140625 L 0.984375 -7.640625 L 2.859375 -7.640625 L 2.859375 -6.140625 L 4.09375 -6.140625 L 4.09375 -4.578125 L 2.859375 -4.578125 L 2.859375 -2.109375 C 2.859375 -1.929688 2.898438 -1.800781 2.984375 -1.71875 C 3.078125 -1.632812 3.226562 -1.59375 3.4375 -1.59375 Z M 4.109375 -1.59375 "/></g></g></g><g fill="#000000" fill-opacity="1"><g transform="translate(153.435071, 238.641371)"><g><path d="M 6.75 -6.140625 L 6.75 0 L 4.859375 0 L 4.859375 -0.84375 C 4.671875 -0.5625 4.410156 -0.335938 4.078125 -0.171875 C 3.753906 -0.015625 3.394531 0.0625 3 0.0625 C 2.53125 0.0625 2.113281 -0.0390625 1.75 -0.25 C 1.394531 -0.457031 1.117188 -0.757812 0.921875 -1.15625 C 0.722656 -1.550781 0.625 -2.015625 0.625 -2.546875 L 0.625 -6.140625 L 2.5 -6.140625 L 2.5 -2.8125 C 2.5 -2.394531 2.601562 -2.070312 2.8125 -1.84375 C 3.03125 -1.613281 3.316406 -1.5 3.671875 -1.5 C 4.035156 -1.5 4.320312 -1.613281 4.53125 -1.84375 C 4.75 -2.070312 4.859375 -2.394531 4.859375 -2.8125 L 4.859375 -6.140625 Z M 6.75 -6.140625 "/></g></g></g><g fill="#000000" fill-opacity="1"><g transform="translate(160.843838, 238.641371)"><g><path d="M 2.5625 -8.140625 L 2.5625 0 L 0.6875 0 L 0.6875 -8.140625 Z M 2.5625 -8.140625 "/></g></g></g><g clip-path="url(#5e7e4b6850)"><path fill="#1d764a" d="M 178.59375 84.332031 C 173.636719 84.332031 169.605469 88.367188 169.605469 93.332031 C 169.605469 98.105469 177.773438 110.550781 178.125 111.078125 C 178.226562 111.234375 178.40625 111.332031 178.59375 111.332031 C 178.78125 111.332031 178.957031 111.234375 179.0625 111.078125 C 179.410156 110.550781 187.582031 98.105469 187.582031 93.332031 C 187.582031 88.367188 183.550781 84.332031 178.59375 84.332031 " fill-opacity="1" fill-rule="nonzero"/></g><path fill="#ffffff" d="M 178.59375 97.269531 C 176.425781 97.269531 174.660156 95.503906 174.660156 93.332031 C 174.660156 91.160156 176.425781 89.394531 178.59375 89.394531 C 180.761719 89.394531 182.527344 91.160156 182.527344 93.332031 C 182.527344 95.503906 180.761719 97.269531 178.59375 97.269531 " fill-opacity="1" fill-rule="nonzero"/><g fill="#000000" fill-opacity="1"><g transform="translate(194.951564, 100.749289)"><g><path d="M 3.46875 0.078125 C 2.90625 0.078125 2.398438 -0.0078125 1.953125 -0.1875 C 1.503906 -0.375 1.144531 -0.644531 0.875 -1 C 0.613281 -1.363281 0.476562 -1.800781 0.46875 -2.3125 L 2.46875 -2.3125 C 2.5 -2.019531 2.597656 -1.800781 2.765625 -1.65625 C 2.929688 -1.507812 3.148438 -1.4375 3.421875 -1.4375 C 3.703125 -1.4375 3.921875 -1.5 4.078125 -1.625 C 4.242188 -1.75 4.328125 -1.925781 4.328125 -2.15625 C 4.328125 -2.34375 4.257812 -2.5 4.125 -2.625 C 4 -2.75 3.84375 -2.851562 3.65625 -2.9375 C 3.46875 -3.019531 3.203125 -3.113281 2.859375 -3.21875 C 2.359375 -3.363281 1.953125 -3.515625 1.640625 -3.671875 C 1.328125 -3.828125 1.054688 -4.054688 0.828125 -4.359375 C 0.597656 -4.660156 0.484375 -5.050781 0.484375 -5.53125 C 0.484375 -6.25 0.742188 -6.8125 1.265625 -7.21875 C 1.785156 -7.625 2.460938 -7.828125 3.296875 -7.828125 C 4.148438 -7.828125 4.835938 -7.625 5.359375 -7.21875 C 5.878906 -6.8125 6.15625 -6.242188 6.1875 -5.515625 L 4.15625 -5.515625 C 4.144531 -5.765625 4.050781 -5.960938 3.875 -6.109375 C 3.707031 -6.253906 3.492188 -6.328125 3.234375 -6.328125 C 3.003906 -6.328125 2.816406 -6.265625 2.671875 -6.140625 C 2.535156 -6.023438 2.46875 -5.851562 2.46875 -5.625 C 2.46875 -5.375 2.582031 -5.175781 2.8125 -5.03125 C 3.050781 -4.894531 3.421875 -4.75 3.921875 -4.59375 C 4.421875 -4.414062 4.828125 -4.25 5.140625 -4.09375 C 5.453125 -3.945312 5.722656 -3.722656 5.953125 -3.421875 C 6.179688 -3.128906 6.296875 -2.753906 6.296875 -2.296875 C 6.296875 -1.859375 6.179688 -1.457031 5.953125 -1.09375 C 5.734375 -0.738281 5.410156 -0.453125 4.984375 -0.234375 C 4.554688 -0.0234375 4.050781 0.078125 3.46875 0.078125 Z M 3.46875 0.078125 "/></g></g></g><g fill="#000000" fill-opacity="1"><g transform="translate(201.711783, 100.749289)"><g><path d="M 2.5625 -8.140625 L 2.5625 0 L 0.6875 0 L 0.6875 -8.140625 Z M 2.5625 -8.140625 "/></g></g></g><g fill="#000000" fill-opacity="1"><g transform="translate(204.954489, 100.749289)"><g><path d="M 6.46875 -3.171875 C 6.46875 -2.992188 6.457031 -2.8125 6.4375 -2.625 L 2.171875 -2.625 C 2.203125 -2.238281 2.328125 -1.941406 2.546875 -1.734375 C 2.765625 -1.535156 3.03125 -1.4375 3.34375 -1.4375 C 3.8125 -1.4375 4.140625 -1.632812 4.328125 -2.03125 L 6.328125 -2.03125 C 6.222656 -1.632812 6.035156 -1.273438 5.765625 -0.953125 C 5.503906 -0.628906 5.171875 -0.375 4.765625 -0.1875 C 4.359375 0 3.90625 0.09375 3.40625 0.09375 C 2.8125 0.09375 2.273438 -0.0351562 1.796875 -0.296875 C 1.328125 -0.554688 0.960938 -0.921875 0.703125 -1.390625 C 0.441406 -1.867188 0.3125 -2.425781 0.3125 -3.0625 C 0.3125 -3.707031 0.441406 -4.265625 0.703125 -4.734375 C 0.960938 -5.210938 1.328125 -5.578125 1.796875 -5.828125 C 2.265625 -6.085938 2.800781 -6.21875 3.40625 -6.21875 C 4 -6.21875 4.523438 -6.09375 4.984375 -5.84375 C 5.453125 -5.601562 5.816406 -5.25 6.078125 -4.78125 C 6.335938 -4.320312 6.46875 -3.785156 6.46875 -3.171875 Z M 4.546875 -3.65625 C 4.546875 -3.976562 4.4375 -4.234375 4.21875 -4.421875 C 4 -4.617188 3.722656 -4.71875 3.390625 -4.71875 C 3.078125 -4.71875 2.8125 -4.625 2.59375 -4.4375 C 2.375 -4.257812 2.238281 -4 2.1875 -3.65625 Z M 4.546875 -3.65625 "/></g></g></g><g fill="#000000" fill-opacity="1"><g transform="translate(211.725706, 100.749289)"><g><path d="M 8.515625 -6.203125 C 9.273438 -6.203125 9.878906 -5.96875 10.328125 -5.5 C 10.785156 -5.039062 11.015625 -4.40625 11.015625 -3.59375 L 11.015625 0 L 9.140625 0 L 9.140625 -3.328125 C 9.140625 -3.722656 9.035156 -4.03125 8.828125 -4.25 C 8.617188 -4.46875 8.332031 -4.578125 7.96875 -4.578125 C 7.59375 -4.578125 7.300781 -4.46875 7.09375 -4.25 C 6.882812 -4.03125 6.78125 -3.722656 6.78125 -3.328125 L 6.78125 0 L 4.921875 0 L 4.921875 -3.328125 C 4.921875 -3.722656 4.816406 -4.03125 4.609375 -4.25 C 4.398438 -4.46875 4.109375 -4.578125 3.734375 -4.578125 C 3.367188 -4.578125 3.082031 -4.46875 2.875 -4.25 C 2.664062 -4.03125 2.5625 -3.722656 2.5625 -3.328125 L 2.5625 0 L 0.6875 0 L 0.6875 -6.140625 L 2.5625 -6.140625 L 2.5625 -5.375 C 2.75 -5.625 2.992188 -5.820312 3.296875 -5.96875 C 3.609375 -6.125 3.960938 -6.203125 4.359375 -6.203125 C 4.816406 -6.203125 5.226562 -6.101562 5.59375 -5.90625 C 5.957031 -5.707031 6.242188 -5.425781 6.453125 -5.0625 C 6.660156 -5.394531 6.945312 -5.664062 7.3125 -5.875 C 7.675781 -6.09375 8.078125 -6.203125 8.515625 -6.203125 Z M 8.515625 -6.203125 "/></g></g></g><g fill="#000000" fill-opacity="1"><g transform="translate(223.366475, 100.749289)"><g><path d="M 0.3125 -3.078125 C 0.3125 -3.710938 0.425781 -4.265625 0.65625 -4.734375 C 0.894531 -5.210938 1.21875 -5.578125 1.625 -5.828125 C 2.039062 -6.085938 2.503906 -6.21875 3.015625 -6.21875 C 3.441406 -6.21875 3.816406 -6.128906 4.140625 -5.953125 C 4.472656 -5.785156 4.726562 -5.554688 4.90625 -5.265625 L 4.90625 -6.140625 L 6.78125 -6.140625 L 6.78125 0 L 4.90625 0 L 4.90625 -0.875 C 4.71875 -0.582031 4.460938 -0.347656 4.140625 -0.171875 C 3.816406 0.00390625 3.4375 0.09375 3 0.09375 C 2.5 0.09375 2.039062 -0.0351562 1.625 -0.296875 C 1.21875 -0.554688 0.894531 -0.925781 0.65625 -1.40625 C 0.425781 -1.894531 0.3125 -2.453125 0.3125 -3.078125 Z M 4.90625 -3.0625 C 4.90625 -3.53125 4.773438 -3.898438 4.515625 -4.171875 C 4.253906 -4.453125 3.9375 -4.59375 3.5625 -4.59375 C 3.1875 -4.59375 2.867188 -4.457031 2.609375 -4.1875 C 2.347656 -3.914062 2.21875 -3.546875 2.21875 -3.078125 C 2.21875 -2.609375 2.347656 -2.234375 2.609375 -1.953125 C 2.867188 -1.679688 3.1875 -1.546875 3.5625 -1.546875 C 3.9375 -1.546875 4.253906 -1.679688 4.515625 -1.953125 C 4.773438 -2.222656 4.90625 -2.59375 4.90625 -3.0625 Z M 4.90625 -3.0625 "/></g></g></g><g fill="#000000" fill-opacity="1"><g transform="translate(230.830197, 100.749289)"><g><path d="M 4.421875 -6.203125 C 5.140625 -6.203125 5.710938 -5.96875 6.140625 -5.5 C 6.566406 -5.039062 6.78125 -4.40625 6.78125 -3.59375 L 6.78125 0 L 4.921875 0 L 4.921875 -3.328125 C 4.921875 -3.742188 4.8125 -4.0625 4.59375 -4.28125 C 4.382812 -4.507812 4.097656 -4.625 3.734375 -4.625 C 3.378906 -4.625 3.09375 -4.507812 2.875 -4.28125 C 2.664062 -4.0625 2.5625 -3.742188 2.5625 -3.328125 L 2.5625 0 L 0.6875 0 L 0.6875 -6.140625 L 2.5625 -6.140625 L 2.5625 -5.328125 C 2.75 -5.597656 3.003906 -5.8125 3.328125 -5.96875 C 3.648438 -6.125 4.015625 -6.203125 4.421875 -6.203125 Z M 4.421875 -6.203125 "/></g></g></g><g clip-path="url(#1ca7332996)"><path fill="#1d764a" d="M 85.480469 139.589844 C 80.523438 139.589844 76.492188 143.625 76.492188 148.589844 C 76.492188 153.363281 84.660156 165.8125 85.011719 166.335938 C 85.113281 166.492188 85.289062 166.589844 85.480469 166.589844 C 85.667969 166.589844 85.84375 166.492188 85.949219 166.335938 C 86.296875 165.8125 94.46875 153.363281 94.46875 148.589844 C 94.46875 143.625 90.433594 139.589844 85.480469 139.589844 " fill-opacity="1" fill-rule="nonzero"/></g><path fill="#ffffff" d="M 85.480469 152.527344 C 83.3125 152.527344 81.546875 150.761719 81.546875 148.589844 C 81.546875 146.417969 83.3125 144.652344 85.480469 144.652344 C 87.648438 144.652344 89.410156 146.417969 89.410156 148.589844 C 89.410156 150.761719 87.648438 152.527344 85.480469 152.527344 " fill-opacity="1" fill-rule="nonzero"/><g fill="#000000" fill-opacity="1"><g transform="translate(51.389643, 184.100014)"><g><path d="M 5.15625 0 L 2.5625 -3.40625 L 2.5625 0 L 0.6875 0 L 0.6875 -7.71875 L 2.5625 -7.71875 L 2.5625 -4.328125 L 5.140625 -7.71875 L 7.34375 -7.71875 L 4.359375 -3.9375 L 7.453125 0 Z M 5.15625 0 "/></g></g></g><g fill="#000000" fill-opacity="1"><g transform="translate(59.051222, 184.100014)"><g><path d="M 6.75 -6.140625 L 6.75 0 L 4.859375 0 L 4.859375 -0.84375 C 4.671875 -0.5625 4.410156 -0.335938 4.078125 -0.171875 C 3.753906 -0.015625 3.394531 0.0625 3 0.0625 C 2.53125 0.0625 2.113281 -0.0390625 1.75 -0.25 C 1.394531 -0.457031 1.117188 -0.757812 0.921875 -1.15625 C 0.722656 -1.550781 0.625 -2.015625 0.625 -2.546875 L 0.625 -6.140625 L 2.5 -6.140625 L 2.5 -2.8125 C 2.5 -2.394531 2.601562 -2.070312 2.8125 -1.84375 C 3.03125 -1.613281 3.316406 -1.5 3.671875 -1.5 C 4.035156 -1.5 4.320312 -1.613281 4.53125 -1.84375 C 4.75 -2.070312 4.859375 -2.394531 4.859375 -2.8125 L 4.859375 -6.140625 Z M 6.75 -6.140625 "/></g></g></g><g fill="#000000" fill-opacity="1"><g transform="translate(66.459989, 184.100014)"><g><path d="M 2.5625 -8.140625 L 2.5625 0 L 0.6875 0 L 0.6875 -8.140625 Z M 2.5625 -8.140625 "/></g></g></g><g fill="#000000" fill-opacity="1"><g transform="translate(69.702695, 184.100014)"><g><path d="M 3.46875 0.09375 C 2.875 0.09375 2.335938 -0.0351562 1.859375 -0.296875 C 1.378906 -0.554688 1 -0.921875 0.71875 -1.390625 C 0.445312 -1.867188 0.3125 -2.425781 0.3125 -3.0625 C 0.3125 -3.695312 0.445312 -4.253906 0.71875 -4.734375 C 1 -5.210938 1.378906 -5.578125 1.859375 -5.828125 C 2.347656 -6.085938 2.894531 -6.21875 3.5 -6.21875 C 4.101562 -6.21875 4.644531 -6.085938 5.125 -5.828125 C 5.613281 -5.578125 5.992188 -5.210938 6.265625 -4.734375 C 6.546875 -4.253906 6.6875 -3.695312 6.6875 -3.0625 C 6.6875 -2.4375 6.546875 -1.882812 6.265625 -1.40625 C 5.984375 -0.925781 5.597656 -0.554688 5.109375 -0.296875 C 4.617188 -0.0351562 4.070312 0.09375 3.46875 0.09375 Z M 3.46875 -1.546875 C 3.832031 -1.546875 4.140625 -1.675781 4.390625 -1.9375 C 4.648438 -2.195312 4.78125 -2.570312 4.78125 -3.0625 C 4.78125 -3.5625 4.65625 -3.941406 4.40625 -4.203125 C 4.15625 -4.460938 3.851562 -4.59375 3.5 -4.59375 C 3.132812 -4.59375 2.828125 -4.460938 2.578125 -4.203125 C 2.335938 -3.941406 2.21875 -3.5625 2.21875 -3.0625 C 2.21875 -2.570312 2.335938 -2.195312 2.578125 -1.9375 C 2.816406 -1.675781 3.113281 -1.546875 3.46875 -1.546875 Z M 3.46875 -1.546875 "/></g></g></g><g fill="#000000" fill-opacity="1"><g transform="translate(76.704739, 184.100014)"><g><path d="M 4.421875 -6.203125 C 5.140625 -6.203125 5.710938 -5.96875 6.140625 -5.5 C 6.566406 -5.039062 6.78125 -4.40625 6.78125 -3.59375 L 6.78125 0 L 4.921875 0 L 4.921875 -3.328125 C 4.921875 -3.742188 4.8125 -4.0625 4.59375 -4.28125 C 4.382812 -4.507812 4.097656 -4.625 3.734375 -4.625 C 3.378906 -4.625 3.09375 -4.507812 2.875 -4.28125 C 2.664062 -4.0625 2.5625 -3.742188 2.5625 -3.328125 L 2.5625 0 L 0.6875 0 L 0.6875 -6.140625 L 2.5625 -6.140625 L 2.5625 -5.328125 C 2.75 -5.597656 3.003906 -5.8125 3.328125 -5.96875 C 3.648438 -6.125 4.015625 -6.203125 4.421875 -6.203125 Z M 4.421875 -6.203125 "/></g></g></g><g fill="#000000" fill-opacity="1"><g transform="translate(84.113506, 184.100014)"><g/></g></g><g fill="#000000" fill-opacity="1"><g transform="translate(86.443855, 184.100014)"><g><path d="M 6.5625 -5.234375 C 6.5625 -4.785156 6.457031 -4.375 6.25 -4 C 6.050781 -3.632812 5.738281 -3.335938 5.3125 -3.109375 C 4.882812 -2.878906 4.359375 -2.765625 3.734375 -2.765625 L 2.5625 -2.765625 L 2.5625 0 L 0.6875 0 L 0.6875 -7.71875 L 3.734375 -7.71875 C 4.347656 -7.71875 4.863281 -7.609375 5.28125 -7.390625 C 5.707031 -7.179688 6.023438 -6.890625 6.234375 -6.515625 C 6.453125 -6.148438 6.5625 -5.722656 6.5625 -5.234375 Z M 3.59375 -4.265625 C 3.945312 -4.265625 4.210938 -4.347656 4.390625 -4.515625 C 4.566406 -4.691406 4.65625 -4.929688 4.65625 -5.234375 C 4.65625 -5.546875 4.566406 -5.785156 4.390625 -5.953125 C 4.210938 -6.117188 3.945312 -6.203125 3.59375 -6.203125 L 2.5625 -6.203125 L 2.5625 -4.265625 Z M 3.59375 -4.265625 "/></g></g></g><g fill="#000000" fill-opacity="1"><g transform="translate(93.303008, 184.100014)"><g><path d="M 2.5625 -5.109375 C 2.78125 -5.453125 3.054688 -5.71875 3.390625 -5.90625 C 3.722656 -6.101562 4.085938 -6.203125 4.484375 -6.203125 L 4.484375 -4.21875 L 3.96875 -4.21875 C 3.5 -4.21875 3.144531 -4.113281 2.90625 -3.90625 C 2.675781 -3.707031 2.5625 -3.351562 2.5625 -2.84375 L 2.5625 0 L 0.6875 0 L 0.6875 -6.140625 L 2.5625 -6.140625 Z M 2.5625 -5.109375 "/></g></g></g><g fill="#000000" fill-opacity="1"><g transform="translate(98.007686, 184.100014)"><g><path d="M 3.46875 0.09375 C 2.875 0.09375 2.335938 -0.0351562 1.859375 -0.296875 C 1.378906 -0.554688 1 -0.921875 0.71875 -1.390625 C 0.445312 -1.867188 0.3125 -2.425781 0.3125 -3.0625 C 0.3125 -3.695312 0.445312 -4.253906 0.71875 -4.734375 C 1 -5.210938 1.378906 -5.578125 1.859375 -5.828125 C 2.347656 -6.085938 2.894531 -6.21875 3.5 -6.21875 C 4.101562 -6.21875 4.644531 -6.085938 5.125 -5.828125 C 5.613281 -5.578125 5.992188 -5.210938 6.265625 -4.734375 C 6.546875 -4.253906 6.6875 -3.695312 6.6875 -3.0625 C 6.6875 -2.4375 6.546875 -1.882812 6.265625 -1.40625 C 5.984375 -0.925781 5.597656 -0.554688 5.109375 -0.296875 C 4.617188 -0.0351562 4.070312 0.09375 3.46875 0.09375 Z M 3.46875 -1.546875 C 3.832031 -1.546875 4.140625 -1.675781 4.390625 -1.9375 C 4.648438 -2.195312 4.78125 -2.570312 4.78125 -3.0625 C 4.78125 -3.5625 4.65625 -3.941406 4.40625 -4.203125 C 4.15625 -4.460938 3.851562 -4.59375 3.5 -4.59375 C 3.132812 -4.59375 2.828125 -4.460938 2.578125 -4.203125 C 2.335938 -3.941406 2.21875 -3.5625 2.21875 -3.0625 C 2.21875 -2.570312 2.335938 -2.195312 2.578125 -1.9375 C 2.816406 -1.675781 3.113281 -1.546875 3.46875 -1.546875 Z M 3.46875 -1.546875 "/></g></g></g><g fill="#000000" fill-opacity="1"><g transform="translate(105.00973, 184.100014)"><g><path d="M 3.015625 -6.21875 C 3.441406 -6.21875 3.816406 -6.128906 4.140625 -5.953125 C 4.472656 -5.785156 4.726562 -5.554688 4.90625 -5.265625 L 4.90625 -6.140625 L 6.78125 -6.140625 L 6.78125 -0.015625 C 6.78125 0.554688 6.664062 1.070312 6.4375 1.53125 C 6.21875 1.988281 5.878906 2.351562 5.421875 2.625 C 4.960938 2.894531 4.394531 3.03125 3.71875 3.03125 C 2.8125 3.03125 2.070312 2.8125 1.5 2.375 C 0.9375 1.945312 0.613281 1.367188 0.53125 0.640625 L 2.390625 0.640625 C 2.453125 0.867188 2.59375 1.050781 2.8125 1.1875 C 3.03125 1.320312 3.300781 1.390625 3.625 1.390625 C 4.019531 1.390625 4.332031 1.273438 4.5625 1.046875 C 4.789062 0.828125 4.90625 0.472656 4.90625 -0.015625 L 4.90625 -0.875 C 4.71875 -0.59375 4.460938 -0.359375 4.140625 -0.171875 C 3.816406 0.00390625 3.441406 0.09375 3.015625 0.09375 C 2.503906 0.09375 2.039062 -0.0351562 1.625 -0.296875 C 1.21875 -0.554688 0.894531 -0.925781 0.65625 -1.40625 C 0.425781 -1.894531 0.3125 -2.453125 0.3125 -3.078125 C 0.3125 -3.710938 0.425781 -4.265625 0.65625 -4.734375 C 0.894531 -5.210938 1.21875 -5.578125 1.625 -5.828125 C 2.039062 -6.085938 2.503906 -6.21875 3.015625 -6.21875 Z M 4.90625 -3.0625 C 4.90625 -3.53125 4.773438 -3.898438 4.515625 -4.171875 C 4.253906 -4.453125 3.9375 -4.59375 3.5625 -4.59375 C 3.1875 -4.59375 2.867188 -4.457031 2.609375 -4.1875 C 2.347656 -3.914062 2.21875 -3.546875 2.21875 -3.078125 C 2.21875 -2.609375 2.347656 -2.234375 2.609375 -1.953125 C 2.867188 -1.679688 3.1875 -1.546875 3.5625 -1.546875 C 3.9375 -1.546875 4.253906 -1.679688 4.515625 -1.953125 C 4.773438 -2.222656 4.90625 -2.59375 4.90625 -3.0625 Z M 4.90625 -3.0625 "/></g></g></g><g fill="#000000" fill-opacity="1"><g transform="translate(112.473452, 184.100014)"><g><path d="M 3.46875 0.09375 C 2.875 0.09375 2.335938 -0.0351562 1.859375 -0.296875 C 1.378906 -0.554688 1 -0.921875 0.71875 -1.390625 C 0.445312 -1.867188 0.3125 -2.425781 0.3125 -3.0625 C 0.3125 -3.695312 0.445312 -4.253906 0.71875 -4.734375 C 1 -5.210938 1.378906 -5.578125 1.859375 -5.828125 C 2.347656 -6.085938 2.894531 -6.21875 3.5 -6.21875 C 4.101562 -6.21875 4.644531 -6.085938 5.125 -5.828125 C 5.613281 -5.578125 5.992188 -5.210938 6.265625 -4.734375 C 6.546875 -4.253906 6.6875 -3.695312 6.6875 -3.0625 C 6.6875 -2.4375 6.546875 -1.882812 6.265625 -1.40625 C 5.984375 -0.925781 5.597656 -0.554688 5.109375 -0.296875 C 4.617188 -0.0351562 4.070312 0.09375 3.46875 0.09375 Z M 3.46875 -1.546875 C 3.832031 -1.546875 4.140625 -1.675781 4.390625 -1.9375 C 4.648438 -2.195312 4.78125 -2.570312 4.78125 -3.0625 C 4.78125 -3.5625 4.65625 -3.941406 4.40625 -4.203125 C 4.15625 -4.460938 3.851562 -4.59375 3.5 -4.59375 C 3.132812 -4.59375 2.828125 -4.460938 2.578125 -4.203125 C 2.335938 -3.941406 2.21875 -3.5625 2.21875 -3.0625 C 2.21875 -2.570312 2.335938 -2.195312 2.578125 -1.9375 C 2.816406 -1.675781 3.113281 -1.546875 3.46875 -1.546875 Z M 3.46875 -1.546875 "/></g></g></g></svg>