<svg xmlns="http://www.w3.org/2000/svg" xmlns:xlink="http://www.w3.org/1999/xlink" width="40" zoomAndPan="magnify" viewBox="0 0 30 30.000001" height="40" preserveAspectRatio="xMidYMid meet" version="1.0"><defs><clipPath id="cef61d06fc"><path d="M 1.894531 5.589844 L 28.023438 5.589844 L 28.023438 23.734375 L 1.894531 23.734375 Z M 1.894531 5.589844 " clip-rule="nonzero"/></clipPath></defs><g clip-path="url(#cef61d06fc)"><path fill="#1d764a" d="M 9.027344 15.265625 C 10.992188 15.265625 12.585938 13.640625 12.585938 11.636719 C 12.585938 9.636719 10.992188 8.007812 9.027344 8.007812 C 7.0625 8.007812 5.46875 9.636719 5.46875 11.636719 C 5.46875 13.640625 7.0625 15.265625 9.027344 15.265625 Z M 23.265625 8.007812 L 13.773438 8.007812 L 13.773438 16.476562 L 4.28125 16.476562 L 4.28125 5.589844 L 1.910156 5.589844 L 1.910156 23.734375 L 4.28125 23.734375 L 4.28125 20.105469 L 25.636719 20.105469 L 25.636719 23.734375 L 28.011719 23.734375 L 28.011719 12.847656 C 28.011719 10.171875 25.886719 8.007812 23.265625 8.007812 Z M 23.265625 8.007812 " fill-opacity="1" fill-rule="nonzero"/></g></svg>