<svg xmlns="http://www.w3.org/2000/svg" xmlns:xlink="http://www.w3.org/1999/xlink" width="40" zoomAndPan="magnify" viewBox="0 0 30 30.000001" height="40" preserveAspectRatio="xMidYMid meet" version="1.0"><defs><clipPath id="603a375a32"><path d="M 6.289062 1.453125 L 23.695312 1.453125 L 23.695312 27.582031 L 6.289062 27.582031 Z M 6.289062 1.453125 " clip-rule="nonzero"/></clipPath></defs><g clip-path="url(#603a375a32)"><path fill="#1d764a" d="M 14.992188 1.453125 C 10.191406 1.453125 6.289062 5.359375 6.289062 10.160156 C 6.289062 14.78125 14.199219 26.828125 14.539062 27.335938 C 14.640625 27.488281 14.808594 27.582031 14.992188 27.582031 C 15.175781 27.582031 15.34375 27.488281 15.445312 27.335938 C 15.78125 26.828125 23.695312 14.78125 23.695312 10.160156 C 23.695312 5.359375 19.792969 1.453125 14.992188 1.453125 " fill-opacity="1" fill-rule="nonzero"/></g><path fill="#ffffff" d="M 14.992188 13.972656 C 12.890625 13.972656 11.183594 12.261719 11.183594 10.160156 C 11.183594 8.058594 12.890625 6.351562 14.992188 6.351562 C 17.09375 6.351562 18.800781 8.058594 18.800781 10.160156 C 18.800781 12.261719 17.09375 13.972656 14.992188 13.972656 " fill-opacity="1" fill-rule="nonzero"/></svg>